<?xml version="1.0" encoding="UTF-8"?>
<!-- Created with Inkscape (http://www.inkscape.org/) -->
<svg width="1e3" height="1e3" version="1.1" viewBox="140 -7 725 725" xmlns="http://www.w3.org/2000/svg">
 <path d="m814.05 331.53c0 82.352-12.781 108.43-93.086 166.67-80.305 58.231-119.75 151.93-233.32 151.93s-173.89-90.98-254.19-149.21c-80.305-58.231-174.02-78.944-174.02-161.3-2e-6 -82.352 45.115-161.33 125.42-219.56 80.305-58.231 189.22-90.945 302.79-90.945 113.57 2e-6 167.92 60.299 248.23 118.53 80.305 58.231 78.173 101.54 78.173 183.89z" fill="#fff" stroke-dashoffset="10.834" stroke-linecap="round" stroke-linejoin="round" stroke-miterlimit="25.8" stroke-width=".12156" style="paint-order:fill markers stroke"/>
 <path d="m500.64 12.445c-209.14-4.1561-480.81 111.72-492.17 350.52l8.1334 61.691 23.259 59.707c9.1627-4.5166 29.766 0.98552 9.6133 17.854 7.8521 4.0327 33.209-32.194 20.078 2.8067 11.629-19.846 23.389-18.522 24.131-4.3317-5.6011 13.565 41.919-45.078 26.318-7.7797-10.217 12.103-14.994 38.24 2.3753 11.067 16.445-24.64 28.559-15.792 5.4499 7.9579-15.014 21.832-12.074 27.654 4.1652 5.7178 10.091-16.126 41.818-16.751 13.348 6.9117-25.282 30.594 36.431-31.6 8.0626 8.0356 11.592-0.80758 4.1443 10.931 14.905-12.347 5.8217 0.92428-14.619 35.9-1.1685 28.538-8.0468 16.667-18.35 49.788 0.0781 15.141 2.276-19.841 38.812-37.916 20.164-8.3906-12.035 15.313-16.676 44.94 0.10194 12.869 23.079-41.873 1.4992 31.745 6.9966 27.199 8.0564-23.189 49.352-49.847 34.208-16.858 11.419 12.879 8.8043 39.13-8.4815 58.485 16.834 6.9793 19.275 6.8508-2.6904 11.658 39.789 21.562 68.167-4.0769 110.52 7.0194-5.132 18.077 22.676-16.017 25.096 7.711-8.1796 13.591 24.589 24.147 32.587 20.274 17.941 15.129 56.619 7.6668 82.397 6.3457 34.85 1.4888 71.894 10.219 104.21-7.2423 23.696-20.05 57.413-6.2853 81.561-26.422 22.279-8.6759 43.028-22.773 68.321-26.997 8.6825-13.793 20.284-27.618 36.79-27.011 11.776-8.2039 32.142-32.808 5.5-11.882-38.943 3.2844 15.468-16.111 29.084-25.824 6.2593 5.4155 32.009-6.7298 30.059-20.424 1.2336-12.47-27.12-12.624-21.974 0.26398-0.19783-22.033-53.328 7.916-21.284-20.895-5.1551-34.171-49.957-24.79-77.308-23.515-2.083 18.67-38.927 5.2122-36.244 9.728 18.78 16.451-40.108 12.805-41.213 5.9766 36.768 8.0701-17.716 11.758-31.85 14.492-32.454-0.83691 27.963 18.503-14.51 9.7871 4.1742 13.139-46.948-9.0236-12.26 9.7207-12.403-2.3894-64.143-12.76-24.901 3.1769 15.255 13.258-60.501-22.825-42.154 4.6085-25.894-20.932-18.028 17.349-35.445-1.7854-13.989-6.389-36.621-0.64026-53.186-9.9805-21.824-6.1436-30.796 1.0902-45.317-13.771-19.745-3.4118-51.802 7.2181-31.035-7.922-24.856-12.768-51.435-0.62277-33.34-13.524-27.036-6.7423-53.629-26.427-71.621-40.402-25.178-30.355 13.019-2.0165 34.36-7.8172 30.296 19.848-28.525-40.855-14.538-30.57-24.979-2.7809-2.3295-46.99-23.145-37.764-4.5129-20.531 31.642-31.688 15.183-36.656 27.922-12.527 23.73-45.357 40.227-62.594 15.901-19.781 40.106-31.63 63.633-39.285-5.0916 29.089-35.155 64.553-31.458 101.7-0.8485 51.859 27.896 98.485 67.51 130.06 23.947 28.246 66.011 24.579 99.882 25.335 38.588-6.2686 82.569 4.3949 114.09-22.895 60.456-46.618 83.284-131.05 64.532-203.42-2.1544-24.928 28.063-2.5327 32.167 4.5033 9.343 17.904 46.546 24.672 58.555 54 13.105 16.108 4.4195 15.469 17.391 38.5 1.2514 25.676-13.096 47.285-24.825 70.605-9.3468 10.341-48.773 21.608-9.7323 21.974 25.793 7.0634 63.021 10.844 93.664 3.2832 27.888-1.5567 96.013 17.46 91.542-24.114-12.479-45.835-54.067-73.955-75.898-114.22-17.145-13.095-34.347-49.912-3.2164-42.031 27.292 21.877 46.703 52.481 69.035 79.592 13.538 18.484 49.659 65.237 33.204 17.172-5.6542-18.425-20.328-49.569-24.578-56.834-23.664-17.413 2.0325-25.561 7.5352-0.92969 12.466-15.838 32.841 22.601 47.846 25.446 16.026-3.439 9.3207 40.458 15.119 5.9698-12.669-62.15 61.647 91.74-6.0696-79.098-64.838-195.74-292.23-277.58-481.38-277.87zm4.1016 103.93c13.896 8.791 65.818 0.69451 27.453 26.027-25.973 15.121-61.469-2.4762-27.453-26.027zm4.3106 130.62c11.27 20.506 4.7075 6.2717 14.136 7.1924 0.0381 28.731 6.0392 21.573 8.9763 3.0928-4.8239 31.783 55.088 15.06 35.102 44.427-11.516-5.4101-35.197-7.5584-55.671-6.4917-23.138-3.5491-54.937-1.4969-72.637 13.703-7.4858 26.475-69.816 24.463-51.572-3.2031 1.6421-7.8375 18.813-16.328 14.57-22.971 1.3744-11.404 17.8 4.5268 11.55-12.992 11.867 3.2686 11.186-8.5022 18.198-3.6217-0.56869-22.227 34.509 27.551 18.574-5.4905 4.2552-27.675 29.735-2.956 12.572 15.354 12.274-19.682 17.072-11.462 29.79-20.69 6.9918 25.383 7.4676 1.6375 16.411-8.31zm483.67 113.21 0.0644 1.9766zm-0.30274 7.0234c-3.6448 1.1329 2.3644 8.429 0 0z" fill="#6799c7"/>
 <path d="m500.64 12.445c-209.14-4.1561-480.81 111.72-492.17 350.52l8.1334 61.691 23.259 59.707c9.1627-4.5166 29.766 0.98552 9.6133 17.854 7.8521 4.0327 33.209-32.194 20.078 2.8067 11.629-19.846 23.389-18.522 24.131-4.3317-5.6011 13.565 41.919-45.078 26.318-7.7797-10.217 12.103-14.994 38.24 2.3753 11.067 16.445-24.64 28.559-15.792 5.4499 7.9579-15.014 21.832-12.074 27.654 4.1652 5.7178 10.091-16.126 41.818-16.751 13.348 6.9117-25.282 30.594 36.431-31.6 8.0626 8.0356 11.592-0.80758 4.1443 10.931 14.905-12.347 5.8217 0.92428-14.619 35.9-1.1685 28.538-8.0468 16.667-18.35 49.788 0.0781 15.141 2.276-19.841 38.812-37.916 20.164-8.3906-12.035 15.313-16.676 44.94 0.10194 12.869 23.079-41.873 1.4992 31.745 6.9966 27.199 8.0564-23.189 49.352-49.847 34.208-16.858 11.419 12.879 8.8043 39.13-8.4815 58.485 16.834 6.9793 19.275 6.8508-2.6904 11.658 39.789 21.562 68.167-4.0769 110.52 7.0194-5.132 18.077 22.676-16.017 25.096 7.711-8.1796 13.591 24.589 24.147 32.587 20.274 17.941 15.129 56.619 7.6668 82.397 6.3457 34.85 1.4888 71.894 10.219 104.21-7.2423 23.696-20.05 57.413-6.2853 81.561-26.422 22.279-8.6759 43.028-22.773 68.321-26.997 8.6825-13.793 20.284-27.618 36.79-27.011 11.776-8.2039 32.142-32.808 5.5-11.882-38.943 3.2844 15.468-16.111 29.084-25.824 6.2593 5.4155 32.009-6.7298 30.059-20.424 1.2336-12.47-27.12-12.624-21.974 0.26398-0.19783-22.033-53.328 7.916-21.284-20.895-5.1551-34.171-49.957-24.79-77.308-23.515-2.083 18.67-38.927 5.2122-36.244 9.728 18.78 16.451-40.108 12.805-41.213 5.9766 36.768 8.0701-17.716 11.758-31.85 14.492-32.454-0.83691 27.963 18.503-14.51 9.7871 4.1742 13.139-46.948-9.0236-12.26 9.7207-12.403-2.3894-64.143-12.76-24.901 3.1769 15.255 13.258-60.501-22.825-42.154 4.6085-25.894-20.932-18.028 17.349-35.445-1.7854-13.989-6.389-36.621-0.64026-53.186-9.9805-21.824-6.1436-30.796 1.0902-45.317-13.771-19.745-3.4118-51.802 7.2181-31.035-7.922-24.856-12.768-51.435-0.62277-33.34-13.524-27.036-6.7423-53.629-26.427-71.621-40.402-25.178-30.355 13.019-2.0165 34.36-7.8172 30.296 19.848-28.525-40.855-14.538-30.57-24.979-2.7809-2.3295-46.99-23.145-37.764-4.5129-20.531 31.642-31.688 15.183-36.656 27.922-12.527 23.73-45.357 40.227-62.594 16.159-19.574 40.31-32.712 64.458-38.783 27.37 3.5513-29.147 46.309-22.538 74.214-6.9008 35.519-2.2734 79.961 19.193 107.67 26.611 30.674 52.785 71.542 98.752 72.617 41.762 2.1999 84.18-0.7588 125.22-9.5729 44.593-12.411 70.569-57.527 84.346-98.759 12.667-45.052 16.473-98.723-14.503-137.36-7.2966-15.844-61.131-49.66-15.793-28.635 31.609 10.317 57.529 30.43 76.316 57.197 23.567 18.264 44.581 37.892 62.586 62.408-9.2936 4.9958 24.333 35.974 1.8266 52.933 0.22067 20.574-16.066 41.852-30.211 54.82-26.171 3.8955-11.545 16.125 8.2617 13.746 32.688 12.43 71.313 0.5975 107 3.0664 33.154 5.6897 99.611 2.4832 64.078-46.339-17.73-34.856-49.588-59.06-67.938-93.197-17.145-13.095-34.347-49.912-3.2164-42.031 27.292 21.877 46.703 52.481 69.035 79.592 13.538 18.484 49.659 65.237 33.204 17.172-5.6542-18.425-20.328-49.569-24.578-56.834-23.664-17.413 2.0325-25.561 7.5352-0.92969 12.466-15.838 32.841 22.601 47.846 25.446 16.026-3.439 9.3207 40.458 15.119 5.9698-12.669-62.15 61.647 91.74-6.0696-79.098-64.838-195.74-292.23-277.58-481.38-277.87zm4.1016 103.93c13.896 8.791 65.818 0.69451 27.453 26.027-25.973 15.121-61.469-2.4762-27.453-26.027zm-10.775 126.33c5.0323 24.957 11.525-6.8493 30.205 8.6443 3.9678 12.714 27.726 0.93736 41.83 17.805 31.063 23.595-1.1626 56.093-30.774 32.796-21.991 16.074-60.297 0.71118-82.271 6.0498-13.027 23.002-38.229 34.373-63.089 26.959 10.051 10.173 21.071 25.992 10.134 47.041 6.808 25.636 29.113 34.357 47.547 48.027-1.9406 21.013 27.769-2.5908 24.824 25.298 9.2195-0.40732 7.4412-12.743 17.069 3.099 15.599-4.7866 22.343-23.575 30.262 4.2611 17.718 1.1205-5.3762-37.215 23.395-17.714 10.768-3.0276-0.0678-17.478 17.825-19.909 11.233-10.957 21.429-3.0834 21.274-20.499 4.6431-24.292 39.875-3.0624 17.725-30.283 25.053-26.578 48.862 22.601 21.443 49.007-17.718 38.427-47.252 79.552-92.65 76.701-31.496 7.0189-73.585 12.975-102.3-7.4567-19.774-15.264-48.856-33.141-52.395-54.1-8.6661-5.3224-33.384-20.606-9.4453-31.695-12.899-1.0702-18.199-4.4468-13.799-23.115-11.979-15.805 19.067-37.72 32.595-46.999-28.096-19.562 8.1744-50.382 27.081-69.083 19.427-11.853 53.256-24.911 65.376-17.539 2.0054-12.211 11.996-3.1545 18.137-7.2949zm498.76 117.51 0.0644 1.9766zm-0.30274 7.0234c-3.6448 1.1329 2.3644 8.429 0 0z" fill="#a78776"/>
 <path d="m524.67 12.883c-1.0353 0.50135-1.145 1.044 0.22656 2.5039 1.1586 1.2333 2.1074 2.6632 2.1074 3.1777 2e-5 1.3274-11.696 0.93255-13.363-0.45117-1.0852-0.90062-1.7036-0.6593-2.8691 1.1191-1.6352 2.4951-7.3451 3.1533-9.8809 1.1387-1.8358-1.4585-6.8867-2.3368-6.8867-1.1973 0 0.49662-0.82027 0.45777-1.8398-0.08789-1.0123-0.54177-2.9248-1.0014-4.25-1.0195-1.3252-0.0181-3.4472-0.0435-4.7148-0.05664-1.4798-0.01534-2.0504-0.43497-1.5938-1.1738 0.49522-0.80128-0.0163-0.96141-1.6836-0.52539-1.3171 0.34443-4.0736 0.12439-6.125-0.49024-2.8987-0.86847-4.0743-0.83206-5.2793 0.16797-1.2756 1.0586-1.8589 1.0149-3.2832-0.25-3.234-2.8722-16.23-0.95485-16.23 2.3945 0 1.3263-0.91795 2.1016-2.9785 2.5137-1.6377 0.32753-3.4914 1.2159-4.1211 1.9746-1.5216 1.8334-3.3962 1.7405-5.4023-0.26562-2.3016-2.3016-6.386-4.8473-8.6699-5.6973a492.17 350.52 0 0 0-16.135 2.2852c-0.0654 0.06451-0.22375 0.10608-0.26563 0.17383-0.40982 0.66311-2.161 0.81836-4.6855 0.52734a492.17 350.52 0 0 0-5.209 0.73828c-0.0609 0.14079-0.14542 0.24018-0.1914 0.41602-0.39721 1.519-1.5444 1.7732-7.6543 1.6895-3.9531-0.05418-8.4531 0.37259-10 0.94922-1.5701 0.58527-2.41 0.46765-3.2168-0.07031a492.17 350.52 0 0 0-8.7148 1.3848c2e-3 0.02698-0.0205 0.04316-0.0176 0.07031 0.18292 1.6725-0.29389 2.1777-2.0508 2.1777-1.2585 0-2.8283 0.53922-3.4883 1.1992-0.93333 0.93333-1.1992 0.93333-1.1992 0 0-0.66 0.45-1.1992 1-1.1992 0.72755 0 0.9468-0.49524 0.93164-1.082a492.17 350.52 0 0 0-6.3223 1.5273c0.38629 0.65276 0.38018 1.0518-0.42383 1.3223-0.72305 0.24324-1.731 1.5375-2.2402 2.877-0.7712 2.0284-1.25 2.2619-2.8633 1.3984-1.0654-0.57016-2.6615-0.7577-3.5469-0.41797-1.0435 0.40044-3.0828-0.68263-4.375-1.9277a492.17 350.52 0 0 0-102.69 33.506c-0.53409 1.0413-1.7186 1.5736-3.0176 1.4355a492.17 350.52 0 0 0-17.396 8.2793c-0.89685 2.5043-2.5306 4.582-4.7344 4.582-1.6182 0-2.8114 0.54575-2.8164 1.2871-0.0205 3.3861-5.6853 4.0116-7.7988 1.4336a492.17 350.52 0 0 0-9.1875 4.5957c-0.66246 1.0117-1.4992 1.6342-2.418 1.5117a492.17 350.52 0 0 0-20.225 12.631c0.0858 0.35923-0.28899 0.67263-1.3262 1.2598-1.0714 0.60652-3.3214 2.5447-5 4.3066-3.5604 3.7372-5.857 4.6382-7.748 3.2246a492.17 350.52 0 0 0-4.0274 2.5156c-0.0655 0.91845-1.1267 1.3378-2.668 1.666a492.17 350.52 0 0 0-102.29 104.5c0.32549 0.51468 0.68599 1.0346 1.123 1.4082 3.2579 2.7847 3.5082 8.6168 0.5 11.625-3.2005 3.2005-2.9317 3.2662-6.0625-1.4648-0.60658-0.9166-1.2886-1.677-1.9414-2.3535a492.17 350.52 0 0 0-1.4766 2.1328c1e-3 0.0255 0.03711 0.0572 0.03711 0.082 0 0.80344 1.2745 2.6248 2.832 4.0488 1.5575 1.424 3.1301 3.2648 3.4941 4.0898 0.364 0.825 1.227 2.3139 1.918 3.3086 1.0498 1.5112 0.95716 2.0295-0.55859 3.1562-1.6019 1.1908-9.1708-4.6043-10.965-7.9023a492.17 350.52 0 0 0-3.2324 6.7812c0.30819 0.66881 0.63522 1.2396 0.92578 1.4199 0.65225 0.40476 2.3747 2.7976 3.8281 5.3164 1.4534 2.5188 3.3425 5.162 4.1992 5.873 2.0506 1.7019 1.9921 6.0106-0.10352 7.543-1.1608 0.84883-1.4152 1.7864-0.8418 3.1094 0.45168 1.042 0.704 2.3445 0.56055 2.8945s-0.32684 3.025-0.4082 5.5c-0.12661 3.8515-0.47271 4.5468-2.3984 4.8203-1.7488 0.24837-2.25 0.97237-2.25 3.25 0 3.1006-1.688 3.8413-3.8418 1.6875-0.98885-0.98883-1.4008-0.98251-2.0273 0.0312-1.8973 3.07-9.1309-4.4726-9.1309-9.5214 0-0.7205-1.0876-1.8049-2.416-2.4102-0.04362-0.0199-0.07755-0.0665-0.12109-0.0879a492.17 350.52 0 0 0-16.996 91.191 492.17 350.52 0 0 0 17.57 92.398c0.20367-0.35187 0.43458-0.68604 0.52734-1.1094 1.1764-5.3686 1.3268-5.5851 2.9473-4.2402 1.2172 1.0102 1.4883 0.92804 1.4883-0.44727 0-0.92481-0.45393-1.4009-1.0078-1.0586-0.55388 0.34231-1.3016-0.14654-1.6621-1.0859-1.0266-2.6752 2.315-4.4986 6.8984-3.7656 3.3534 0.53622 3.961 0.34036 4.4219-1.4219 0.35598-1.3613 1.6707-2.2556 3.9414-2.6816 2.0224-0.37941 3.4082-1.2305 3.4082-2.0938 0-0.98642 1.0894-1.4551 3.3848-1.4551 2.5072 0 3.8102-0.64832 5.0234-2.5 0.90093-1.375 2.1397-2.5 2.7539-2.5 0.61419 0 1.6883-0.78102 2.3867-1.7363 1.2055-1.6484 1.367-1.6494 3.1875-2e-3 1.4605 1.3217 3.149 1.633 7.0762 1.3066 7.8013-0.64825 7.0794 3.5507-2.084 12.121-1.7754 1.6605-4.3429 4.3235-5.7051 5.916-1.3622 1.5925-5.5422 6.4826-9.2891 10.869-5.541 6.4869-9.7344 12.555-9.7344 14.088 0 1.6807 10.368-8.9525 16.846-17.277 9.7111-12.481 20.861-21.285 26.957-21.285 0.51048 0 2.1544-0.96469 3.6543-2.1445 1.4999-1.1798 4.148-2.4305 5.8848-2.7793 1.8729-0.3761 3.5507-1.5182 4.123-2.8047 1.371-3.0819 8.3524-4.2416 10.213-1.6973 0.72751 0.99493 1.3223 1.3544 1.3223 0.80078s1.9046-0.91367 4.2324-0.80078c2.8787 0.13961 5.0006-0.39818 6.6348-1.6836 3.2011-2.518 6.1328-2.4662 6.1328 0.10938 0 1.1 0.0268 2.324 0.0606 2.7207 0.0337 0.39673-2.3366 1.4092-5.2676 2.25-16.053 4.6051-34.233 21.161-39.912 36.346-1.7667 4.7242-3.2071 6.6244-7.5879 10.008-7.4763 5.7742-19.72 17.58-18.99 18.311 0.62114 0.62114 1.7597-0.16848 10.645-7.3848 6.5485-5.3187 8.419-5.5085 7.8691-0.79883-0.53493 4.5821 1.2628 3.116 4.0098-3.2695 2.1849-5.0789 3.9051-6.9779 8.6738-9.5742 1.65-0.89832 3.8985-2.1906 4.9961-2.8711 1.0976-0.6805 3.1226-1.9303 4.5-2.7774 6.1389-3.7753 30.251-12.21 39.004-13.645 3.8554-0.63196 7.905 8.0019 5.7539 12.268-1.7986 3.5667-2.9533 10.418-1.7559 10.418 0.47962 0 2.0217-0.43809 3.4277-0.97266 3.1764-1.2076 5.0385-0.54283 6.2812 2.2422 0.71462 1.6015 1.9115 2.1875 4.668 2.2832 7.9128 0.27478 6.8974 3.4199-3.375 10.459-5.2248 3.5803-22.542 20.903-25.762 25.77-3.9978 6.0428 0.99733 2.2452 13.656-10.383 20.366-20.316 27.105-23.882 27.105-14.34 0 5.4217 0.65796 5.9909 3.3242 2.877 1.8285-2.1356 5.3667-2.227 4.9258-0.12696-0.1375 0.65484 0.2 1.1914 0.75 1.1914 3.9243 0-0.74817 6.3723-6.9883 9.5312-3.007 1.5222-9.0117 6.9025-9.0117 8.0742 0 1.3955 4.3298-0.0271 6.4082-2.1055 2.829-2.829 4.5918-3.2128 4.5918-1 0 1.7066 1.5673 2.0093 2.5098 0.48438 1.3086-2.1173 2.3288 0.17857 1.3398 3.0156-1.7768 5.0968-0.24603 5.7221 2.0703 0.8457 3.324-6.9978 8.0801-10.173 8.0801-5.3945 0 2.0323-9.1095 11.72-10.514 11.182-1.4854-0.56998-2.845 1.8969-5.4258 9.8438-2.3432 7.2152-2.0127 7.978 1.2441 2.8672 4.8909-7.675 22.605-23.768 24.299-22.074 0.31198 0.31199-1.6427 3.4162-4.3438 6.8984-15.721 20.267-23.538 32.942-26.145 42.381-1.379 4.9942-0.93485 4.531 6.5332-6.7988 9.6518-14.643 28.271-35.588 31.75-35.717 1.4533-0.0538-0.13203 16.552-1.9082 19.986-0.88828 1.7178-5.1223 8.4313-9.4082 14.918-7.2921 11.037-10.901 18.062-9.2773 18.062 0.38545 0 2.382-2.5875 4.4355-5.75 15.503-23.875 16.673-24.477 17.041-8.7637 0.20744 8.86 1.2965 6.3963 2.6875-6.084 1.5864-14.233 8.8273-24.674 10.682-15.402 0.69778 3.4889 0.68176 3.483 3.8125 1.4316 2.5653-1.6808 4.5371 0.0688 4.5371 4.0254 0 1.6994-6.227 14.209-10.664 21.424-3.6144 5.8774-0.65631 4.4185 6.2812-3.0996 9.5835-10.385 16.418-14.451 18.32-10.896 0.58291 1.0892 1.96 2.2659 3.0606 2.6152 1.1006 0.34931 2.002 1.2753 2.002 2.0586 0 0.78328 0.84458 1.9529 1.877 2.5977 1.7625 1.1007 1.5755 1.6206-3.0723 8.5391-6.7049 9.9807-5.7662 10.623 3.3574 2.2969 8.8462-8.0731 9.3013-8.211 11.311-3.4024 0.82503 1.9746 2.4063 3.8276 3.5137 4.1172 3 0.78453 2.6606 1.654-5.3652 13.709-11.508 17.285-17.189 27.543-21.299 38.461-4.4059 11.704-0.56284 7.1213 8.7012-10.377 7.2873-13.764 21.447-32.5 24.562-32.5 7.591 0 7.5474 7.6082-0.10156 17.633-12.072 15.822-13.654 21.938-2.9238 11.311 6.6719-6.6081 9.2456-7.0043 7.7891-1.2012-0.3999 1.5933-0.12377 2.2578 0.93555 2.2578 2.6912 0 2.7771 3.0779 0.30664 10.898-1.335 4.226-2.9618 10.59-3.6152 14.143-0.65343 3.5526-2.0401 9.1905-3.082 12.529-3.0193 9.6753-2.1982 14.557 1.5488 9.207 0.85618-1.2224 1.5566-4.109 1.5566-6.416s0.93232-6.3712 2.0723-9.0293c1.1399-2.6581 2.9802-7.532 4.0898-10.832 3.301-9.8172 6.6108-16.31 8.498-16.674 4.3813-0.84378 9.4793 0.41187 10.297 2.5352 1.3626 3.5386 7.0614 7.0868 10.857 6.7598 3.7272-0.32112 7.3869 2.192 6.5117 4.4727-0.35837 0.93389 0.16695 1.4062 1.5664 1.4062 1.1588 0 2.1074 0.43601 2.1074 0.96875 0 0.53273 0.70124 0.69835 1.5586 0.36914 1.0148-0.38941 1.7366 0.0787 2.0664 1.3398 0.27878 1.0661 2.0389 2.7637 3.9102 3.7715 5.6582 3.0472 6.9109 11.028 2.375 15.133-2.4077 2.1793-2.4107 3.1247-0.01 3.8867 1.0453 0.33177 2.1966 1.7822 2.5586 3.2246 0.65824 2.6226 0.65908 2.6228 3.6309-0.63086 2.1201-2.3212 3.4648-3.0433 4.6914-2.5234 0.94566 0.40082 7.7608 0.82827 15.145 0.95117 14.052 0.23389 15.406 0.68362 17.402 5.7734 0.30984 0.79013 1.3719 0.17025 2.9434-1.7148 3.4444-4.1317 13.936-5.428 17.545-2.168 2.3168 2.0928 2.3168 2.094 4-0.0371 1.5442-1.9551 22.002-4.8272 32.684-4.5879 12.8 0.28669 17.014 1.2128 16.225 3.5625-0.22985 0.68389-2.4685 1.2063-5.3106 1.2402-5.0826 0.0605-17.218 1.2193-21.164 2.0215-1.2375 0.25155-2.25 1.1091-2.25 1.9043 0 0.79516-1.0125 1.9792-2.25 2.6308-4.7447 2.4986-4.898 4.8848-0.31445 4.8848 4.9551 0 8.5644 1.6218 8.5644 3.8477 0 1.4372 0.9611 2.0506 3.9668 2.5312 2.1819 0.3489 4.8644 1.5964 5.9609 2.7734 1.7663 1.8959 2.6862 2.0684 8.0684 1.5059 4.8704-0.50905 6.1886-0.33977 6.6465 0.85352 1.0016 2.6101 3.1241 1.721 2.5879-1.084-0.5776-3.0215 1.3945-7.1556 4.1035-8.6055 2.468-1.3208 9.6375 1.9092 9.6543 4.3496 0.01 1.445 0.96295 1.612 7.0117 1.2305 6.8517-0.43213 8.1279 0.0694 5.8867 2.3106-1.8595 1.8595-0.0365 3.265 3.4023 2.623 3.6406-0.67964 6.0579-2.3359 3.4102-2.3359-2.1215 0-2.1498-0.84462-0.10547-3.1035 0.87667-0.96871 2.2267-1.5194 3-1.2226 0.77355 0.29674 1.4065 0.04242 1.4065-0.56642 0-0.60885-0.675-1.1074-1.5-1.1074-2.1428 0-1.8526-1.7409 0.5-3 1.1-0.5887 2-1.9806 2-3.0938 0-1.1746 0.44557-1.7485 1.0625-1.3672 0.58466 0.36134 1.852-0.0569 2.8164-0.92968 1.8496-1.6738 13.207-3.6606 16.301-2.8516 2.2676 0.59299 2.3425 3.0091 0.16601 5.4141-2.0688 2.286 0.3585 2.6431 3.9707 0.58398 1.2013-0.68482 4.6586-1.6985 7.6836-2.252 4.9822-0.91154 5.4683-1.2282 5.168-3.3652-0.18237-1.2975 0.0426-2.1827 0.5-1.9668 0.45737 0.21593 2.0402 1 3.5176 1.7422 3.455 1.7356 5.8144 0.80288 5.8144-2.2988 0-1.3464 0.5625-2.713 1.25-3.0371 0.6875-0.32415 0.0393-0.36038-1.4394-0.0801-1.4788 0.28031-2.9674 0.0579-3.3086-0.49414-0.34117-0.55199-1.649-1.0039-2.9062-1.0039-4.7351 0-7.0432-5.8885-2.3457-5.9844 1.808-0.0369 0.53208-1.9077-1.5-2.1992-1.661-0.23829-2.1876-0.91174-2.0117-2.5703 0.21133-1.9933-0.21176-2.2461-3.75-2.2461-14.459 0 3.2206-7.7784 27.037-11.895 3.0386-0.52518 6.7511-1.2625 8.25-1.6387 2.59-0.65004 2.7246-0.5034 2.7246 2.9258 0 2.9052-0.37871 3.6074-1.9414 3.6074-1.0675 0-2.2187 0.45-2.5586 1s-1.6298 1-2.8672 1-3.1238 0.69926-4.1914 1.5527c-1.8865 1.5081-1.8781 1.5334 0.30859 0.93165 1.9099-0.52556 2.25-0.23004 2.25 1.9492 0 3.3894 2.7356 3.3931 4.0234 6e-3 0.53536-1.4081 1.4236-2.282 1.9746-1.9414 1.3873 0.85739 1.255 3.8485-0.23633 5.3398-4.5825 4.5825-0.0815 14.162 6.6543 14.162 1.7341 0 5.8031-5.8359 4.9883-7.1543-2.9774-4.8176-0.42755-20.771 2.8809-18.025 1.1919 0.98919 5.468 0.475 9.7148-1.1699 0.825-0.31954 3.525-0.75218 6-0.96094 3.0175-0.25452 4.5-0.84322 4.5-1.7852 0-0.77259 1.0331-1.5515 2.2949-1.7305 1.9179-0.27197 2.2252 0.0562 1.8789 2-1.0984 6.1662-2.0143 8.7428-3.2852 9.2305-3.0903 1.1859-1.0771 2.3461 3.8613 2.2246 4.5032-0.11076 5.2642-0.41341 5.3516-2.1289 0.0561-1.1 0.1686-3.4485 0.25-5.2188 0.11547-2.5101 0.50148-3.0826 1.75-2.6035 0.88051 0.33788 1.9854-0.0104 2.457-0.77343 0.68287-1.1049 1.1108-1.1354 2.0996-0.14649 1.4038 1.4038 11.842 1.7207 11.842 0.35938 0-1.3823 5.3521-2.0635 6.8008-0.86524 3.0808 2.5483 4.6065-1.6534 2.0391-5.6152-2.6344-4.0652-5.2264-4.6494-6.8848-1.5508-1.609 3.0064-2.1536 1.7848-0.85938-1.9277 0.91829-2.6342 1.7616-3.2711 5.0254-3.793 2.1576-0.34502 4.1657-1.0183 4.4609-1.4961 0.29527-0.47776 1.7698-0.86914 3.2774-0.86914 1.5075 0 3.2414-0.5012 3.8535-1.1133 1.1509-1.1509 3.2871-0.43218 3.2871 1.1055 0 0.48048-0.85901 1.1455-1.9082 1.4785-2.9624 0.94022-3.306 3.3986-0.83203 5.9512 1.2319 1.2712 2.7232 3.1317 3.3125 4.1348 1.5762 2.6829 3.1098 2.8359 5.1016 0.50977 0.97357-1.137 2.2565-2.0664 2.8496-2.0664 2.139 0 6.4608-2.5277 6.4688-3.7832 4e-3 -0.70604 1.594-2.2211 3.5332-3.3652 1.9392-1.1442 4.0054-2.9724 4.5898-4.0644 0.78108-1.4594 1.7603-1.8531 3.6992-1.4824 3.5872 0.68574 10.186-4.4549 10.186-7.9356 0-1.686 0.94106-2.9997 2.9844-4.166 5.1446-2.9366 5.0573-7.7296-0.12696-6.9687-1.5716 0.23066-2.8574 0.0685-2.8574-0.36133 0-1.455-7.3271-2.1876-10.375-1.0371-1.6462 0.62139-3.2473 0.87138-3.5586 0.55664-0.84092-0.85028 5.0499-5.3418 7.9336-6.0488 1.375-0.33714 3.1966-1.2144 4.0469-1.9492 0.85028-0.73483 5.5753-3.1948 10.5-5.4668 4.9247-2.272 12.328-5.7139 16.453-7.6504 4.125-1.9365 10.2-4.4078 13.5-5.4902 8.0842-2.6518 20.116-8.4027 22.439-10.727 1.9917-1.9918 12.676-9.0607 13.695-9.0607 0.32813 0 2.7977-1.6143 5.4863-3.5879 4.8546-3.5636 5.7078-5.703 1.877-4.7012-2.2495 0.58827-2.9077-2.1483-0.71875-2.9883 10.842-4.1604 1.9132-17.578-12.066-18.133-1.2576-0.0499-2.6583-0.69148-3.1133-1.4277-1.7012-2.7531-20.312-5.5197-22.074-3.2812-2.1774 2.7658-10.477 5.3117-14.721 4.5156-3.0558-0.57327-3.8407-0.25514-6.457 2.6094-2.8364 3.1055-3.2389 3.2342-8.4414 2.6973-4.7171-0.48684-5.4236-0.33801-5.1836 1.0957 0.19855 1.1862-1.0076 2.0657-4.2227 3.0801-2.475 0.78088-6.6086 2.2537-9.1856 3.2715-6.3184 2.4955-7.2181 2.378-11.562-1.502-2.0641-1.8434-5.102-3.6661-6.752-4.0508-2.5474-0.59392-2.208-0.16094 2.25 2.877 9.0897 6.1942 0.86967 8.8457-12.25 3.9512-1.86-0.69393-1.8426-0.5729 0.25 1.7285 2.9799 3.2773 2.9198 3.4629-1.8926 5.918-4.767 2.4319-5.9996 2.2966-17.857-1.9629-10.733-3.8553-15.91-4.0325-10-0.3418 3.3967 2.1213 2.4048 3.4766-2 2.7324-4.915-0.83039-5.0264-0.30345-0.5 2.3672 5.606 3.3076 4.2316 6.7382-1.9941 4.9785-4.5727-1.2925-5.7128-1.0741-5.0644 0.96875 0.62363 1.9649-7.293 5.1856-12.746 5.1856-1.4455 0-4.1133 0.70806-5.9297 1.5742-2.9802 1.4212-3.7352 1.4261-7.7441 0.0449-5.0709-1.7471-6.0595-1.4244-3.6816 1.2031 6.4724 7.1519-5.7792 7.6923-17.582 0.77539-4.3236-2.5338-16.51-5.6569-21.572-5.5293-3.0855 0.0778-4.0703-0.43893 10.688 5.5977 9.5707 3.9148 11.225 5.3063 9.207 7.7383-2.4841 2.9932-7.2396 2.4814-15.316-1.6465-9.1076-4.6547-25.248-7.6512-37.014-6.873-2.969 0.19636 3.6251 10.115 6.7246 10.115 0.82077 0 5.9873 3.9391 5.4102 4.125-5.718 1.8399-9.8096 0.60426-15.344-4.6289-5.2823-4.9951-11.861-8.5105-13.275-7.0957-0.32973 0.32974 1.2768 2.3297 3.5684 4.4453 7.2256 6.6707 4.3312 7.6004-4.8164 1.5469-4.808-3.1818-5.8916-2.6812-3.3848 1.5625 2.4289 4.1118 1.1563 5.9954-5.123 7.5898-7.5684 1.9217-9.6354 0.0848-7-6.2226 2.8566-6.8368 1.0014-7.2132-5.2871-1.0723-4.537 4.4305-8.3629 3.583-6.7715-1.5 0.30134-0.9625 0.82687-2.65 1.166-3.75 0.64711-2.0988-2.8542-3.0425-4.0586-1.0938-1.4505 2.347-9.5586 4.0717-9.5586 2.0332 0-2.2906-1.7406-2.451-4.4414-0.4082-2.8678 2.1691-4.3307 1.8099-6.0332-1.4824-1.526-2.951-1.527-2.9512-5.7324-1.0684-4.6829 2.0966-5.793 1.873-5.793-1.1699 0-2.1679-0.54156-2.1815-9.168-0.2168-2.6038 0.59301-2.6558 0.51174-2.1387-3.3438 0.61356-4.5744-1.108-5.9296-5.1758-4.0762-1.806 0.82268-2.8137 0.82539-3.7988 8e-3 -1.5961-1.3246-18.601-0.0732-23.033 1.6953-4.0914 1.6322-5.6856 1.3863-5.6856-0.87712 0-2.4477 0.21481-2.4494-5.6133 0.0488-5.1958 2.2272-11.887 2.3054-11.887 0.13867 0-1.4102 3.2453-3.5593 7.8594-5.2031 3.1545-1.1238 2.1741-3.9844-1.3652-3.9844-0.96851 0-1.9955-0.9-2.2832-2-0.73802-2.8222-8.1587-2.667-23.68 0.49414-6.7339 1.3715-12.645 2.2434-13.137 1.9394-1.7718-1.095-0.82246-2.429 3.1797-4.4707 6.9746-3.5582 3.8395-5.3776-7.7969-4.5234-9.9948 0.73367-11.715-0.12799-6.0781-3.043 2.514-1.3 4.9762-1.5418 11.5-1.1348 7.9251 0.49444 10.336-0.16938 6.5508-1.8027-0.9625-0.41538-7.825-0.88191-15.25-1.0371-21.096-0.44096-24.907-1.1428-24.984-4.6035-0.0202-0.89964 2.7103-1.7148 6.7344-2.0078 3.3828-0.24634 4.6179-1.8106 1.4297-1.8106-1.0008 0-2.7966-1.125-3.9922-2.5-1.9509-2.2437-2.9292-2.5-9.541-2.5-10.024 3e-5 -16.646-1-16.646-2.5136 0-0.6829-0.66934-1.7969-1.4883-2.4766-0.81894-0.67967-1.2746-1.5844-1.0117-2.0098s-0.14603-1.2913-0.9082-1.9238c-0.76216-0.63254-1.1707-1.9707-0.90821-2.9746 0.59227-2.2648-1.2072-3.0428-9.5078-4.1113-3.4784-0.44775-7.0784-1.4725-8-2.2773-0.95047-0.83004-4.9217-1.7561-9.1758-2.1387-11.718-1.0539-14.39-3.3066-8.5-7.166 3.7278-2.4425 3.0978-3.1982-3.25-3.8984-10.466-1.1544-11.395-1.4783-11.057-3.8516 0.24379-1.711 1.1821-2.2749 4.5371-2.7226 6.4161-0.85635 6.1724-1.5622-1.8496-5.3594-4.06-1.9218-8.9559-4.3976-10.881-5.5s-4.7687-2.2609-6.3203-2.5762c-4.5817-0.9309-2.5709-3 2.916-3 5.7467 0 6.8496-2.3341 1.9043-4.0293-1.65-0.56559-7.0716-3.7343-12.047-7.043-4.9753-3.3087-10.488-6.6138-12.25-7.3438-4.5049-1.866-3.9852-3.2332 0.92969-2.4473 6.4798 1.0362 4.4846-1.7487-2.9375-4.0996-5.0966-1.6143-6.0942-2.2794-5.625-3.7578 0.61898-1.9502-9.9642-7.7773-14.129-7.7793-1.1324-4.3e-4 -2.9046-0.61775-3.9375-1.373-2.7254-1.9928 0.60754-2.8926 5.9961-1.6191 7.2698 1.718 10.814 0.3753 4.75-1.7988-1.5125-0.54225-3.875-2.4059-5.25-4.1426-1.375-1.7367-3.4842-4.2981-4.6875-5.6914-5.6302-6.519-1.6453-16.703 8.1348-20.789 1.921-0.80263 5.0514-3.0182 6.957-4.9238 2.4469-2.447 4.7314-3.6594 7.7793-4.127 2.3736-0.36414 6.4926-1.4102 9.1524-2.3262 8.1181-2.7956 16.953 3.9824 13.639 10.463-2.6758 5.2319-5.338 8.3281-7.1621 8.3281-2.6477 0-2.213 1.8972 0.6875 3 2.7986 1.064 6.4832 6.4434 6.5078 9.5 9e-3 1.175 1.455 2.9325 3.5039 4.2598 3.186 2.0638 3.4883 2.6736 3.4883 7.0625 0 4.573 3.6871 14.489 5.3066 14.271 3.5306-0.47496 6.1476 0.36579 9.041 2.9062 1.8994 1.6677 4.5567 3 5.9844 3 1.4126 0 2.9293 0.58587 3.3691 1.3008 1.0754 1.748 10.132 6.9216 11.385 6.5039 0.54817-0.18272-0.85801-2.801-3.125-5.8184-6.6332-8.8289-8.0864-13.058-8.3652-24.33-0.0876-3.542-0.40187-3.9483-3.9961-5.1836-4.9238-1.6923-5.5651-2.7533-5.584-9.2324-0.0117-4.0097-0.49095-5.6672-2.0156-6.9726-2.398-2.0532-2.5313-4.0645-0.46289-7.0176 2.1314-3.0429 1.004-12.25-1.5-12.25-0.93748 0-1.9929-0.28786-2.3457-0.64062-0.91198-0.91198 7.2067-10.359 8.9023-10.359 0.77378 0 1.4062-0.79957 1.4062-1.7773s0.9-2.5484 2-3.4902 2-2.5634 2-3.6035c0-1.0401 1.6875-3.1469 3.75-4.6816 2.0625-1.5347 3.9616-2.9634 4.2207-3.1738 0.25907-0.21047-0.17178-0.78107-0.95898-1.2676-1.2073-0.74617-1.1398-1.2068 0.43359-2.9453 2.1834-2.4126 4.5547-2.7043 4.5547-0.56055 0 1.9628 1.4143 1.9107 3.0957-0.11523 1.8977-2.2866 3.8498-8.3623 3.2168-10.012-0.77789-2.0272 2.2111-6.1545 8.8262-12.191 3.8348-3.4996 5.8041-6.0647 5.7578-7.5-0.21342-6.6148 2.601-11.107 8.2578-13.182 3.3172-1.2164 6.6086-3.3356 8.4004-5.4082 6.2894-7.2751 11.941-12.609 15.225-14.369 1.8847-1.0101 4.2933-2.6449 5.3516-3.6309 1.0583-0.98594 3.6577-2.3122 5.7773-2.9473 2.1196-0.63506 4.4131-1.826 5.0957-2.6484s1.6796-1.4961 2.2148-1.4961c1.8924 0 6.9319-4.2664 7.8301-6.6289 0.50077-1.3171 2.1581-2.9441 3.6816-3.6133 1.5235-0.66916 3.1097-1.7523 3.5254-2.4082 0.41569-0.65594 3.1157-1.9616 6-2.9004 2.8843-0.93881 5.9191-2.2482 6.7441-2.9102 7.8028-6.2611 15-7.2151 15-1.9883 0 2.8214 2.4614 5.4492 5.1035 5.4492 2.855 0 3.4582 2.7594 1.1602 5.3008-1.0937 1.2095-3.1981 4.8992-4.6777 8.1992-1.4796 3.3-4.1456 7.575-5.9238 9.5-7.0315 7.6118-17.61 26.744-20.182 36.5-0.72483 2.75-1.9986 7.025-2.832 9.5-1.5949 4.7362-2.6851 9.0025-5.2383 20.5-2.3963 10.791-2.1359 32.957 0.51757 44 0.52863 2.2 1.1732 7.4362 1.4316 11.637 0.33976 5.5224 1.2978 9.5377 3.4609 14.5 1.6453 3.7745 3.6673 9.1133 4.4941 11.863 0.82683 2.75 2.2381 6.575 3.1348 8.5 4.5988 9.8728 5.0478 10.505 7.2676 10.195 1.6834-0.23465 2.6584 0.6199 4.2383 3.7168 1.1283 2.2117 2.9446 4.4993 4.0371 5.084 1.0925 0.58469 2.6815 2.4036 3.5293 4.043 0.84776 1.6394 4.6353 6.0644 8.418 9.832s7.7873 8.6326 8.8984 10.811c2.6923 5.2774 19.633 20.844 27.982 25.713 9.619 5.6096 15.523 7.7577 33.68 12.248 6.728 1.6639 46.948 2.6352 51.832 1.252 1.5574-0.44113 9.6574-1.063 18-1.3828 8.3426-0.31977 19.443-1.0393 24.668-1.5996 8.4459-0.90574 13.631-1.6799 32.5-4.8496 5.4962-0.92327 23.988-8.3796 30.727-12.389 9.615-5.7206 35.515-34.195 40.273-44.277 1.5303-3.2427 4.4983-8.4313 6.5977-11.529 4.3941-6.4845 13.035-28.975 16.469-42.867 7.74-31.313 8.0214-78.823 0.54882-92.785-0.57714-1.0784-1.5272-4.0945-2.1113-6.7012-1.0092-4.5033-4.4723-10.516-9.7461-16.922-1.3166-1.5992-4.1271-6.3519-6.2441-10.562-3.4178-6.7976-4.8696-8.472-12.959-14.932-5.0108-4.0012-10.335-8.8319-11.832-10.734-1.4972-1.9025-4.2977-4.4191-6.2227-5.5938-4.13-2.5201-10-8.2264-10-9.7207 0-3.7873 14.023 1.8291 15.02 6.0156 0.36077 1.5153 1.3178 2.4596 2.5312 2.498 1.0725 0.0339 2.6242 0.33398 3.4492 0.66797 1.6975 0.68721 5.9456 1.6548 10.76 2.4512 1.7926 0.29653 3.5062 0.94046 3.8086 1.4297 0.30236 0.48923 2.2102 0.90242 4.2402 0.91992 2.03 0.0175 4.5652 0.6925 5.6328 1.5 1.0676 0.80751 2.7088 1.4688 3.6484 1.4688 1.7333 0 9.8656 5.103 14.947 9.3789 1.532 1.2891 6.1376 4.1823 10.232 6.4297 4.5075 2.4739 10.244 6.8689 14.539 11.139 3.9021 3.8789 7.3813 7.0527 7.7305 7.0527s2.9998 2.4218 5.8906 5.3828c2.8908 2.961 7.3578 6.3133 9.9258 7.4492 2.568 1.1359 4.9494 2.7982 5.293 3.6934 0.34351 0.89518 1.6883 2.0331 2.9883 2.5273 1.4411 0.54791 2.3633 1.7119 2.3633 2.9824 0 1.1461 0.43136 1.8163 0.95898 1.4902 0.52763-0.32609 1.7651-0.16129 2.75 0.36719 0.98488 0.52849 2.5895 1.209 3.5645 1.5117 0.97498 0.30268 2.0567 1.3473 2.4043 2.3223 0.3476 0.97497 2.1455 3.6593 3.9961 5.9648s3.2438 4.6691 3.0957 5.252c-0.25875 1.0181 2.3187 2.8731 6.8887 4.9551 2.4991 1.1386 9.3418 9.7421 9.3418 11.746 0 0.74591 0.52539 1.3555 1.168 1.3555 1.8599 0 16.832 16.16 16.832 18.168 0 0.99868 0.89973 2.3773 2 3.0644 3.6283 2.2659 7.2929 11.292 6.5254 16.072-0.37058 2.3079-0.8292 7.7953-1.0195 12.195-0.19032 4.4-0.87472 10.475-1.5215 13.5-0.64678 3.025-1.1408 7.075-1.0977 9s-0.61216 6.3187-1.4551 9.7637c-0.84293 3.445-1.9143 9.6681-2.3809 13.828-0.63961 5.7034-1.4038 8.1534-3.1074 9.9668-1.5676 1.6686-2.2875 3.7093-2.3516 6.6641-0.0849 3.9115-0.33616 4.3052-3.0918 4.8242-1.6567 0.31205-2.8812 1.1208-2.7344 1.8066 0.14621 0.68303-0.30379 1.1675-1 1.0762-4.1658-0.54615-5.0671 1.5825-1.8887 4.459 1.648 1.4914 1.9466 1.5124 2.4609 0.17188 0.76564-1.9952 3.6621-0.88611 3.6621 1.4023 0 1.1101-1.1865 2.0972-3.25 2.7031-2.1547 0.63271-3.156 1.4977-2.9727 2.5684 0.26938 1.5732-1.3482 3.2192-3.1934 3.25-2.4268 0.0405-1.1552 2.2092 2.2539 3.8418 3.1306 1.4992 6.0395 1.7981 16.238 1.668 6.8331-0.0872 14.064-0.17029 16.068-0.18359 2.3956-0.0159 4.3651 0.69909 5.75 2.084 2.7408 2.7408 2.9284 2.7148 10.404-1.3945 3.5022-1.9251 6.6475-3.2197 6.9902-2.877 0.34272 0.34272 5.0315 0.81214 10.418 1.043 24.768 1.0613 41.467 2.5109 47.566 4.1309 10.105 2.684 41.391-2.797 35.775-6.2676-0.57671-0.35642-1.0488-1.2954-1.0488-2.0879 0-2.2094 3.7845-1.711 5.0566 0.66601 1.9648 3.6714 5.6244-5.1839 4.6465-11.244-1.2742-7.8958-4.0367-16.628-6.5273-20.639-9.5747-15.416-13.65-21.038-22.635-31.225-0.72772-0.825-7.4626-7.5016-14.967-14.838-7.5042-7.3362-14.41-14.536-15.346-16-1.9285-3.0172-10.506-12.336-20.479-22.248-4.1281-4.103-6.75-7.5388-6.75-8.8438 0-1.1735-0.7875-2.4333-1.75-2.8008-3.0836-1.1772-5.3348-3.8864-4.6699-5.6191 0.36412-0.94887 0.14212-1.6504-0.52344-1.6504-0.63691 0-1.8168-1.575-2.6211-3.5-0.80431-1.925-1.9066-3.5-2.4492-3.5s-0.98633-0.82813-0.98633-1.8398c0-1.0347-1.199-2.3857-2.7402-3.0879-2.6758-1.2192-2.6925-1.2817-0.75391-2.6992 1.9241-1.4069 0.91697-3.3041-1.7812-3.3574-3.2307-0.0638-2.85-11.909 0.41016-12.762 3.2024-0.83744 2.0476-3.0258-2.375-4.5-3.6262-1.2088-4.3957-1.9695-5.3145-5.2441-0.71682-2.5548-1.8683-4.1213-3.457-4.709-4.3928-1.625-5.2412-2.8621-3.3789-4.9199 0.91237-1.0082 2.0469-1.5933 2.5234-1.2988 0.47649 0.29449 1.3393 0.24509 1.916-0.11133 2.1452-1.3258-1.1848-3.3047-5.5625-3.3047-11.431 0-8.4675-10.738 3.2773-11.873 4.1134-0.39767 12.911-3.2843 19.891-6.5274 2.6235-1.219 4.3457-0.31088 4.3457 2.293 0 1.2743 0.68694 1.9414 2 1.9414 1.1 0 2 0.40472 2 0.90039 0 0.49568 1.5311 1.8061 3.4023 2.9102 2.0895 1.2328 3.8961 3.3749 4.6836 5.5527 0.82359 2.2776 2.0196 3.6521 3.3438 3.8418 1.2556 0.1799 2.7624 1.7832 3.8516 4.1016 1.3744 2.9253 2.2164 3.6702 3.6387 3.2188 1.7584-0.55809 7.0801 4.2924 7.0801 6.4531 0 0.454 1.3286 1.2891 2.9531 1.8555 2.139 0.74567 3.1895 1.9448 3.8066 4.3477 0.6235 2.4276 1.8239 3.7812 4.4707 5.041 1.9898 0.94707 3.8878 2.5743 4.2188 3.6172 0.331 1.0429 1.4902 2.7008 2.5762 3.6836s1.9746 2.5695 1.9746 3.5254 0.69576 2.0035 1.5469 2.3301c0.85107 0.3266 2.0237 1.96 2.6055 3.6289 1.104 3.1669 4.1851 5.5201 5.8672 4.4805 0.5382-0.33262 1.9234 0.99594 3.0781 2.9531 1.1815 2.0025 2.8952 3.5586 3.918 3.5586 1.0576 0 2.3718 1.2542 3.1445 3 0.73036 1.65 1.5939 3 1.918 3 1.6287 0 1.6007-1.5099-0.082-4.5059-3.9303-6.9976-4.5591-16.494-1.0918-16.494 2.087 0 2.2201-5.9415 0.1875-8.3906-4.1839-5.0413 6.9868-13.673 11.654-9.0059 0.76858 0.76857 2.165 1.3965 3.1035 1.3965s2.5066 0.93419 3.4844 2.0762c1.341 1.5662 2.1022 1.8063 3.0996 0.97852 1.0126-0.84034 1.4485-0.61168 1.8633 0.97461 0.41405 1.5834 1.2096 2.0011 3.373 1.7715 2.2824-0.24229 2.8917 0.13216 3.1484 1.9394 0.17512 1.2327 1.1089 2.8077 2.0762 3.5 0.96726 0.69234 2.274 2.1598 2.9024 3.2598 0.62838 1.1 1.1552 1.4375 1.1719 0.75 0.0752-3.0915 6.5954 0.97242 8.9961 5.6074 0.85038 1.6418 1.5385 2.0396 2.2676 1.3106 1.1541-1.1541 8.7175 4.4289 8.75 6.459 0.01 0.62015 0.66668 1.6667 1.459 2.3242 0.79232 0.65756 1.1829 1.864 0.86914 2.6816-0.3673 0.95715 0.18916 1.6843 1.5605 2.043 1.3863 0.36252 2.1289 1.3524 2.1289 2.834 0 4.3291 8.9056 5.0899 11.592 0.99023 2.1526-3.2854 3.8641-3.1551 6.5664 0.5 2.9021 3.9253 6.6036 3.9602 10.736 0.0996 3.3139-3.0956 3.5035-4.08 2.1504-11.096-0.60185-3.1204-0.51957-4.71 0.26563-5.1953 0.83282-0.51471 0.79188-1.6373-0.1543-4.2539-0.94452-2.612-1.0109-4.4165-0.25-6.8047 0.39651-1.2446 0.874-2.8515 1.3223-4.3516a492.17 350.52 0 0 0-447.2-292.81c-0.35187 0.08297-0.76513 0.14912-0.81445-0.03906a492.17 350.52 0 0 0-13.553-0.66992zm-15.99 99.705c2.3466 0.0963 4.4446 1.1784 5.8867 3.5117 0.31619 0.5116 4.4809 0.89135 9.2559 0.84375 6.2211-0.062 10.468 0.49416 14.984 1.9609 5.1337 1.6672 6.6654 1.8202 8.2539 0.82812 6.4787-4.046 6.405 2.2599-0.13476 11.572-2.7072 3.8549-4.9219 7.7598-4.9219 8.6777 0 1.5569-1.8285 3.5742-6.3945 7.0566-1.7489 1.3338-1.8387 1.2732-1.1816-0.79687 0.95751-3.0168-1.0135-2.944-9.2266 0.34179-7.7754 3.1106-10.98 3.5283-18.197 2.3711-3.025-0.48508-6.097-0.67353-6.8262-0.41992-4.9487 1.7211-13.232-8.3516-10.035-12.203 0.72372-0.87203 1.4188-3.197 1.5449-5.168 0.65775-10.282 9.9523-18.865 16.992-18.576zm-14.711 130.12c2.2432-0.36803 3.638 2.1668 4.0352 7.4648 0.64548 8.6096 1.4017 9.1777 3.5156 2.6445 2.7708-8.5631 8.4676-10.466 13.225-4.418 1.3956 1.7743 2.5453 2.2158 4.8809 1.873 3.9606-0.58129 6.2874 1.6529 5.6465 5.4238-0.47697 2.8064-0.47797 2.8066 1.1836 0.55664 1.7905-2.4246 6.3562-3.0772 6.9961-1 0.2118 0.6875 0.67827 2.5696 1.0352 4.1836 0.64887 2.9345 0.64733 2.9362 2.8359 0.19141 2.4544-3.0781 8.7817-2.6533 12.652 0.84961 1.3122 1.1876 2.7818 1.4741 5.2051 1.0195 3.3809-0.63427 10.824 4.6338 10.824 7.6602 0 0.58163 1.125 2.3932 2.5 4.0273 1.375 1.6341 2.5 3.6117 2.5 4.3945 0 0.81848 0.97811 1.4238 2.3008 1.4238 3.6523 0 4.6349 1.7516 3.998 7.1289-0.40217 3.3956-0.0465 6.2439 1.1836 9.4648 2.174 5.6925 0.16194 9.4781-5.5898 10.52-1.8657 0.3378-5.4178 1.5551-7.8926 2.7031-4.0395 1.8739-4.7286 1.9366-6.7363 0.62109-1.23-0.80595-4.9221-1.7467-8.2051-2.0898-4.4618-0.46635-6.5287-1.2206-8.1875-2.9863-2.5024-2.6637-10.945-3.3954-12.816-1.1113-0.56339 0.6875-2.2368 2.7607-3.7188 4.6074-2.5032 3.1192-2.9841 3.3087-6.7656 2.6621-2.2388-0.38278-6.6591-1.0103-9.8223-1.3945-3.1632-0.38421-6.4402-1.3894-7.2832-2.2324-1.6931-1.6931-6.8822-1.1424-17.465 1.8496-8.6118 2.4348-15.647 1.7743-19.781-1.8555-5.0344-4.4202-10.452-3.8848-11.264 1.1133-0.72823 4.4854-3.6596 8.9375-6.6289 10.066-1.6455 0.62561-2.3377 1.6946-2.3652 3.6582-0.0547 3.9054-7.525 7.5217-13.693 6.6289-3.3245-0.48118-4.3606-0.27303-4.8379 0.9707-0.33413 0.87073-2.1508 2.4937-4.0352 3.6055s-3.8568 3.1564-4.3848 4.5449c-1.0788 2.8375-4.7092 3.4714-5.6621 0.98828-2.2641-5.9002-26.065-6.1182-24.1-0.2207 0.54769 1.6431 7.4579 5.0078 10.285 5.0078 1.3361 0 2.9387 0.61208 3.5606 1.3613 1.5345 1.849 0.4038 4.3887-1.9531 4.3887-1.5223 0-0.99958 0.93435 2.5156 4.5 2.44 2.475 4.9026 4.5 5.4707 4.5 2.2496 0-0.40499 6.5788-3.8535 9.5508-3.2243 2.7787-3.4207 3.2406-2.2012 5.1934 1.1502 1.8418 1.0982 2.4101-0.36719 4.0293-1.8669 2.0629-2.2935 5.2266-0.70508 5.2266 0.55 0 1 0.81371 1 1.8086s0.66124 2.6824 1.4688 3.75c0.8075 1.0676 1.4825 2.7763 1.5 3.7969 0.0175 1.0206 1.1562 3.1921 2.5312 4.8262 1.375 1.6341 2.5 3.783 2.5 4.7734 0 2.4126 2.3749 4.2443 5.7422 4.4297 4.1574 0.22884 5.3964 1.4419 5.0605 4.957-0.27703 2.8999-0.0385 3.1837 2.9102 3.4688 2.0767 0.20077 4.0864 1.3495 5.6856 3.25 1.9635 2.3334 3.2819 2.9394 6.3984 2.9394 3.6484 0 3.8914 0.17671 3.4473 2.5-0.41946 2.1943-0.12732 2.5017 2.3887 2.5137 7.623 0.0363 8.7241 1.8912 5.8887 9.9277-1.4576 4.1313-1.4481 4.1872 0.74219 3.875 1.5768-0.22475 2.3817-1.1883 2.7656-3.3164 0.49043-2.7183 0.86231-2.9727 3.9668-2.7168 3.9777 0.32789 5.444 2.0221 3.6289 4.1934-1.4821 1.7729-1.0219 5.0234 0.71094 5.0234 0.65425 0 1.6348-0.98363 2.1777-2.1856 2.7428-6.072 10.902 1.0045 9.9492 8.6289-0.60245 4.8218-0.46191 5.3279 1.9082 6.8809 4.6935 3.0753 5.7732 2.3152 6.8535-4.8242 0.52028-3.4384 2.9357-2.1904 4.6406 2.3965 2.306 6.204 4.144 7.084 8.2949 3.9805 2.8033-2.0959 3.7837-2.3353 6.0957-1.4922 4.038 1.4725 5.4462-0.30361 4.1348-5.2168-1.179-4.417-0.24598-14.815 1.0645-11.863 0.75491 1.7006 0.93116 1.6811 3.0762-0.33399 2.593-2.436 4.7076-0.60198 3.709 3.2168-0.27381 1.047 0.18529 2.4451 1.0195 3.1074 0.83424 0.66235 2.0669 3.6801 2.7402 6.7051 2.6482 11.896 8.2574 16.048 13.41 9.9238 3.3378-3.9667 3.2628-6.0116-0.41016-11.082-1.65-2.2778-3-4.8853-3-5.7949 0-2.3311-6.009-7.8165-9-8.2148-2.0172-0.26868-2.4395-0.81484-2.1856-2.832 0.17308-1.375 0.33011-4.6219 0.34961-7.2148 0.0385-5.103 2.4231-7.2041 5.3848-4.7461 2.0492 1.7007 1.8034 2.7692-0.72071 3.1406-3.2435 0.47727-3.5323 2.8203-0.34765 2.8203 2.38 0 2.6162 0.32554 2.334 3.2207-0.41795 4.2868 2.2796 4.8592 5.668 1.2031 3.1137-3.3597 3.1959-5.7202 0.26758-7.707-2.9051-1.9711-1.1349-4.5286 1.9805-2.8613 1.0701 0.57272 2.8673 0.80054 3.9941 0.50586s2.3512-0.0471 2.7207 0.55078c1.0609 1.7166 3.4245 1.267 3.4785-0.66211 0.17181-6.1352 1.1468-6.5312 1.6719-0.67969 0.17925 1.9977 0.87479 4.2921 1.5449 5.0996 1.048 1.2627 0.5342 1.4228-3.6758 1.1484-5.9052-0.3848-6.5755 0.98686-3.9023 7.9863 2.6012 6.8111 7.9588 11.359 12.438 10.559 4.9452-0.88368 5.199-1.176 3.6426-4.1816-2.0486-3.956-3.9131-10.245-3.2383-10.92 1.0653-1.0653 6.4816-1.2543 7.1035-0.24805 0.91351 1.4781 2.4922 1.1875 2.4922-0.45898 0-0.79499 1.2342-2.037 2.7422-2.7598 1.8115-0.86823 2.9154-2.3237 3.2559-4.2891 0.60703-3.5046 4.8442-4.6614 13.752-3.7578 6.0364 0.61233 7.0626-1.1908 3.0859-5.4238-2.7809-2.9601-1.4386-6.4622 3.3594-8.7617 4.0003-1.9172 8.1446-7.9141 7.3027-10.566-1.112-3.5036 3.7833-5.6184 9.3516-4.0391 11.67 3.3098 13.184 1.9391 5.7695-5.2246-7.0486-6.8104-5.9885-16.452 1.5215-13.834 1.7507 0.61029 3.4482 0.82153 3.7715 0.46875 0.32331-0.35277 0.0254-0.84235-0.66211-1.0879-2.6743-0.95512-0.9766-2.0751 5.5449-3.6602 12.596-3.0614 16.181-0.6982 15.6 10.287-0.30683 5.8022-0.0659 7.0809 1.623 8.6094 3.7639 3.4063 0.48732 22.869-4.8789 28.98-1.728 1.9681-4.3276 5.9238-5.7754 8.791-1.4478 2.8672-3.6822 6.4689-4.9668 8.0039s-3.2683 5.9225-4.4082 9.75c-1.1569 3.8847-2.6347 6.959-3.3457 6.959-0.7005 0-2.2844 2.438-3.5195 5.418-4.805 11.593-12.971 20.168-22.922 24.072-6.8997 2.707-7.1056 2.8927-9.584 8.6074-2.0893 4.8174-3.1914 6.1159-6.2891 7.4102-2.0655 0.86301-4.4545 2.2018-5.3105 2.9766-1.4137 1.2794-9.5332 1.8171-22.518 1.4922-7.8529-0.19654-9.2867 0.0983-9.7871 2.0117-0.55855 2.1359-0.64445 2.1597-16.514 4.5176-8.8011 1.3077-13.668 1.494-22 0.83984-5.8845-0.46196-11.599-0.73985-12.699-0.61718s-4.025 0.29366-6.5 0.38086-5.175 0.46034-6 0.82812c-4.4968 2.0046-34-6.6066-34-9.9238 0-1.2674-8.5966-6.0137-10.893-6.0137-3.0127 0-8.827-5.5787-11.049-10.602-1.3892-3.1405-2.5336-4.3984-4.002-4.3984-1.1309 0-2.9566-0.7875-4.0566-1.75s-2.8069-2.4444-3.793-3.293-3.2361-2.1405-5-2.8711c-1.7639-0.73064-3.207-1.8708-3.207-2.5332 0-0.66239-1.125-2.261-2.5-3.5527-1.6354-1.5364-2.5-3.4319-2.5-5.4824 0-4.8616-1.9358-6.8734-5.3633-5.5703-4.859 1.8474-6.9198-3.2917-4.6172-11.516 1.4558-5.1995 1.1543-5.8276-2.1836-4.5586-2.5973 0.9875-5.6869-0.11141-7.1348-2.5352-0.43983-0.73627-1.4714-1.3379-2.291-1.3379-4.6304 0-9.6409-4.1043-8.9434-7.3262 0.37793-1.7455 0.93326-4.8256 1.2324-6.8457 0.52541-3.5478 0.71398-3.6966 5.5332-4.3594 4.989-0.68617 4.9887-0.68683 4.3418-4.7324-1.0534-6.5873-2.5747-6.7531-8.7871-0.96094-3.0717 2.8639-4.7049 2.2196-7.3535-2.9023-2.078-4.0184-1.8279-5.2118 2.0664-9.873 4.3116-5.1607 4.3418-6.1965 0.27539-9.3789-3.2243-2.5234-3.2249-2.5225-0.96289-5.582 2.2639-3.0621 0.74399-5.0391-3.877-5.0391-2.2667 0-0.41402-2.3076 6.8144-8.4863 4.2625-3.6435 10.757-9.1864 14.432-12.318 6.6999-5.7107 7.8526-7.7626 5.6191-9.9961-1.9125-1.9125 0.17687-3.0561 6.1992-3.3926 8.5904-0.47994 5.6904-12.516-3.4277-14.227-7.1032-1.3326-7.5455-3.6946-2.166-11.58 1.6884-2.475 4.0449-6.525 5.2363-9 1.1914-2.475 3.7842-6.2692 5.7617-8.4316 1.9776-2.1624 3.5957-4.712 3.5957-5.666 0-0.97541 1.3354-2.3183 3.0508-3.0684 1.7447-0.76292 5.1959-4.2711 8.0644-8.1953 2.7582-3.7734 5.8851-7.087 6.9492-7.3652s1.9356-0.87775 1.9356-1.332c0-1.6419 15.421-10.941 18.145-10.941 1.5055 0 3.0156-0.45 3.3555-1s2.3617-1 4.4922-1c2.922 0 4.0215-0.46505 4.4746-1.8926 0.63662-2.0058 5.3614-4.4472 7.6621-3.959 0.75369 0.15993 2.4961-0.45586 3.8711-1.3672 9.0624-6.0064 21.255-6.1392 22-0.24023 0.65201 5.1631 3.3566 5.4873 3.8281 0.45898 0.55745-5.9452 8.3642-9.4247 12.922-5.7598 0.85096 0.68429 1.7116 0.62108 2.6953-0.19531 0.93098-0.77264 1.7718-1.2172 2.5195-1.3398zm345.97 163.69c3.1597-0.3546 7.3021 0.65848 11.232 3.1738 2.018 1.2915 4.812 2.6357 6.209 2.9863s3.0632 1.268 3.7031 2.0391c0.6399 0.77104 1.694 1.4023 2.3438 1.4023 1.5671 0 7.1829 5.9696 7.9961 8.5 0.3535 1.1 2.0601 2.9 3.791 4s3.5747 3.35 4.0977 5 1.5671 3.7098 2.3203 4.5781c0.75323 0.86831 1.3691 2.7342 1.3691 4.1445 0 1.4103 0.675 2.8221 1.5 3.1387 4.8334 1.8548 0.87549 7.2474-4.1113 5.6016-4.8831-1.6116-6.5487-0.0491-4.2383 3.9766 1.633 2.8454 1.6302 2.8548-1.3809 3.457-6.3538 1.2708-8.3097 0.85784-6.3262-1.334 2.3754-2.6248 1.5937-3.4662-5.1621-5.5644-3.18-0.98767-7.6589-3.1295-9.9531-4.7598-2.2942-1.6303-5.5275-3.0318-7.1855-3.1152s-4.3762-1.1592-6.0391-2.3887c-4.155-3.072-8.4222-2.9165-11.031 0.40039-2.9181 3.7098-2.6244 4.7379 1.9316 6.748 2.2025 0.97176 4.4608 2.6178 5.0176 3.6582 0.5568 1.0404 2.8054 2.373 4.9961 2.9629 2.2408 0.60338 3.9824 1.6876 3.9824 2.4766 0 1.9456 1.8428 2.8926 3.293 1.6934 1.888-1.5612 6.6691-0.16036 8.3828 2.4551 1.7024 2.5982 4.9269 2.9958 11.641 1.4375 3.0535-0.70874 3.9307-0.58367 4.3945 0.625 0.86635 2.2576-1.3128 3.1111-9.6621 3.7832-4.1517 0.33421-9.5738 0.77841-12.049 0.98633s-6.525-0.0568-9-0.58789-6.3092-0.74354-8.5215-0.47071c-4.6514 0.57361-5.5745 0.10791-7.2266-3.6523-0.75171-1.711-1.9822-2.75-3.2559-2.75-1.9326 0-1.9652-0.16059-0.5625-2.873 1.5975-3.0891 1.2258-4.127-1.4785-4.127-0.94099 0-2.2825-0.68988-2.9824-1.5332-1.131-1.3628-1.5138-1.3066-3.4473 0.50976-3.6566 3.4352-5.6167-1.3981-3.166-7.8086 0.98155-2.5675 2.9398-8.043 4.3516-12.168s3.0742-8.6096 3.6953-9.9648c1.5641-3.4126 8.4697-7.962 12.145-8.002 2.8238-0.0308 3.0488-0.29679 3.0488-3.5996 0-2.9564 2.1782-4.6806 5.3379-5.0352z" fill="#926e5f"/>
 <path d="m606.86 24.168c-22.268 1.4134-47.727 7.8033-68.426 8.3789-14.791 2.6992-35.917 1.4926-57.959 4.875-21.149-8.3836-49.972 0.21415-60.068 3.0781-10.034 6.6823-25.511-15.618-32.34 8.4407-13.597-19.718-10.57-13.819-16.46 3.7408 0.7142-20.603-16.066 15.82-33.61 4.6525-20.158 6.3365-34.087-16.18-42 8.8438-18.515-4.2153-31.459 14.731-50.932 16.932-16.816-15.121-11.842 19.514-33.396 8.207-8.7742-6.2395 0.29601 20.318-11.172 18.045-0.67391 35.523-25.637-29.171-17.577 12.401 1.698 12.64-15.759 12.077-0.62376 14.671-13.925 22.636-43.934 0.471-38.378 24.721-5.0652 11.959-29.503 20.996-31.828 8.3103 17.95 29.824-35.235-28.226-11.037 7.7566 13.824 16.148 17.701 23.322 7.1566 20.506 7.4363 15.976-19.026 19.817-13.141 22.903-20.865-19.673-14.882-7.3816-4.5685 9.5505-1.6746 17.018-48.41-42.982-25.9-4.5138 17.762 18.128-6.817 29.143 4.8861 39.893-12.032-12.352-41.732-40.628-16.745-8.4578 5.7094 18.547 32.527 32.198 20.68 41.306-13.552 27.161-80.161-25.245-39.424 10.035 16.172 4.5112 62.171 20.772 18.687 14.986-15.243-1.2746-50.238-33.123-22.658-3.9401 21.709 17.394 92.67 23.6 84.176 21.806-28.138 13.126-71.024 4.349-92.682 3.1762 26.743 6.144 60.09 22.664 83.227 9.2429 32.738-3.9992 4.5423 4.1425-5.3591 11.074-2.0889 11.72-58.185 12.018-81.391 5.6509-21.415 4.4623 42.861 11.039 58.121 10.368 29.494-4.7964 8.3847-0.57014 2.4292 10.541 33.227-14.912-43.529 33.294-2.0501 11.558 20.681-6.229 51.103 4.9283 66.014-15.512 14.228-18.052 68.431-33.812 60.538 7.8841 5.5921 15.495 39.848 44.841 19.829 13.833-10.592-18.23-19.284-37.676 1.3473-58.651 13.183-26.159 33.079-43.67 50.596-65.204 25.575-16.994 57.232-50.002 84.93-47.232 1.9465 4.9579 27.033-11.087 5.2461 11.836-29.95 38.602-51.934 87.471-41.059 137.23 5.1781 43.415 38.467 76.245 68.629 104.5 43.005 31.834 99.394 17.099 148.46 14.673 65.704-4.7767 107.61-71.301 116.77-131.27 8.4524-42.507 1.1727-88.317-28.789-120.78-13.823-10.356-56.917-45.947-13.625-27.2 28.92 10.51 58.907 26.711 83.863 47.16 26.992 17.128 45.734 42.94 67.76 65.861 21.291 8.6662 7.3484 46.03 24.211 26.709 17.396-8.891 16.971 26.803 28.287 37.085 1.3395 22.211 27.925-22.418 42.782 4.6783 25.97 13.783 35.199 51.827 35.963 51.022 29.554-7.9872-19.24-58.618-36.252-72.135-21.106-25.28-52.528-40.387-69.795-68.621-22.46-15.853-15.585-20.376 6.6868-19.021-19.26-9.6875-9.1077-16.019-29.324-27.006 17.089-5.9657 69.722-22.798 20.739-12.649-23.864 6.528-58.201-12.173-15.686-15.514 36.439-21.333 48.919 6.6044 74.951 25.369 16.129 4.2787 26.7 31.785 37.789 11.564 22.424-14.351 35.985 6.8776 52.375 21.097 15.522 21.708 41.589 32.524 41.332 0.76332 3.8272-24.273-40.926-82.771-25.458-69.616-12.012-1.3222-23.854-0.57435-30.715-14.676 17.155-10.605-10.91-16.701-22.146-12.285-9.4929-10.529-15.029-27.597-22.966-31.504 2.8388-15.566-19.116-23.756-5.229-30.222 0.00701-53.298-293.35-139.34-145.65-92.566l-78.557-23.356c-14.595-1.7856-33.092 2.9339-43.488-4.9707zm-107.1 88.043c22.348 5.2968 70.117-2.9651 47.123 24.871 33.641-29.671-10.025 28.061-8.7067 9.6234-9.0995 1.6154-41.034 4.3582-52.399 0.93178 6.0461-10.4 4.0921-27.714 13.983-35.426zm-5.8008 130.49c7.873 18.752 2.8334 8.2856 17.092 2.6262 18.531 13.9 20.971 11.38 44.119 16.163 21.008 6.0914 38.542 50.922 3.1133 47.959-26.646-12.904-45.508 4.7-74.289-0.71093-22.675-4.5801-33.786-4.0743-44.593 18.096-20.481 3.732-27.135 17.792-49.541 8.1206 2.2572 7.2978 11.282 13.74 18.122 22.684 19.678-11.782 38.893 1.3175 5.9982 3.403-20.166 11.631-13.185 23.152 1.5138 42.954 11.286 16.264 39.236-0.46227 41.912 20.606 7.8334-19.546 15.431-8.5367 19.823 0.32927 23.893-9.8733 56.876 2.6301 71.443-25.574 3.7468-9.8373 32.928-36.105 21.699-13.361-1.659 12.454-13.669 26.632-22.738 38.556 14.654 14.838 10.845-18.173 32.418-7.9063-5.5666-16.335 17.541-31.186 28.431-27.613-25.918-24.09 33.334-34.644 25.111 1.585-9.2981 40.751-36.016 77.718-67.27 102.89-32.859 7.8143-65.949 13.442-101.33 12.43-34.217-1.3279-60.592-27.4-81-50.42-12.701-10.754-8.4333-24.042-30.081-30.34-0.76733-11.714 22.205-29.274-1.9671-17.859-1.7882-14.377-1.6663-29.656-3.6347-38.873 16.769-19.749 48.263-32.482 22.159-50.498 14.973-27.294 36.333-56.08 67.99-62.841 19.612-19.594 34.671 6.7902 46.42-12.349 2.61 1.9181 6.5733 2.1688 9.0782-0.0529zm-349.77 161.58c-21.482 1.1223 21.333 5.64-11.307 7.7891-21.273-5.86-75.692 36.111-27.611 9.7642 18.077-7.9635 70.284-5.1855 23.307 7.8061-22.154 8.1033-24.453 11.678-0.48366 4.9081 9.9698 12.844 30.218 0.85294 18.115 16.854 21.417 8.2878-18.554 22.447 11.712 23.941 15.293-0.76536 10.424-3.3539 7.4856 8.6563 10.914-6.2386 77.174-17.175 31.922-27.025-13.956-6.046 12.952-13.955-14.451-14.805-26.242-5.4482 21.797 1.6183-5.7852-8.1211 12.216-12.185-54.7-2.7445-16.998-12.59 24.891 2.4713-30.336-7.4752-3.2603-14.043l-4.9791-2.0508zm58.438 68.719c-15.621 4.7723-27.007 30.77-6.127 9.0176-9.716 13.409-37.469 30.906-7.7012 21.461-18.75 29.782-1.2745 6.6359 16.832-0.17188-12.752 9.0401-51.237 68.81-21.945 30.571 12.907-24.82 31.612-20.144 17.437 6.8707 6.1756 13.097 13.199-19.181 23.344-12.483 19.288-7.3185 9.8133 10.711 4.7734 19.369 17.519-19.668 34.615 4.3517 25.297 7.2558 38.574-30.863 6.9912 25.054-4.2559 39.025 7.3043-22.006 60.493-55.07 38.785-19.808-15.48 14.298-33.249 35.847-5.0097 11.35 4.8869-0.3695-22.567 71.174-4.39 29.386 0.93068-27.972 50.325-71.458 53.38-25.704 1.7881 17.3-5.3621 90.122 3.6754 36.497-3.4163-13.876 19.285-72.127 15.862-33.637-4.6152 10.712-8.7447 58.402 0.37305 21.889-6.8156-20.633 27.708-47.409 22.501-13.767-1.5766 14.109-8.0328 76.356 0.37239 34.183 3.3609-12.72 3.3871-48.26 11.847-31.128 16.432-53.828-4.3652 77.416 8.3774 31.238-1.5443-23.364 5.9649-61.351 33.668-38.781 0.94671 19.864 6.1961 75.076 6.255 22.956-4.7388-20.115 13.971-37.297 16.698-8.8614 4.3249-29.103 14.201 85.932 11.579 25.272-15.76-27.033 12.244-50.012 32.289-32.99-2.147 22.299 4.876 46.369 4.1037 10.021 7.3195-9.654 10.875 62.501 10.43 14.969-13.856-26.647 0.15751-39.89 14.908-31.055 15.117-24.921 29.39 24.224 33.637 23.055-6.2663-24.293-9.0737-32.561 10.803-32.025 8.9452-10.043 23.629 5.9012 25.225-0.42519 10.78 46.025-8.002-30.277 17.251-9.0412 11.877-2.1616 26.725-17.815 39.043-1.2446 9.4479 23.289-9.4593-25.318 15.582-17.279 17.634-5.2013 7.7652-21.317 33.683-26.282 8.1846 2.6644 28.316-4.9049 10.046-16.951-18.923-1.0765-38.848 23.334-59.844 14.49 19.611 30.581-44.282-6.8374-30.242 7.6226 8.8123 24.833-37.318 7.5507-45.76 18.041-14.012-2.1774-29.979 7.6175-39.522 3.4397-0.0585 14.006-35.027-16.549-22.646 8.3828-15.113 3.6278-30.319-27.636-18.334 0.0874-14.091-23.4-14.064 17.836-29.634-2.2951 10.024-20.146-25.951 19.635-15.915-8.4905-9.6232-6.3042-29.908 24.873-26.214-0.3009-11.566 2.4557-13.441-3.2119-21.794-0.38169 20.735-28.5-19.1 14.064-17.16-6.1945-7.2628 2.5738-23.426-1.3774-17.607-1.6531-6.1966-1.8196-28.172 2.2268-4.2629-10.601-10.213-9.0232-36.867 3.9705-46.937-0.77353 26.18-14.949-18.644-2.5837-8.9702-15.876-29.429 2.3054-3.4086-19.393-37.795-14.487-11.939-2.5352-25 3.0931-10.346-6.8814-15.858 5.7267-37.284 0.0185-8.2812-2.6992 31.409-6.8042-30.726-1.8999-17.658-9.7422-6.9466-10.106-19.962-13.172-30.582-10.258l3.086-3.2835z" fill="#6a5851"/>
 <path d="m397.58 46.939c0.12748 12.072-6.4401 46.289-13.681 17.872-12.017-29.413 0.21212 7.058-9.1295 12.157-8.5169-33.337-8.5518 20.518-27.062 2.1006-6.3708 11.349-21.769-20.645-14.381 5.5699-17.494 21.283-30.704-49.984-24.323-5.475 4.8502 15.799-2.5442 27.781-5.581 5.8669-3.3054-16.593-3.3457 30.73-15.639 16.633-6.6534 20.803-23.786-25.071-17.494 5.7589-0.99041 26.576-30.018-22.157-20.42 7.7658-3.317 35.743-47.928-34.883-27.963-2.2728 13.298 15.194 4.3283 23.961-10.906 26.084-15.114 15.08-20.377-9.0471-24.635-12.937 7.2426 19.877 5.4916 35.919-13.792 43.256-3.2144 25.811-28.132-23.112-14.568 8.7725 0.54673 10.831-6.3002 35.696-24.14 17.13-1.2737 13.065-30.406-21.295-10.444 0.89052 8.912 11.157 7.3976 21.076 4.1432 27.645 0.47627 12.803-14.34 23.907-28.481 4.689-11.202-6.0253 37.106 37.774 7.6878 24.063-18.747-8.9703-36.945-30.27-49.515-40.04 13.697 22.53 37.968 37.399 54.158 56.484 13.095 30.802-46.566-14.749-17.03 10.19 5.0631 9.5309-41.189-17.311-11.732 2.2487 16.215 3.7933 34.05 13.013 8.2275 19.274-10.722 1.7529-39.326 10.547-10.986 7.717 19.836-1.459 27.716 12.648 3.1111 8.0126-15.771 2.0073-42.255-13.665-49.929-12.182 20.023 17.21 73.729 14.573 80.578 20.956-45.587 0.7729 51.263 7.0044 5.313-2.6169 5.9575-3.5924 33.697-10.216 8.5834-7.4753-17.719 6.0545-22.789-0.78437-11.752-10.22-25.634-6.7258 44.12-15.005 5.5006-19.311 4.0061-17.558 36.992 0.0466 43.378 3.7237-7.662 8.5446-38-3.8526-20.196 6.4768-28.084 19.553 36.466-14.314 26.285 2.2856-31.261 15.809 20.454-2.5044 15.62-3.7358-13.94 12.799-47.108 15.024-24.882 22.695 5.2553-6.8293 26.386-4.1048 4.9157 4.619-23.276 12.697-18.294 3.4173-12.65-1.4404-17.024 1.2886-14.296 11.793-23.128 15.468 14.015 3.5073 54.804-24.538 29.36 2.5356-18.064 14.245-35.379 31.021-60.297 35.693 16.867 2.8205 48.914-11.66 52.545-18.514-25.822 4.3292 27.433-15.672 7.582 5.5059-14.084 15.859 30.154-6.6595 40.369 6.6356 18.719-18.593 26.868-48.486 47.351-67.482 20.207-22.719 45.221-39.365 70.615-55.302 20.093-9.0374 56.138-26.061 70.555-15.113-28.047 30.211-56.685 64.677-60.335 107.76-8.5584 48.596 10.695 99.869 47.638 132.23 19.15 18.993 43.028 39.762 71.621 39.08-21.421-11.159-55.392-18.893-65.761-47.736-11.794-9.5543-34.24-24.568-32.575-46.633-17.08-12.242 8.9998-32.856-9.7509-41.77 10.861-14.077 33.178-21.224 20.297-38.187 27.192 1.7285-6.4471-13.722 14.119-25.54 14.582-24.897 35.77-49.173 64.738-56.407 26.538-11.855 52.092-12.211 78.789-4.9268 23.599 7.892 54.056 14.513 63.176 35.077-3.6344 15.477 14.509 8.9935 20.993 8.0826-13.288 20.613 27.907 2.1274 12.853 20.538 20.946-1.3133 32.655 20.714 29.866 34.527 20.559 16.278 11.313-36.51 5.6943-47.784-13.798-36.979-45.182-64.59-79.087-83.293 12.206-10.745 40.169 4.6877 56.436 9.3828 26.102 9.871 51.974 21.198 75.564 37.014 15.587 13.234 34.329 23.227 46.518 39.736 6.8593 6.1189 37.69 41.044 29.164 27.727-11.719-20.117-27.267-27.202-41.199-48.939-25.912-18.684 24.222-7.0914 33.676-12.918 26.905-3.8907-27.978-5.7688-36.02-12.769-11.115-7.7206 13.417-9.2055-10.347-12.407-29.481-8.2305 51.961-8.9614 14.719-9.0115-17.384 2.1836-47.692-3.1486-19.518-12.934 6.661-8.8001 62.516-17.691 26.573-18.38-16.841 4.3049-66.177 19.24-66.663 6.687 14.487 0.85427 38.91 0.11855 9.7445-3.8058-23.505 0.67474-23.646-9.398-1.1371-12.013 18.897-8.9064-17.777-1.5211-26.01-3.5039-18.864 8.3624-5.8945-14.245-24.778-3.0991-14.633-8.8572 38.828-25.872 5.7214-14.743-35.811 17.319 9.2787-15.855 20.271-21.767 8.7494-19.366 46.458-15.665 27.196 4.1262 23.335-24.677 36.266 16.611 58.658 17.5 14.874 7.4288 18.881 18.875 2.8301 27.232 13.286-13.491 19.643-5.2406 30.961-3.694 0.86034-9.2058 31.603-25.234 5.8705-15.661-6.9339-7.449 3.073-17.286-11.928-6.7427-11.096-12.5-13.77-16.386-25.275-30.684-8.4302 3.5539-22.694-15.434-29.027-21.451-10.474-0.56899-25.319-18.358-7.3576-36.839-13.761-0.96663-14.283 24.413-32.931 12.339-12.039-4.9428 8.4445-42.794-9.0155-15.206-11.338 4.1433-14.218-10.775-27.124-4.6041-4.2161-14.159-9.3102-6.998-9.77-1.8655-13.401 2.0827 2.7486-16.395-11.628-10.265-12.959 8.5364-20.056 4.6689-35 2.1638-0.71076 19.239-8.2119-33.551-13.472-3.8293-11.885-2.8286-27.259-8.8798-36.656 5.0099-4.6944-16.416-34.898-4.2426-44.532-3.6535-6.512 0.37927-6.7515-6.2867-10.997 1.2233-9.4027-5.4556-18.736 17.733-34.277 2.4599 0.41548-15.884-12.183 26.405-20.876 0.05662-2.2535-31.143-6.1058 32.427-18.292 5.01-2.7943-28.056-2.8085-0.56399-6.7414 6.1827-4.5411-9.5921-2.7243-21.268-6.75-30.743zm65.615 55.467c12.039 10.777 19.926-4.1667 34.268 5.627 22.16 0.48391 47.915-5.9485 69.499 0.86506-8.9464 14.239-3.3406 6.5651 1.6517 11.113-5.4851 16.135 15.732-30.937 22.523-5.2864-3.8022 13.509-45.849 48.882-26.328 16.418-12.043 17.878-29.18 23.924-45.091 20.601-14.339 4.1005-19.462 0.98305-28.186 4.2617-9.5361-6.4361-21.492-15.922-24.629-0.71261-13.591-7.8226-37.209-43.123-26.361-46.253 8.0102 8.9582 26.081 42.059 14.681 12.512-10.962-7.3182-12.218-28.423-1.5908-7.8891 4.0388-2.8383 2.0546-12.338 9.5638-11.257zm-40.205 2.5352c12.843 9.1889 35.755 64.142 3.7324 48.67-9.4216-4.4987-23.742-30.771-12.052-5.9582 7.2098 15.29 20.02 33.561-1.0587 10.092-11.007-12.807-13.855-38.368-4.0284-47.685 17.071 34.035 0.96703 13.809 13.407-5.1186zm-31.867 9.2832c15.848 12.168 8.3751 48.474 4.509 58.129-19.221-5.4689-39.369-49.824-20.81-53.853 11.461 13.522 3.6201-4.9779 16.301-4.2754zm239.62 0.41211c11.536 2.2945 18.134 3.2288 10.994 15.227 22.975-22.308-8.886 25.259 9.1641 3.0834 11.647-16.138 24.979-3.6445 6.187 5.1407-4.8188 10.581-33.91 27.832-17.04 5.912-5.2328 9.154-50.345 37.153-27.102 13.604 27.765-28.56-10.423 11.248-20.929 0.14199 9.9947-15.144 18.134-45.348 38.725-43.109zm-327.85 19.963c14.106 11.476 15.53 42.095 20.947 54.469-18.913-1.6579-50.148-41.086-35.023-44.481-2.1749-7.5166 9.0825-9.3962 14.076-9.9883zm-32.283 13.914c16.187 5.9795 37.17 40.343 24.885 38.873 3.0412 2.6667-1.8122 9.087-12.274 3.5727 16.449 13.012-20.292-5.2393-1.7736 9.5789-13.366 5.2393 35.41 5.8555 5.7539 12.094-20.913-8.7864-56.597-11.04-61.96-38.222 6.9953 3.0717 15.416-10.39 20.339-5.9202 1.1804-26.514 48.504 37.397 20.52 1.616-1.9539-7.4214-10.106-22.02 4.5093-21.593zm-67.158 41.852c8.6165 11.888 50.757 43.405 11.617 36.516-18.537-12.202-8.2914 6.7933-29.781-1.3268-21.918-0.99092-8.4555-20.271 7.046-11.158-9.6142-10.218 1.8752-19.888 11.117-24.031zm332.35 112.54c-17.992 17.284-45.442 3.6453-68.513 9.3036-16.069-15.85-22.18 26.729-43.107 24.098-13.324 17.935 31.307 11.9 5.6182 23.309-18.786 6.9981 30.608 0.87724 7.8502 17.741-1.1594 9.099 18.791 0.58253 7.0442 15.194 25.394-1.7988 26.166 36.936 46.322 23.437 25.906 6.8066 51.169-10.738 62.981-31.114 11.851-12.966 12.302-32.921 23.337-38.883-1.1792-11.914-6.8512-33.459-18.702-31.49-7.7169 2.724-14.613-9.2032-22.83-11.596z" fill="#221c1c"/>
</svg>
