<?xml version="1.0" encoding="UTF-8"?>
<!-- Created with Inkscape (http://www.inkscape.org/) -->
<svg width="500" height="500" version="1.1" viewBox="16 -64 500 500" xmlns="http://www.w3.org/2000/svg">
 <g transform="translate(-126.27 -69.672)">
  <rect x="285.2" y="184.88" width="225.67" height="163.55" fill="#fff" stroke-dashoffset="10.834" stroke-linecap="round" stroke-linejoin="round" stroke-miterlimit="25.8" stroke-width=".1" style="paint-order:fill markers stroke"/>
  <path d="m663.59 69.672c0.33075 0.15904 0.6429 0.31923 0.9707 0.47852v-0.47852zm-283.83 1.9609c-39.832-0.11512-83.024 6.4373-114.17 18.072-46.831 17.494-99.745 58.894-120.34 94.154-12.531 21.456-21.579 56.779-14.533 56.738 1.2441-7e-3 1.6431-0.56032 11.887-16.494 17.48-27.19 42.657-55.852 55.094-62.723 2.5488-1.408 4.205-3.0425 4.209-4.1504 7e-3 -1.937 5.1304-6.6131 7.2539-6.6211 0.6925-3e-3 2.7175-1.4054 4.5-3.1172 13.375-12.845 38.746-23.614 73.24-31.088 6-1.3 6-1.2997 0.25-1.5996-6.8-0.35467-7.4208-1.6906-1.5-3.2266 2.3375-0.60639 5.825-1.5272 7.75-2.0469 12.332-3.3293 55.509-3.5866 59.084-0.35156 4.2038 3.8044 2.5634 5.7582-4.334 5.1582-5.9558-0.51814-6.1405-0.46857-3.9023 1.0488 1.2918 0.87578 4.4102 1.6791 6.9277 1.7852 5.4356 0.22903 8.2694 2.8165 5.7949 5.291-1.2664 1.2664-1.7692 1.24-3.9746-0.20508-3.3267-2.1798-3.5039-2.1222-3.2832 1.0645 0.31466 4.5439-10.08 5.5934-15.189 1.5332-5.2631-4.1824-6.2152-4.6534-5.4668-2.7031 0.35378 0.92195 0.0437 2.0189-0.70312 2.4805-1.0576 0.65363-1.0963 1.3601-0.18359 3.3633 1.554 3.4108 0.37087 4.0195-7.8145 4.0195-5.8583 1e-5 -6.5628 0.21084-6.5117 1.9434 0.0426 1.4458-1.0948 2.3039-4.4434 3.3555-2.475 0.77722-9.675 3.2578-16 5.5137-10.279 3.6661-12.403 4.089-20 3.9727-8.5-0.1302-8.501-0.13039-6.1094 1.8613 2.886 2.4034 3.5327 1.7576-7.3457 7.3438-6.1005 3.1327-10.188 4.5977-12.828 4.5977-3.7484 0-3.8552 0.0945-3.2441 2.877 0.57103 2.5999 0.12258 3.2458-4.6699 6.7188-2.9163 2.1133-8.363 6.5562-12.104 9.873-4.8175 4.2719-7.4666 5.9424-9.084 5.7305-1.9894-0.26069-2.2303 0.067-1.8672 2.541 0.62314 4.2457-11.8 20.26-15.717 20.26-2.3162 0-2.4377 0.37268-0.99609 3.0664 2.4453 4.5691-1.7384 7.1725-7.084 4.4082-3.5875-1.8552-3.67-1.1595-0.47657 4.0254 3.1719 5.1498 3.136 5.8742-0.57812 11.662-3.8947 6.0694-5.2531 5.9486-17.396-1.5625-1.65-1.0206 0.82501 1.7818 5.5 6.2285 9.6905 9.2173 8.7271 10.757-3.5 5.5898-3.3-1.3945-6.675-2.7708-7.5-3.0566-2.7831-0.9643 7.1606 7.5668 12.234 10.496 11.942 6.8948-10.849 11.787-24.705 5.3027-3.7556-1.7575-7.095-2.9265-7.4219-2.5996-0.90123 0.90123 5.7858 6.0313 11.143 8.5488 4.9648 2.3333 6.3644 4.2673 2.5 3.4551-4.7875-1.0062-12.869-2.5644-13.299-2.5644-0.24793 0-0.45118 0.36767-0.45118 0.8164 0 1.109 7.3788 5.1836 9.3867 5.1836 0.88761 0 1.6133 0.51515 1.6133 1.1445 0 1.7949-13.631 0.37919-19.787-2.0547-6.299-2.4905-6.8408-2.5514-5.2129-0.58984 1.8623 2.2439-1.4671 1.6766-8.1309-1.0469v2.6992c2.4185 1.6269 5.1091 3.4421 6.1309 4.3613 1.375 1.237 3.85 2.9598 5.5 3.8281 3 1.5788 3 1.5791-0.75 1.6191-10.195 0.10885-1.6831 3.4987 13.031 5.1895 10.262 1.1792 10.558 1.2775 6.9199 2.3242-8.3626 2.4062 5.3616 3.5795 17.799 1.5215 17.455-2.8882 30.728-2.4608 35.119 1.1328 7.6745 6.2806 28.326 25.26 27.924 25.662-0.21985 0.21985-3.8368 0.58802-8.0371 0.81836-6.4573 0.35411-14.506 2.3807-14.506 3.6523 0 4.4 8.5956 15.823 11.186 14.865 3.283-1.2145 15.666 2.0732 25.396 6.7422 4.7358 2.2724 9.4294 4.1309 10.432 4.1309 3.7724 0 5.7536 1.3423 2.9863 2.0234-1.5229 0.37482-2.4459 1.273-2.3613 2.2969 0.10862 1.3144-0.76328 1.6982-4 1.7617-6.2732 0.1231-0.56559 2.3905 10.033 3.9863 6.169 0.92883 8.2808 1.6451 8.6152 2.9238 0.44485 1.7011 6.7548 2.8486 17.109 3.1113 4.5992 0.1167-0.0297 1.8986-8.7774 3.3789-6.0884 1.0303-3.0527 2.4915 7.8184 3.7637 9.7297 1.1386 9.7302 1.1394 4.1465 3.9629-6.2706 3.1708-7.4664 5.4189-2.334 4.3887 17.05-3.4224 27.388-2.5701 18 1.4844-6.168 2.6636-5.2694 3.2923 3.7129 2.5996 4.745-0.36591 8.2029-0.22204 8.5586 0.35351 0.32829 0.53118 1.4739 0.96485 2.5469 0.96485 1.0729 0 2.7222 0.9 3.6641 2 1.1284 1.3179 2.9488 2 5.3398 2 4.9657 0 9.73 1.8046 10.408 3.9414 0.30957 0.97538 1.5656 2.228 2.791 2.7852 3.2301 1.4686-6.516 4.4613-15.559 4.7773-3.733 0.13046-7.003 0.45218-7.2656 0.71485-0.6837 0.68369 17.238 1.7694 29.303 1.7754 8.4422 4e-3 10.25 0.27042 10.25 1.5059 0 1.884 0.37633 1.8738 4.2266-0.11719 2.9044-1.502 3.2175-1.4951 4.375 0.0879 1.1061 1.5127 3.117 1.6665 17.844 1.3672 13.463-0.27362 16.274-0.10184 14.885 0.91211-3.498 2.5537 19.625 0.81033 36.086-2.7207 4.7136-1.0111 6.2154-0.54589 6.918 2.1406 0.74873 2.8631 2.9673 1.1857 2.3945-1.8106-0.58587-3.0648-1.4926-2.692 14.271-5.873 8.5973-1.7348 16.042-3.9207 20.5-6.0176 3.85-1.8109 9.609-4.2324 12.797-5.3828 3.1879-1.1504 7.6178-3.0216 9.8457-4.1582 2.2279-1.1366 4.7387-1.8033 5.5801-1.4805 1.8807 0.72169 4.2681-1.1215 4.3008-3.3203 0.0148-0.99555 2.3447-2.7243 6-4.4531 3.2867-1.5545 5.9766-3.242 5.9766-3.75s1.125-0.92382 2.5-0.92382c2 0 2.5-0.50001 2.5-2.5 0-3.0786 3.3148-3.3371 11.67-0.90821 6.462 1.8786 6.7828 1.7044 5.4844-2.998-0.99229-3.5938-0.99304-3.5938 8.1406-3.5938 7.8907 0 8.9349-0.19221 7.6699-1.4121-3.0053-2.8981-9.8005-3.7918-32.766-4.3125-23.3-0.52831-23.299-0.52916-15.883-8.1524 8.3738-8.6072 21.482-28.092 25.928-38.539 5.9202-13.912 12.61-33.266 14.201-41.084 2.5501-12.531 2.058-11.802 7.4023-11.002 2.5582 0.38297 12.62 3.3533 22.359 6.5996 25.459 8.4865 24.724 8.5799 51.984-6.5684 18.042-10.026 19.422-27.764 4.2031-54.029-2.5495-4.4-6.0688-10.475-7.8203-13.5-38.313-66.168-89.111-90.891-223.07-108.57-11.961-1.5788-24.865-2.3581-38.143-2.3965zm44.375 129.11c1.022 0.0959 1.4025 0.70906 1.7812 1.9023 0.44205 1.3928 1.2128 1.8635 2.4258 1.4785 0.98463-0.31251 2.3413 0.11588 3.041 0.95898 0.69499 0.83742 2.3349 1.5215 3.6426 1.5215 1.3076 0 2.377 0.45 2.377 1s0.81079 1 1.8008 1c0.98999 0 2.3336 0.53479 2.9863 1.1875 0.91567 0.91567 1.7537 0.65367 3.6699-1.1465 2.4834-2.3331 2.4826-2.3338 1.873 2.8125-0.71416 6.0299-0.32193 6.1899 6.582 2.6914 5.0452-2.5566 6.0879-2.4508 6.0879 0.62109 0 2.0705 1.2359 2.3136 4.0664 0.79883 2.0076-1.0745 2.8533 0.34879 0.91797 1.5449-1.5483 0.95691-0.13983 2.487 2.3242 2.5234 2.1291 0.0315 10.715 21.837 10.697 27.168-3e-3 0.93517 0.78165 2.1581 1.7441 2.7188 0.9625 0.5606 1.2361 1.0321 0.60743 1.0488-1.5108 0.0402-2.45 2.6247-1.6816 4.627 0.43264 1.1275 1.4056 1.4388 3.3164 1.0566 2.4121-0.48242 2.8276-0.14728 3.8223 3.0938 1.4553 4.7419 0.10307 6.4806-4.7109 6.0625-2.6883-0.23349-3.6351 0.1006-3.8887 1.373-0.25107 1.2597 0.49559 1.762 2.9746 2 3.3614 0.32277 4.4956 4.1587 1.7344 5.8652-0.6889 0.42577-0.63232 1.4987 0.17188 3.2637 0.93757 2.0577 0.92972 2.9526-0.0352 4.1152-0.67822 0.81719-0.90001 2.0257-0.49219 2.6855 0.56057 0.90702-0.63659 1.0377-4.9121 0.53516-6.8381-0.80369-7.6779 0.94129-2.1094 4.3828 4.0987 2.5331 4.0406 4.4342-0.13867 4.5527-7.1104 0.20171-7.1593 0.24263-3.6582 3.002 4.3106 3.3973 4.0992 4.3212-0.75 3.2773-2.2-0.47359-5.8-1.2491-8-1.7226-4.7133-1.0146-4.6648-1.1423-1.5801 4.1836 3.4847 6.0165 3.8312 11.262 0.7207 10.922-3.1568-0.34537-9.7671-5.1828-11.131-8.1465-1.106-2.4034-1.1066-2.4033-2.6777-0.16015-1.3455 1.9209-1.3798 2.6243-0.23438 4.9023 0.73563 1.4631 1.5022 2.9977 1.7031 3.4102s-0.82726 0.75-2.2852 0.75c-2.2845 0-2.557 0.31088-1.9688 2.25 0.93224 3.073 0.95169 2.7439-0.4082 7.5-1.473 5.1514-2.0658 5.2148-7.0078 0.75-4.4249-3.9976-5.5056-4.3426-4.6992-1.5 0.31206 1.1 0.8441 2.9662 1.1816 4.1465 0.57757 2.0196 0.36724 2.1068-3.5859 1.4746-3.636-0.58141-4.2694-0.41113-4.7109 1.2773-0.36105 1.3807-1.2851 1.9012-3.1621 1.7774-2.0715-0.13668-2.7246 0.32933-2.9805 2.1289-0.19253 1.3538-1.3541 2.694-2.8164 3.25-3.2788 1.2466-3.667 1.208-5.4121-0.53711-1.1297-1.1297-2.3134-1.2711-4.9648-0.59375-7.0547 1.8022-15.276 0.86591-16.652-1.8945-0.6772-1.3585-2.0316-2.7494-3.0078-3.0918s-2.0091-1.6208-2.2969-2.8398c-0.77476-3.2819-2.3524-3.0296-3.0723 0.49024-0.9206 4.5012-1.8651 5.7289-3.4141 4.4434-0.70632-0.58619-2.0154-0.78474-2.9102-0.44141-1.1851 0.45478-1.627 0.0526-1.627-1.4824 0-1.4403-0.63281-2.1074-2-2.1074-1.5555 0-2-0.66668-2-3 0-3.517-1.9208-3.9588-3.8418-0.88282-1.9484 3.1206-3.3991 0.98033-1.9453-2.8711 1.5428-4.0873 0.40415-5.1737-2.5313-2.416-3.7318 3.5058-4.6977 0.58517-2.0703-6.2617 0.77062-2.0082-6.4003-2.8291-8.9726-1.0274-3.3632 2.3557-5.6387 1.8623-5.6387-1.2207 0-2.2486-1.7397-8.8025-2.7168-10.236-0.15632-0.22938-2.0571 1.0081-4.2246 2.75-5.1186 4.1134-5.4467 4.0195-4.7129-1.334 0.33924-2.475 0.27768-4.5-0.13672-4.5-0.41441 0-1.5965-1.5651-2.627-3.4785-1.0305-1.9134-2.7089-3.7448-3.7285-4.0684-2.6004-0.82534-2.3187-1.7477 1.1602-3.8027 1.6574-0.97908 3.6197-3.2128 4.3613-4.9648 0.74164-1.752 2.3104-4.0421 3.4863-5.0898 3.4338-3.0596 2.627-3.9326-3.0215-3.2637-3.8491 0.45586-5.4372 0.24987-6.25-0.8125-0.89453-1.1692-1.8456-1.218-5.3086-0.27344-6.9748 1.9024-7.1296-2.7526-0.20898-6.2832 3.6471-1.8606 5.2141-3.9629 2.9531-3.9629-1.6199 0 0.0682-6.2645 2.6094-9.6836 1.3012-1.7508 2.3652-3.9105 2.3652-4.8008s1.3055-2.0749 2.9004-2.6309c1.5949-0.55599 3.098-1.7728 3.3418-2.7051 0.86401-3.304 7.2074-5.7402 11.773-4.5215 5.1258 1.3682 5.024 1.142-3.9023-8.6816-8.8469-9.7361-8.5794-11.205 2.084-11.434 10.444-0.22355 19.297 5.3844 19.057 12.07-0.37522 10.431-0.5302 10.88-3.7539 10.969-6.1323 0.16863-7.5 0.44479-7.5 1.5117 0 0.60149 0.79815 1.3016 1.7734 1.5566 2.6253 0.68654 4.5109 7.3784 2.6562 9.4277-1.8459 2.0397-1.8188 4.354 0.0703 5.9219 2.2246 1.8463 1.8231 4.7329-1 7.1875-3.1718 2.7579-3.1633 3.8125 0.0312 3.8125 1.5249 0 2.7606 0.69582 3.1074 1.75 1.4985 4.5554 3.4903 8.0848 4.8574 8.6094 0.89447 0.34323 1.5039 1.8417 1.5039 3.6953 0 2.5464 0.55016 3.3272 3 4.252 1.7333 0.65423 3 1.8588 3 2.8535 0 2.3514 1.7813 3.2668 3.5312 1.8144 0.8071-0.66982 2.2195-0.87654 3.2051-0.46874 0.9695 0.40112 3.7535 0.92169 6.1856 1.1562 2.4569 0.23696 4.9351 1.1284 5.5781 2.0078 0.92415 1.2639 1.5826 1.3567 3.2637 0.45703 1.1578-0.61964 3.3834-1.127 4.9473-1.127 1.5638 0 5.4467-1.35 8.627-3 3.1802-1.65 6.6555-3 7.7226-3 1.2192 0 1.9394-0.68631 1.9394-1.8457 0-2.1164 2.2441-4.2316 6.3516-5.9863 2.3615-1.0088 2.7448-1.6442 2.2305-3.6934-0.57221-2.2799-0.34504-2.4746 2.877-2.4746 3.407 0 3.4668-0.0674 2.3086-2.6094-1.2461-2.7348-1.0741-3.0039 3.7852-5.9297 1.507-0.90734 1.5527-1.3169 0.36133-3.2246-1.2055-1.9303-1.133-2.3643 0.61133-3.709 1.9386-1.4945 1.9211-1.5696-0.8711-4.0586-2.1025-1.8742-2.5692-2.8671-1.791-3.8047 1.2414-1.4959 0.44326-5.483-1.5645-7.8106-1.2512-1.4504-1.0566-2.0588 1.6406-5.1309 4.7187-5.3743-1.0905-14.003-14.877-22.098-9.3084-5.4653-8.8428-12.325 1.0371-15.279 2.947-0.88122 4.6108-1.3029 5.6328-1.207z" fill="#6e8e9a"/>
  <path d="m377.55 77.59c-86.179-1.5348-171.38 32.093-205.26 84.014-1.9744 3.025-7.4108 11.35-12.08 18.5-17.186 26.317-21.817 38.541-7.1641 18.91 9.6404-12.915 17.172-21.606 23.355-26.947 2.475-2.138 7.65-6.8739 11.5-10.525 3.85-3.6515 8.3822-7.3522 10.072-8.2227 1.69-0.87051 3.6583-2.2872 4.373-3.1484 0.71479-0.86126 2.1644-1.5664 3.2207-1.5664 1.0562 0 4.2631-1.7517 7.127-3.8926 20.824-15.567 53.739-30.972 76.891-35.988 23.636-5.121 88.407-5.338 100.88-0.33789 1.4108 0.56554 5.2358 1.3354 8.5 1.709 3.2642 0.37361 8.1856 1.7152 10.936 2.9824 2.75 1.2673 9.725 3.9906 15.5 6.0508 16.531 5.8974 15.98 5.6224 13 6.457-4.1018 1.1487-27.093-0.0187-32.229-1.6367-2.6001-0.81925-5.1584-1.2223-5.6856-0.89649-0.52713 0.32579-2.871 0.16203-5.209-0.36328-3.4366-0.77214-4.4636-0.66398-5.3633 0.56641-1.3648 1.8664-21.799 3.8039-24.557 2.3281-1.1874-0.63549-2.7275-0.44147-4.8418 0.61328-1.7055 0.85082-4.0035 1.2605-5.1074 0.91016-1.4006-0.44454-2.0078-0.18343-2.0078 0.86328 0 0.825-0.7875 1.729-1.75 2.0098-4.313 1.258-10.96 1.6844-13.207 0.8457-1.9698-0.73534-2.9488-0.46124-4.9375 1.3828-1.685 1.5624-4.2643 2.5064-8.043 2.9434-3.0594 0.35379-7.3625 1.4746-9.5625 2.4902-2.2 1.0156-5.35 2.1668-7 2.5586-1.65 0.3918-8.083 2.6681-14.295 5.0586-6.2119 2.3905-12.601 4.3457-14.199 4.3457-1.5982 0-3.2672 0.61779-3.707 1.373-0.43983 0.75526-3.0993 2.5321-5.9102 3.9473-2.8109 1.4152-7.7609 4.1699-11 6.123-3.2391 1.9531-6.6902 3.5537-7.6699 3.5547-0.97975 1e-3 -2.0239 0.63381-2.3203 1.4062s-3.1284 3.2216-6.293 5.4414c-3.1645 2.2198-8.9117 7.2129-12.771 11.096-3.8598 3.8828-7.7637 7.0586-8.6758 7.0586-2.2619 0-2.087 2.3019 0.34179 4.5 3.8919 3.5221-1.5374 10.518-12.281 15.826-6.4834 3.2033-6.4929 3.2212-3.5723 6.3301 3.353 3.5692 0.9752 5.7497-5.3535 4.9102-5.9453-0.78868-6.2762 0.60365-1.293 5.4336 6.7715 6.5632-2.3951 15.653-12.074 11.973-6.516-2.4774-3.3951 1.155 4.3242 5.0332 2.3375 1.1744 4.25 2.553 4.25 3.0644 0 1.3868-7.7662 1.1011-13.811-0.50781-7.2695-1.935-5.4065 0.26951 3.3848 4.0059 3.5664 1.5157 6.3308 3.2185 6.1426 3.7832-1.6491 4.9474-14.729 7.719-26.068 5.5234-9.0352-1.7494-9.1587-1.674-2.6484 1.625 6.1181 3.1003 6.3444 4.4793 0.75 4.5684-3.7916 0.0604-4.0073 0.18425-2 1.1523 4.5818 2.2097-0.70333 4.7624-9.8828 4.7734-5.4174 7e-3 -7.0122 2.5832-4.0606 6.5644 1.7894 2.4135 3.6482 2.9309 14.371 3.9961 5.1188 0.50848 6.5519 0.98803 6.1426 2.0547-0.81791 2.1314 2.8582 1.746 15.18-1.5879 18.019-4.8756 19.612-4.353 37.008 12.113 6.6045 6.2514 14.023 13.074 16.484 15.162 5.6054 4.7543 4.5928 5.6662-6.3086 5.6875-7.5989 0.0149-11.684 1.0818-11.684 3.0508 0 0.53065 2.1674 0.96485 4.8164 0.96485 13.779 0 20.541 2.8561 32.406 13.684 9.2833 8.4714 13.965 10.656 29.639 13.84 10.987 2.2319 11.434 3.9729 1.1387 4.4356-4.7046 0.21142 5.3589 5.041 10.504 5.041 12.131 0 14.526 4.2138 3.498 6.1562-9.7175 1.7117-5.0559 2.9985 7.4961 2.0684 13.597-1.0075 13.72 1.1183 0.25195 4.3359-1.5125 0.36134-2.75 1.1051-2.75 1.6543 0 0.56245 0.76433 0.68068 1.75 0.26953 2.5201-1.0512 13.371-3.4079 15.883-3.4492 1.3421-0.0221 2.337 0.74087 2.6816 2.0586 0.45858 1.7536 1.0429 1.9876 3.5918 1.4277 3.9744-0.87292 5.8034 0.22401 3.4043 2.043-1.6077 1.219-1.2204 1.3761 3.4746 1.4043 4.9714 0.0299 5.2217 0.14999 4.2148 2.0312-1.2043 2.2503-0.42753 2.4935 3.3672 1.0508 1.6854-0.64079 2.6151-0.60211 2.8555 0.11914 0.19602 0.58804 2.1088 1.2258 4.25 1.418 2.1412 0.19214 4.5599 1.0169 5.375 1.832 1.3094 1.3094 1.8116 1.2465 4.3164-0.53711 2.835-2.0187 2.8359-2.0191 2.8359 1.752 0 3.771 1e-5 3.7711 4-0.13476 4-3.9059 4-3.9056 4-0.59571 0 2.5313 0.35287 3.1746 1.5 2.7344 2.0237-0.77657 1.8849 1.2176-0.33789 4.8613-1.3126 2.1516-3.2202 3.4084-6.7461 4.4434-4.9161 1.443-4.916 1.4431 0.084 2 7.153 0.79675 47.909 0.46399 61.5-0.50196 6.325-0.44954 12.625-0.86046 14-0.91406 1.375-0.0536 3.4689-0.63646 4.6524-1.2949 1.1835-0.65845 7.702-2.3703 14.486-3.8027 6.7843-1.4324 17.29-4.1835 23.348-6.1152 6.0572-1.9317 11.576-3.6797 12.264-3.8828 0.6875-0.20314 1.25-0.87268 1.25-1.4883 0-1.6551-7.8692-0.26106-18 3.1875-7.8987 2.6888-33.339 6.8953-35.104 5.8047-2.3556-1.4558 0.98553-4.1204 4.2637-3.4004 3.6732 0.80677 3.5792 0.14716-0.67773-4.8262-5.8801-6.8696 5.7066-10.157 14.736-4.1816 4.5293 2.9973 5.2478 2.83 3.834-0.88867-0.55177-1.4513-0.67622-2.6906-0.27734-2.7539 2.0251-0.32154 4.7018 0.46361 7.7891 2.2852 3.0468 1.7976 3.4925 1.845 4.0371 0.42578 0.33676-0.87761 1.6897-1.5957 3.0059-1.5957 2.9169 0 3.0719-1.0943 0.39257-2.7676-4.7014-2.9361 3.8913-4.7455 10.537-2.2188 10.141 3.8554 18.571 3.7522 11.963-0.14649-3.5251-2.0798-4.8993-4.6171-1.8711-3.4551 0.89581 0.34376 3.6295 1.1281 6.0762 1.7442 3.0487 0.76767 4.7136 1.8137 5.2871 3.3223 0.69161 1.8191 1.4132 2.116 4.1602 1.7129 2.977-0.43693 3.1258-0.60331 1.4238-1.5898-6.4321-3.7282-6.6112-8.4265-0.26758-7.0332 2.4853 0.54585 2.8872 0.38481 2.373-0.95508-0.49139-1.2806 0.0545-1.6133 2.6504-1.6133 1.7977 0 3.7151-0.44757 4.2617-0.99414 0.65168-0.65173 4.4119-0.6706 10.922-0.0547 10.914 1.0325 12.099 0.77614 8.5977-1.8652-3.1741-2.3942-1.3692-3.0534 8.7188-3.1855 7.176-0.094 7.4112-0.16541 3.668-1.0898-2.386-0.58922-15.197-0.80562-31.75-0.53711-15.262 0.24757-27.75 0.3033-27.75 0.12305 0-0.18026 3.0651-3.3801 6.8106-7.1113 5.8036-5.7816 17.814-21.826 23.277-31.092 6.3445-10.761 13.117-24.002 15.244-29.807 1.3879-3.7874 3.685-9.6987 5.1035-13.135 1.4186-3.436 3.3908-9.961 4.3828-14.5 2.25-10.295 1.5251-10.141 21.918-4.6133 12.039 3.2634 17.3 4.2261 22.264 4.0781 5.1461-0.15337 6.1113 0.0372 4.6309 0.91211-2.766 1.6346-0.26217 2.8368 5.9473 2.8555 17.283 0.0521 30.53-24.358 24.953-45.984-3.1094-12.058-12.954-29.544-15.979-28.383-0.78068 0.29958-2.539-1.0879-4.1777-3.2988-25.948-35.007-53.046-56.23-91.004-71.273-8.5946-3.4063-18.156-7.5063-21.248-9.1113-9.9315-5.1547-55.129-15.343-89.123-20.088-12.205-1.7036-24.536-2.6401-36.848-2.8594zm132.06 85.008c0.47037-0.1565 0.79108 0.45644 0.81445 2.1719 0.0313 2.2998 0.0545 2.3052 1.5625 0.33399 1.4447-1.8885 1.6021-1.9024 2.8281-0.25 0.71412 0.96249 1.7237 1.75 2.2422 1.75 2.057 0 9.3782 6.3227 9.9473 8.5898 0.33283 1.3261 1.2191 2.4102 1.9688 2.4102s1.734 1.4316 2.1875 3.1816c1.0407 4.0163 2.801 4.6757 3.6328 1.3613 0.78296-3.1196 1.5412-3.1632 5.1777-0.30273 1.5662 1.232 3.5668 2.1179 4.4473 1.9688 5.7624-0.97623 40.931 40.005 39.729 46.295-0.36141 1.8906-0.0536 2.4961 1.2676 2.4961 2.072 0 3.0942 3.0427 1.7988 5.3574-0.71693 1.2811-0.48039 1.6426 1.0762 1.6426 1.1913 0 2.524 1.108 3.3086 2.75 0.75716 1.5847 2.287 2.8896 3.6113 3.0781 1.264 0.17991 2.125 0.85491 1.9121 1.5-0.61318 1.8583-11.732 1.9114-15.076 0.0723-2.8467-1.5656-2.8452-1.565-0.57422-3.9824 2.271-2.417 2.27-2.4169-2.1543-2.4219s-4.4238-5e-3 -1.1738-3.0508c4.2402-3.9742 4.1044-4.2349-1-1.918-5.2851 2.399-7.1176 2.4376-10.465 0.22266-1.4545-0.9625-4.2152-2.2045-6.1348-2.7598-4.7661-1.3786-4.9946-3.1118-0.64844-4.9277 4.8735-2.0363 3.5875-3.5625-3.002-3.5625-6.4027 0-7.5177-1.1336-3.7617-3.8262 2.9456-2.1116 9.9238-12.846 8.9707-13.799-0.31302-0.31302-1.4695 1.1615-2.5703 3.2773-2.5585 4.9177-7.6746 8.3477-12.451 8.3477-4.1664 0-4.5879-0.87519-1.6875-3.5 2.5338-2.293 2.576-3.8183 0.084-3.0274-3.254 1.0328-3.3593-1.3027-0.28516-6.2988 6.5848-10.702 4.9902-10.923-6.6582-0.92578-2.1774 1.8687-3.9363 2.643-5 2.2031-0.90255-0.37324-2.4281-0.90489-3.3906-1.1816-2.1716-0.62441-2.2554-2.6047-0.18359-4.3242 6.7464-5.599 5.9234-12.018-1.4668-11.443-7.1336 0.55467-8.5087-1.1031-4.9316-5.9473 2.2556-3.0546 2.2555-3.0553-0.51172-1.2461-4.0257 2.632-9.0536 1.9399-9.502-1.3086-0.47478-3.4396-3.9342-6.7379-4.7734-4.5508-1.0136 2.6414-3.3823 1.7964-3.3613-1.1992 0.0378-5.3849 2.7862-12.786 4.1973-13.256zm-83.588 36.238c0.54951 0.1983 0.80314 0.704 1.043 1.6211 0.43438 1.6611 1.0776 1.9971 2.9336 1.5312 1.6832-0.42245 2.5648-0.10616 3.0215 1.084 0.45554 1.1871 1.3375 1.5051 3.0078 1.0859 1.7087-0.42886 2.3652-0.17196 2.3652 0.92578 0 0.83548 0.86185 1.5195 1.916 1.5195s2.1179 0.5625 2.3633 1.25c0.30991 0.86826 1.1955 0.56289 2.8984-1 3.58-3.2856 4.1551-2.8218 3.416 2.75-0.77436 5.8374-0.44225 5.9708 6.3184 2.5449 5.0452-2.5566 6.0879-2.4508 6.0879 0.62109 0 2.2453 1.1868 2.3054 5.1426 0.25977 3.7951-1.9625 4.5095-1.3499 2.3223 1.9883-1.8752 2.8618-0.89995 3.3815 2.0938 1.1172 3.0072-2.2745 3.6357-1.8064 1.9512 1.4512-2.4634 4.7637 2.5109 17.017 7.5059 18.49 5.3818 1.5873 6.2514 2.446 5.6289 5.5586-0.39724 1.9862-0.10513 2.963 1.0195 3.3945 1.1381 0.43674 1.4193 1.4054 1.0059 3.4726-0.90693 4.5347 1.0578 9.7924 4.6973 12.568 10.521 8.0244-3.401 48.532-22.008 64.033-10.623 8.8499-16.138 12.818-21.859 15.732-9.6153 4.8976-22.279 8.7745-30.5 9.3359-4.125 0.2817-8.9218 0.68409-10.66 0.89453-1.7384 0.21041-3.3134 0.23987-3.5 0.0664-0.18662-0.17346-4.9848-0.8148-10.662-1.4258-5.6774-0.61098-11.302-1.6554-12.5-2.3203-1.1976-0.66485-2.506-1.1154-2.9082-1.002-0.96691 0.27266-8.6241-3.7369-9.3359-4.8887-0.30597-0.49506-1.655-0.62419-2.998-0.28711-2.1118 0.53003-2.5235 0.20298-3.0488-2.4238-0.54417-2.7209-0.84148-2.9318-2.8438-2.0195-2.9519 1.345-11.606-3.0665-15.162-7.7285-1.4506-1.9018-3.8167-3.589-5.5723-3.9746-1.8433-0.40486-3.2565-1.4538-3.5684-2.6465-0.35664-1.3638-1.1109-1.8181-2.4394-1.4707-1.1212 0.29319-2.1506-0.0908-2.4688-0.91992-0.33839-0.88184-1.9787-1.4219-4.3164-1.4219-4.286 0-6.1828-1.6489-5.3887-4.6856 0.29933-1.1446-0.16867-3.4615-1.041-5.1484-2.1136-4.0872-1.999-6.4822 0.41406-8.666 4.1552-3.7604 0.24053-5.0508-4.3555-1.4356-3.3607 2.6435-5.0203 1.6364-4.3281-2.6289 0.35661-2.1975 0.0585-3.71-0.88867-4.4961-3.3198-2.7552-1.253-6.21 4.4453-7.4297 3.6376-0.77858 10.51-4.4606 9.748-5.2227-0.25581-0.2558-2.9761 0.0965-6.0449 0.78321-6.3426 1.4194-10.576 0.2785-10.576-2.8496 0-1.0018-0.5625-2.4028-1.25-3.1152-1.0063-1.0428-0.81127-1.5933 1-2.8223 2.7863-1.8905 2.8951-3.8806 0.25-4.5723-2.9934-0.78279-2.4298-2.1358 1.7129-4.1113 3.7127-1.7704 3.7129-1.7701 1.4609-3.4687-2.7166-2.0491-0.84452-8.4656 2.8086-9.625 2.2113-0.70185 2.6176-2.016 0.94336-3.0508-0.6692-0.41359-0.27349-1.2242 1.0488-2.1504 1.6683-1.1685 1.8731-1.7837 0.96094-2.8828-1.1715-1.4116 5.9999-5.4219 9.6953-5.4219 0.80566 0 2.4548-1.0543 3.666-2.3438 1.2112-1.2895 3.4406-2.6485 4.9531-3.0195 3.3909-0.8318 3.4296-1.6763 0.25-5.4551-3.5991-4.2774-0.77806-9.1816 5.2812-9.1816 1.6786 0 3.2117-0.47689 3.4062-1.0606 0.21129-0.63387 3.1489 0.19361 7.2969 2.0547 8.319 3.7325 12.03 3.4831 11.221-0.75196-0.55031-2.8788 1.4348-5.1544 4.5449-5.2109 0.9625-0.0175 1.75-0.70626 1.75-1.5312 0-1.7354 1.3587-1.9124 3.9648-0.51758 1.3622 0.729 1.9821 0.6003 2.4043-0.5 0.31271-0.81492 1.335-1.4824 2.2715-1.4824 0.93645 0 2.4872-0.71124 3.4473-1.5801 1.4017-1.2685 2.1725-1.3509 3.9121-0.41992 1.7452 0.93402 2.5127 0.84493 3.9492-0.45508 1.0458-0.94647 3.3882-1.5763 5.666-1.5254 2.136 0.0477 5.4598-0.15345 7.3848-0.44532 1.925-0.29187 5.525-0.70823 8-0.92578 4.3462-0.38203 5.6647-0.60749 12.809-2.1894 1.4263-0.31584 2.2708-0.42487 2.8203-0.22656zm-33.34 23.234c-7.7561 0.0582-15.424 3.8532-23.568 11.391-11.845 10.962-11.454 38.407 0.71679 50.207 5.4131 5.248 6.8388 6.0217 13.773 7.4805 3.9469 0.83026 7.394 1.7279 7.6602 1.9941 0.26621 0.26618 1.1919 0.27712 2.0566 0.0254s3.3723-0.77476 5.5723-1.1621c20.054-3.5309 35.221-27.771 28.076-44.871-0.78253-1.8728-1.1795-4.3343-0.88282-5.4688 0.32277-1.2343 0.0593-2.0625-0.65625-2.0625-0.65764 0-4.5494-2.9251-8.6484-6.5-8.499-7.4124-16.344-11.091-24.1-11.033z" fill="#283e4c"/>
 </g>
</svg>
