<?xml version="1.0" encoding="UTF-8"?>
<!-- Created with Inkscape (http://www.inkscape.org/) -->
<svg width="1200" height="1200" version="1.1" viewBox="0 0 1200 1200" xmlns="http://www.w3.org/2000/svg">
 <g>
  <path d="m572.84 1035.7s-367.79-410.42-367.79-410.42l129.83-445.57 174.49-100.78 268.75-22.23 133.55 97.392 69.095 520.45-175.1 309.66z" fill="#fff" stroke="#000" stroke-width="1px"/>
  <path d="m622 1168.1c-35.815-20.722-73.28-28.32-108.19-42.84-13.926-35.002-34.853-54.836-73.115-48.484-13.848-32.563-33.535-40.283-67.488-32.119-35.273-25.043-27.739-94.109-83.41-75.4-45.253-21.206-11.902-104-72.563-88.856-19.719-39.95-36.81-86.716-30.719-132.67-38.156-24.637-42.927-90.615-31.217-135.7 43.976-42.15-54.698-74.669-2.388-114.63 8.873-39.817 61.315-74.846 29.926-115.43-10.597-45.065 51.533-79.259 37.893-130.99 25.674-46.147 75.777-65.118 90.043-117.35 47.16-21.08 82.286-61.468 132.54-77.747 43.672-19.542 96.003-39.931 144.07-17.212 41.455 14.366 85.815-24.008 132.23-6.1141 36.246 5.4694 62.69 29.904 102 41.885 27.875 18.127 41.555 28.785 31.399 51.204 36.574 30.471-23.013 10.575-19.155-5.1086-30.148-16.002 12.196 25.668-17.861 17.485-7.0196-15.329-21.343-38.521-32.074-20.697 43.321 11.466-34.894 12.679 2.7409 20.031 17.962 4.5743 32.529 21.279 57.272 10.635 17.427 25.199 49.664 9.3889 36.455-7.3726 53.362 0.78119 61.199 57.491 88.212 90.714-16.447-10.969-41.713-18.797-11.272 3.4756-30.665 4.9136 66.863 10.523 48.981 50.215 2.3888 23.522-49.784-21.449-63.766-16.477 38.616 23.855 78.244 32.774 99.987 72.499-21.691 43.254-12.33 93.54 14.948 135.66 11.377 37.839-31.321 83.714-0.6812 127.31 20.526 46.036-40.898 66.962-28.585 115.14 11.038 44.598 14.243 104.27-36.821 125.4-33.178 22.153-59.936 53.856-90.51 79.882-81.344 76.381-165.06 150.37-244.89 228.28-7.9345 10.654-19.786 19.426-33.997 15.382zm-20.667-599.75c14.467 2.7381 69.196-8.0543 25.333-10.903 39.177-14.13 12.69-60.705 62.333-64.816 16.22-15.738-24.475-17.868-24.361 2.2609-41.796 19.266-10.494-44.537-27.514-60.598 17.231-32.979-12.519-93.813-32.192-47.912-46.955-29.324 0.65373-70.938-30.636-115.83-2.0131-17.457 38.995-44.277 34.552 4.583-13.115 42.534-6.3968 104.6 48.773 66.25 41.163-22.299-22.598-65.99-7.0531-93.631-12.314-33.351 10.767-17.882 17.612-53.321 22.361-46.333-42.486-4.0157-27.874 26.927-10.834 36.998-23.985-75.125-24.809-10.834-16.888 48.962-19.151-25.561-31.138-31.501-16.831 25.382-49.44-72.259-63.536-30.209-22.268-12.009-74.112 3.0244-20.393 11.905 12.54 6.9302-13.384 10.793 15.822 16.72 37.726-0.21646 54.83 61.626 28.628 54.28-8.6642-28.101-76.229-30.695-77.883-28.282 32.594 19.699 2.6989 11.079 5.075 13.491 24.739 13.823 7.1811 51.137-16.354 18.887-19.225 0.92985-62.025-0.0978-14.724 10.021 15.693 47.423 84.228-12.115 97.95 10.172-21.59 16.325-89.082 24.258-54.286 59.278 30.279 26.043-64.67-4.7936-39.044 37.091 25.523 20.01 79.944 17.177 51.217-22.77 15.012-10.821 73.898 6.0827 62.04 31.555 30.212 9.9733-37.795 52.131 5.746 32.12-7.9105 22.665 7.3098 44.107-10.69 59.94 29.887 33.343-7.2116 15.529-16.822 39.745 21.162 24.49-17.076 60.991 28.804 59.031 29.274 7.7067-41.053 4.9832 7.0006 13.501 9.0707 3.5157 18.908 3.3226 28.42 2.8515zm-154.98-93.755c40.975 10.772 68.148-49.625 18.982-37.786-25.508-15.08-69.608 3.3108-41.062 33.148 6.9323 3.3949 15.312 0.97704 22.08 4.6376z" fill="#dadada"/>
  <path d="m630.76 1165.3c-40.82-5.6044-60.897-56.6-105.37-36.54-26.419-28.152-38.901-72.109-85.216-59.264-14.32-27.31-30.754-47.163-64.195-30.71-36.946-23.147-30.667-95.299-86.173-75.112-41.005-22.481-12.906-104.61-71.249-86.739-27.067-40.145-31.365-95.7-33.229-141.11-47.085-23.176-39.434-103.09-18.28-145.11 19.445-32.079-61.926-55.978-14.468-89.74 16.704-45.319 66.347-87.407 26.081-134.72 31.924-36.335 38.329-86.349 54.458-127.31 7.682-18.192 48.271-50.613 25.074-25.998 20.243 3.1537 57.79-31.044 15.611-16.974 29.006-29.464 35.087-79.62 86.856-87.024 32.4-34.831 81.747-45.464 121.3-67.733 42.752-20.891 93.79-3.8164 127.36 11.213 34.839-28.668 70.594-0.37099 111.72-16.789 19.354 0.99961 25.784 10.015 24.385 15-23.225-15.048-7.5948 6.5499-14.445 2.3981-36.388-3.9529-9.8378-2.4089 1.867 12.902-22.936-11.78-84.123 2.9448-43.496-17.099-30.537-9.6357-89.982 48.808-56.673 37.986-20.083 32.397-36.367 25.088-24.688-6.0934 7.8743-41.429-76.092-21.845-107.33-29.15-36.793 2.0524-23.218 22.538-12.834 23.07-8.5215 8.8521 73.987 8.9939 32.961 13.247-28.354-3.45-88.693-4.0304-74.383 21.086-17.99 10.978-25.425 38.888-54.47 31.707-21.455 17.436 30.686 73.426-15.68 35.629-20.386-34.205-103.12 14.564-41.044-5.012 31.442-2.418 87.653 46.561 26.789 44.112-34.729 42.984 107.58 35.549 31.836 44.426-35.817-4.5068-86.279 2.9476-73.842 40.991 7.8485 15.051-48.193 32.986-10.667 3.5045-31.431-24.153-1.0206-101.46-57.955-69.71-43.259 16.309 44.366 6.4314-0.6803 22.614-5.2938 19.732-9.0593 21.067 15.969 12.547-34.237 16.539-2.9218 28.259-31.185 49.598 1.0372 18.899 13.991 12.789 37.838 2.1315-14.289 10.858-64.281 56.378-31.986 52.288 0.0464 27.141-71.382 38.05-18.366 37.554 10.189-0.51819-2.5814 15.504 13.787 6.676-5.9534 20.469-40.776 76.129 0.5877 51.565 19.076-1.2334-41.596 48.093-5.3414 28.654-16.673 18.986 27.842-8.8546 17.026 16.377 35.155-22.131 56.608-3.6876 55.938-50.654 23.133-31.722-7.6678 17.823 18.699 2.7006 43.741 1.4483 67.398 55.368 25.671 63.391 18.857-48.48-40.925 28.754-26.359 52.447-4.7982 26.189 3.2233 26.286 13.04 4.7921 3.5894 18.445 14.932 48.594 42.792 18.655 24.948-19.823-18.091-44.923-7.5228-75.751 11.626-12.301 13.679-60.395 28.871-88.047-10.746 37.457 25.098 87.339 56.839 41.801 14.579-10.852 85.528-28.346 35.81-5.1209-24.642 3.9365-72.944 61.468-29.652 59.941 13.338-24.085 57.419-61.929 70.163-18.682 3.877 37.517-30.637-35.631-45.715 10.671-35.405 55.667 17.663 118.06 77.069 116.3 68.618 5.0288 12.738-59.714-18.607-73.461-35.12-22.425-4.027-29.054 12.953-7.4299 25.802 16.62 102.37 8.7937 100.52-10.928-16.34-5.9652 56.006-18.325 13.797-43.013 9.883-19.21 47.92-24.649 9.6929-41.937-16.387-1.6201-42.753 21.859-22.568-10.748 29.803-18.712-25.462-16.25-1.9624-42.925-10.921-39.112-4.7793-75.424 40.787-83.429 21.676-32.936 27.441 17.029 6.0504 29.53 17.009 7.7958 30.206 10.767 41.217 15.098 25.364 0.45592-18.446-18.288 20.768-15.733 10.454-28.558 54.679-0.0809 28.93-38.085-17.735-25.031-68.843 28.349-47.868-24.327 22.208-11.787-28.15-40.115 11.903-30.407 7.8155-30.833 98.458-33.807 35.661-47.423-19.471 4.516-81.354 17.925-36.701-10.162 21.868-20.95 82.237 10.57 49.266-32.806 27.306-7.1007 32.117-21.138-1.6874-10.839-15.063-23.329 82.151-16.378 32.951 8.7861-46.345 47.44 28.737-20.875 53.56-10.936-41.061-57.428 79.371 17.585 31.621 19.295-30.773-18.415 22.695 38.466 9.3126 37.613 25.03 8.4006 18.019 12.833-3.237 5.6855 22.632 9.4622 95.939 41.086 66.308 55.396-17.157 2.6049-101.7-47.185-50.757-10.595 39.294 7.5644 44.043 56.342 82.022 60.109-24.56-14.34-32.354-31.128 0.4238-11.019 32.881 36.182-31.381 76.454 6.9846 115.76 18.972 32.037 42.006 69.502-2.6131 90.296-5.1496 38.996 54.669 99.508 8.7301 124.18-47.658 28.191-0.6533 85.062-11.914 126.92 6.7841 53.252-78.866 48.284-51.978 106.56-6.6392 62.333-87.292 31.536-89.933 94.144-12.448 44.682-77.899 17.692-85.831 69.016-56.784-2.3781-53.328 94.326-110.87 70.871-27.464-0.4019-34.11 43.902-60.843 45.173zm-27.849-322.23c28.289-3.6848 87.665-48.307 32.126-50.161 47.605-25.015-42.319-1.3893-59.708-11.045-40.262-4.8815-17.991 3.2634-22.333 12.773-58.845 27.742 23.35 59.149 49.916 48.432zm-218.84-151.11c31.806-6.6792 51.368-58.177 11.92-60.796-20.057 25.236-37.382 36.229-11.92 60.796zm239.83-45.359c27.336-4.3752 110.58-30.169 44.918-30.655 27.449-12.301 65.168-54.187 69.768-73.986-12.532-49.052-62.399-15.825-38.331 21.846 4.3057 35.581-116.75 53.72-76.354 82.795zm-349.24-15.406c53.617-17.54 8.3586-74.018 52.798-90.569 7.6654-43.136-30.324 26.477-52.979 25.851-16.14 19.536-68.632 16.677-22.056-3.0641 30.412 16.027 72.878-77.821 31.612-32.932-20.51-10.204-63.754 28.863-68.042 64.331 21.144-9.3031 54.599-3.2474 14.543 10.9-24.887 28.678 105.12-37.743 48.73 16.187 7.0455 0.98701-17.035 12.96-4.6058 9.2957zm504.46-152.75c32.16-7.5981 51.242-64.84-1.7942-48.453-19.519 10.695-73.857-5.134-26.424-6.2246 17.159-9.5851 41.542-56.898 10.877-19.816-24.951 1.0505-54.082 16.095-33.078 35.509-30.533 30.362 32.888 37.762 50.42 38.984zm-263.78-55.342c-9.5987-12.679 0.067-34.072-20.393-8.9086-32.38 5.6544 15.522-30.131-25.107-24.903-33.81-6.0704 14.06 34.918-16.08 13.037-3.7692-34.07-54.671 15.327-51.492-29.821-2.0704-27.264 10.559-38.519 13.766-6.5087 35.442 9.853 58.784 23.413 92.831 1.2193 9.7176 16.607 11.835 37.698 6.4755 55.884zm-209.59-63.187c-20.763-1.9603-20.411-53.852 0.049-22.624 5.0723-13.73 50.719-22.744 75.702-43.29 36.941-11.41 36.872 19.243 2.0517 9.5801-25.165-1.8965-52.228 34.445-11.377 14.935 45.685-19.838-26.393 42.63-47.245 36.701-6.6672 0.44165-12.787 3.1078-19.181 4.698zm365.62-128.47c-20.962-46.936 55.624-66.826 93.288-72 36.528-6.4464 23.873 29.876 48.667 39.188-41.242-3.1884-87.129-17.745-125.92 9.206-11.275 3.8905-13.342 13.085-16.039 23.606zm-263.69-32.82c19.108-21.134 17.544-83.245 51.274-66.078-15.485 12.35-44.409 44.977-0.48266 37.415 26.143 1.0621 89.938 18.064 27.044 20.003-31.652 7.6327-54.66-27.917-77.835 8.6597zm371.31-70.99c-28.624 0.63028-81.218-5.8086-88.422-30.965 16.622-1.6109 26.643 13.656 39.293-7.0024 19.296 9.2959 117.76 3.5629 92.605 4.4804 2.0613-22.668 56.576 45.153 3.8958 22.623-32.97-16.472-57.031-5.4599-34.406 10.27l-5.8271 0.36921z" fill="#848484"/>
  <path d="m630 1164c-40.906-9.9807-63.939-56.769-107.79-41.369-25.346-24.408-35.359-72.89-79.626-55.489-18.483-26.712-30.827-46.771-66.686-38.182-39.833-12.906-29.899-89.699-84.268-69.633-19.011-10.618-42.743-60.053-10.171-29.088 15.309-6.3293 1.3296-29.761 11.841-1.6416 18.43-7.0337 1.0912-90.269-6.6856-29.56-39.532 18.132 0.54021-30.007 10.131-43.782 9.3019-38.401-19.784-48.4-28.529-16.111-10.418-12.539 0.23825 39.107-5.5157 56.888-0.52456 44.697 1.0034-47.948-30.528-20.557-40.997-5.8177-42.07-92.487-41.852-114.13 1.0228 59.945 17.719-43.832-23.105-35.302-15.262-22.669-15.22-94.464-6.4392-32.711 40.784 19.09 42.714-35.415 40.149-67.375 17.109-6.7581 95.523-18.833 46.621 6.871-10.316 32.801 33.617 68 34.895 87.199-18.32-17.084-36.646-38.137-34.849 1.0964-7.9283 18.894 9.2441 79.378 5.485 28.748 0.57208-16.675 15.453 43.501 16.228 0.82247 7.6643 20.683 29.125-19.428 23.956 16.667 1.1539 36.811 8.2531 58.407 36.226 31.333 23.959-3.7928 16.62-72.184 19.141-23.47 5.1716 51.541 34.357-9.1273 47.697 6.8064 10.275 14.616-3.084-41.559-18.056-47.424-18.209-24.266-28.291-83.642-60.197-76.953-7.4918 17.654-25.39 56.662-13.388 13.763-1.0074-6.364-32.701 29.553-27.588-5.225 25.999-16.255 51.78-68.054 65.816-35.694 42.063-3.1636 4.0509 95.86 57.929 61.61 18.184-6.81-17.41 61.675 1.7307 45.92-0.63555 29.45 22.919 67.406 33.424 29.652 2.0834-20.513 28.374-103.67-0.82089-47.795-18.162-25.196 28.586-52.451-2.6594-77.334-4.1305-22.515-10.345-48.054 18.777-46.333 9.1278-19.54 23.122-60.5 18.492-13.358-4.4045 43.472 31.56 88.844 77.296 85.047 33.948 40.75 63.873-61.682 63.945-3.0695 23.626 8.8838 93.694-9.3191 67.57-24.107 29.509-6.5397 48.506-28.465 27.877-35.382 10.183-20.061 46.954-36.567 38.277-34.504 10.527-40.175-38.076-72.774-56.703-44.481-27.183-51.638 68.431-16.015 56.565-19.963 7.1364-13.891-5.9958 39.616 12.723 10.963 29.932 17.498 61.663-49.083 61.773-78.168-3.2252-30.968-33.924-35.399-49.826-12.498-7.5904-0.36647 30.685-66.214-3.9142-31.35-4.6295 0.93153-39.402-14.461-53.953 5.1325-7.5192 15.172 20.128 43.363-15.25 24.884 9.8466 8.9559 17.604 53.857 17.084 47.02-8.2702 26.25-22.006-16.756-50.587-4.5003 22.91-11.102 22.442-22.977-2.6667-33.657 12.496-37.616 11.935-6.299 15.16-19.303-0.56057-28.198 35.378 6.0663 25.118-28.075 10.859-30.893 52.923 13.05 75.41-16.152 37.152-7.2867 37.115-31.657 18.979-61.912 8.4287-12.872 47.964-23.509 74.685 2.5651 41.166 18.321 95.239-51.219 119.43-2.0801-31.191-4.1632-29.585 18.185-62.844 0.14695 14.561 16.328 11.72 50.172 17.968 71.947-29.532-30.892-32.968 39.157-61.259 11.879-13.555-11.263-62.018-41.83-20.62-35.693 10.131 16.439 72.118 11.093 28.642 1.1294 18.9 3.8583 39.751 2.9109 15.323-16.326-26.83 3.1566-48.616 8.4763-58.105-9.5852-3.9644 9.5031-40.162-29.988-26.552-2.0707-11.515 30.321 34.646 61.29 2.8098 88.667-3.2929 32.993 13.05 88.896 53.544 54.719 20.385-9.1625 22.285-20.74 36.933-9.0524-10.613-20.661 11.807 5.2943 1.5017-19.562 25.451 5.2573 58.154 55.25 40.567 8.4556-23.08-38.362 48.087 36.463 15.175-13.626 22.984 26.163 26.992 8.3713 31.928-3.0829 8.7581-1.2955-31.221-36.565 0.2087-37.947-11.746-2.5616-55.646-10.069-26.658-32.127 22.802 5.0328-10.762-32.327 15.262-10.237 15.375 27.86 44.114 3.8182 7.1564-10.219-35.577-19.537-11.338-38.593 14.72-14.9 38.85 1.6857 8.7448 29.018 12.197 27.373 31.699 9.6955-29.705 18.422-5.1037 28.031-7.6117 48.121 28.55 67.991 40.523 111.36-33.11 21.788-36.731 53.444-14.533 87.306 18.167 33.498 13.493 70.19-27.853 76.505-14.391 41.219 24.119 86.408 6.6583 129.95 0.073 41.272-79.55 28.384-50.897 80.758 10.223 67.633-76.767 38.157-88.628 91.699-11.062 49.333-77.826 27.642-86.447 78.925-47.322-1.9423-59.307 52.072-82.343 73.687-51.52-26.298-53.119 31.182-88.053 46.621zm-151.24-260.69c5.7706-18.305 24.819-4.0872 23.008-34.509 9.1775-20.921-1.4999 61.856 8.0356 7.1674 11.311-26.188 21.464-95.122-25-68.985-19.496-49.013-49.012 55.4-78.675 2.802-33.564-43.238-9.8488 69.435 8.4256 47.857 13.148 3.6061 18.846 34.53 27.831 2.0892 28.423-58.403 10.084 23.835 36.374 43.578zm126.67-38.61c24.722-9.3702 65.979-5.5027 72.584-50-6.0841-47.732-40.341-36.725-80.698-32.537-19.133-5.0043-62.372-2.4462-56.998-3.7371-10.218-12.186-51.457-89.97-32.56-39.8 26.081 38.507-1.7318 98.753 41.004 123.79 18.766-0.27271 37.556 0.29881 56.668 2.287zm-376.2-22c44.783-17.26 0.61379-74.462 1.5247-109.58 28.542-24.334-8.027-92.56-22.309-38.197-21.924 30.684 8.8088 107.72-0.44625 99.082-27.902-24.313 16.691 79.904 8.0454 18.694-6.457-31.758 13.17 25.118 13.185 30zm672.07-46.668c5.0483-18.111-1.3752-104.89 10.685-44.544 8.8863 53.209 9.687-61.901-14.904-68.348-23.59 16.74-14.48 73.235-13.521 98.207 9.318-30.371 9.4857 7.5099 17.74 14.685zm-65.03-113.38c10.514-29.627 13.073-73.636 21.575-108.77 14.028-46.208-48.898-27.816-25.715 1.8608 27.077 21.44-22.439 4.1266-13.722 36.772-22.108 20.931-17.121 70.67 14.707 67.135zm96.41-47.95c23.691-12.821 19.03-33.452 10.378-54.667 42.961 31.586-37.487-67.798-27.81-8.3434 19.435 15.368 0.17107 45.436 17.432 63.01zm-323.28 0c-12.48-37.971-53.892-48.649-77.184-79.313 35.994 4.5455 55.774 39.955 81.656 50.882 14.158-31.206 49.321-45.686 73.621-60.211 33.22 47.832-59.103 42.714-70.659 82.907zm-432.07-64c-33.268-5.2796-53.985-72.562-14.26-62.227-34.7 42.697 44.406 10.46 42.182-18.755 18.882-19.931-17.885 45.548 18.263 24.408 23.062-15.515-0.57616 26.492 32.497 4.2558 48.703-5.5235-32.452 26.696-32.995 40.486-15.344-24.619-32.56-7.7384-45.688 11.833zm742.36-280.13c-20.991-13.842-70.111-1.8826-27.485-33.477-4.2026-12.931-70.508 24.36-67.391-1.9193-45.676-3.2978 66.124-21.224 23.502-36.246-25.164 18.683-22.967 1.3585-6.3104-3.5986-17.547 2.1262-101.29 1.5156-45.044-3.0757 39.967 3.825 63.034-64.239 108.84-35.623 21.447 27.746 36.034 55.2 29.149 56.148 21.846 10.307 85.075 31.245 63.588 49.774-21.965-15.125-62.375-13.336-69.641-20.102 25.182 16.999 16.965 21.409-9.2084 28.118zm-601.84-25.208c19.466-27.553-18.994-50.669-4.7926-78.994 15.843-37.275 94.245 19.017 65.872 18.111-7.7224-30.559-83.405-31.295-37.861 2.5001 9.6341 25.489 40.879 58.108 30.67 50.001-17.433-0.74351-38.826-1.6078-53.889 8.3816z" fill="#636363"/>
  <path d="m880.81 170.36c-42.412 9.2084-61.159 54.38-107.48 45.068 19.123 8.4297 94.985-12.567 53.406 11.998 12.015-0.41214 39.157-22.287 28.016 7.832-31.137 7.8534-52.765 17.725-26.09 24.201 0.19265 23.233 98.689-30.768 49.607 8.8376-15.319 24.645 30.621 7.8659 45.412 21.141 34.577-13.284 5.7934-30.341 4.9207-33.112 21.205 7.4302 67.518 30.774 74.802 22.069 2.5294-32.936-88.92-40.354-66.074-52.51-12.667-10.539-18.013-60.595-56.519-55.525zm90.59 119.82c-42.78 6.1206-87.771 41.519-129.15 6.6172-42.27-7.2157-56.142 9.0936-34.086 47.998-11.239 25.213-51.106 39.9-84.346 36.394-11.17-20.274-31.143 4.6206-26.755 25.206-21.606-16.686-22.355 21.978-29.064 10.068-26.809 24.003 42.27 34.883-3.9688 47.486 5.4588-1.4865 47.157 27.516 42.826 18.992-7.5274-13.225 26.86-8.4506-1.949-19.933 16.38-22.397-30.645-47.422 11.179-31.1-24.227-26.184 22.37-60.875 44.574-35.357 2.7286-1.8806 32.897-25.589 16.57 7.6895-24.261 25.549 2.0448 26.337 15.283 3.7656 52.243 20.68 13.659 76.084-5.5664 108.84-13.769 16.846-30.702 0.7367-42.668 5.5254 5.9925-19.171 3.6265-20.104-5.3203-13.566-16.494-28.188-77.839-0.84643-46.441 18.65 29.58-52.378 77.477 56.045 38.703 47.566-7.9392 9.808-43.226 44.565-11.926 35.594-21.601 31.676-36.901 56.882-79.918 63.625-20.996 1.6266-34.91-5.8354-33.988-26.934-3.6336 28.536-62.782 53.695-74.619 44.647 37.857-6.5054-16.301-10.87 10.563-19.852-44.63 14.187-83.983-90.534-76-72.84-5.2952 20.582-35.622 5.4025-16.965 34.465-9.9786 26.172 20.661 20.842 3.1968 53.336-2.2307 19.848 14.086 2.3955 17.911 16.148 27.505 1.0928 5.6663 71.918-10.025 35.797 8.5571-27.575-8.4503-45.398-15.24-8.2104 1.7692 22.768-16.68 94.051-36.209 43.605-18.528-54.277-3.4937 29.642 6.7715 43.238 35.379 26.047 47.242-64.95 71.275-14.168 15.633 4.5151 22.792-29.117 34.064-10.271 9.29-29.715-37.805-76.882-19.102-94.201 22.681 27.097 22.869 83.559 66.612 78.523 34.867 18.998 93.909-25.16 104.75 20.907 12.443 14.858-1.5932 71.521-14.581 55.64-4.9245 18.653-33.69 16.571-41.17 12.785-20.088 20.407-67.834 8.0457-87.93-18.055-16.944-26.424 15.215 50.31-16.045 39.824-8.1215 40.003-11.934-19.563-16.695 16.049-2.6468 36.498-10.266-31.534-17.324 7.334-7.8206-20.605-19.788-15.435-19.946-48.372-2.5045-51.08-22.209 54.489-38.843 3.0383-6.2103 30.806-34.877-26.753-27.193-22.994-19.241-14.728 1.0515-81.889-19.483-42.405-23.664 3.1029-22.264-28.867-41.88-1.7507-24.88 22.968-40.966 21.402-28.666 59.956-0.84788 45.039 62.086-27.26 37.453 17.812-18.695 6.119-35.774 42.144-38.852 31.541 12.519 24.462-22.841 38.742-31.016 23.609 4.3506 44.484 54.723 9.282 65.139 38.976 10.58 18.796 15.585 49.545 38.855 56.421 38.199-14.53 48.823 23.078 76.127 38.537 49.686-24.352 48.18 72.143 94.252 55.33 34.353-11.313 51.913 46.569 89.309 40.748 25.336-26.525 45.518-67.616 89.848-47.341 10.228-45.477 48.132-65.681 83.656-83.627 7.6879-48.199 69.162-14.91 76.555-62.826 3.3349-44.244 50.24-37.967 77.993-54.637 28.383-32.754-13.712-95.184 51.668-96.42 25.323-25.487 16.653-73.288 7.7835-105.86-20.597-35.66 3.0595-60.388 35.384-68.442 16.207-43.615-52.184-95.395-10.242-127.74 40.74-28.946-22.694-66.924-23.621-94.494 7.8664-24.939-20.162-45.571 5.7729-46.459 21.184-18.475-22.434-17.873 9.1778-22.635 7.5474-24.958-92.348-47.535-43.088-9.6986 29.405 13.018 28.377 38.792 2.5665 21.663-6.737-17.808-28.399-17.186-9.334 1.3965-42.617 8.2868-2.8787 36.689 16 33.904-33.638 9.4768 20.04 40.098-6.6797 46.115 7.7758 31.806-45.246-29.671-14.654 11.051-20.559 7.2339-38.085-36.984-24.82 4.6172 18.452 22.51-15.267 42.618-11.566 7.7227-1.7883-17.983-39.308-27.021-31.428-11.994-4.3294-1.546 2.3078 22.649-15.528-0.084-14.722 25.087-75.811 45.649-72.98-8.4199-10.76-32.723 26.713-60.433-4.3466-88.387-2.4061-31.947-10.577-52.728 22.239-25.062 9.9353-4.7927 16.711 22.273 41.298 8.8083 23.703-16.919 47.725 32.158 13.255 13.729-24.93 2.378 31.724 9.2747-1.8055 10.846-17.293 7.0024-57.79-32.283-50.044-0.0859 24.924 13.646 60.837 56.345 74.955 4.539 17.562 4.9874 31.393 15.762 15.439-11.366 14.888-23.748-35.241-70.846 12.666-42.418 11.685-6.5145 19.656-10.559 39.839-11.523-1.2017-8.912-9.9434-15.703-18.435-17.153zm-817.66 213.95c-34.658 21.193 1.6363 58.05 26.275 64.209 9.8285-28.896 32.515-30.555 49.066-14.504 6.3168-19.431 70.006-40.341 15.904-30.506-27.914 7.3914-58.766-37.184-56.998 13.674-23.457 34.257 14.925-39.692-25.604-1.9531-32.742 3.3727 8.9021-25.526-11.721-23.84l2.2891-4.127 0.78711-2.9531zm691.71 37.209c32.339 34.303-2.6797 79.474-2.1928 117.61 11.356 25.933-3.3814 39.177-20.137 20.157-0.12097 15.413-32.895-16.697-26.379-30.035 22.276-27.066 14.566-73.016 37.375-98.896 3.7057-3.0302 7.3946-6.1058 11.334-8.834zm-159.88 4.0059c-17.253 17.959-50.459 25.223-63.638 50.475-3.7002 22.907-34.673 49.07 1.2221 23.85 18.31-25.3 54.545-30.888 64.983-64.999-4.4998 17.082 1.3348 37.288 8.8926 10.062-0.62458-7.7494-4.9786-15.061-11.459-19.389zm244.11 6.6602c13.651 11.573 43.075 50.422 11.648 31.094 30.786 23.865-7.0424 77.259-17.334 30.861 1.3637-20.133-28.808-59.277 5.6856-61.955zm-690.5 65.34c-31.024 4.1128-56.6 15.449-31.584 49.299 16.918 5.4927 40.062-8.8108 42.238 23.104 13.537 8.8213 50.111 45.116 19.802 11.873-12.951-24.5-44.57-52.726-14.045-77.766-3.1095-5.4925-11.195-5.2819-16.411-6.5099zm96.961 3.9941c-14.813 8.474-26.556 16.787-18.574 16-32.593 4.8899-46.876 60.469-15.816 26.433 21.307-40.683 45.664 11.152 62.12 18.559 2.6248-21.897 3.3396-45.713-18.074-43.717-3.803-5.4264-5.5118-12.075-9.6568-17.275zm558.41 60.297c22.774 12.961 31.147 86.223 18.289 88.184 5.6278-23.625-17.449-63.664-8.4453-17.295 3.603 18.987-1.4524 85.588-13.607 30.311-19.138 27.018-23.482-34.091-16.477-52.164 1.8478-19.872-6.7625-42.813 20.24-49.035zm-650.07 36.746c-4.2758 28.838-8.1526 70.222 10.801 96.604 30.156-1.1352 52.921 1.6924 37.942-35.886 1.0625-45.667-32.504 23.96-45.938-2.9657-3.3938-19.08-1.0185-38.558-2.8047-57.752zm-53.715 74.135c11.251 33.841 9.1399 100.21 62.453 80.09 9.7201 64.132 22.725-66.051-19.115-27.365-28.369 44.5-24.266-41.057-43.338-52.725zm181.65 37.08c5.8396 27.716 58.363 83.059 5.8184 93.543-5.2854-14.323-21.513-13.277-19.137-39.154-5.3364 37.403-10.821-69.764 13.318-54.389zm157.19 105.1c4.5982 30.485 55.927 64.135 30.6 97.312-20.583-24.749-31.096-60.786-48.674-82.23 5.6295-5.4252 11.58-10.686 18.075-15.082zm-88.279 1.1602c35.757 0.33011 6.2671 46.315 44 37.168 20.181 21.154 69.1 53.828 62.543 99.225-27.886 38.223-19.524-7.3255-23.081-28.357 1.878 19.011-7.0411 89.254-13.611 33.117-17.952-7.312-10.556-91.326-48.578-48.369-10.824-27.919-10.657-14.106-7.0123 3.5278-32.35 7.1446-18.95-44.837-22.538-44.95-9.1674-8.3283-11.967-43.942-19.518-9.541-24.826 3.9415-49.037 52.741-53.531 5.5751-6.4982-16.954-15.464-58.84 8.1497-24.577 25.251-5.6292 47.653-18.336 73.176-22.819z" fill="#646464"/>
  <path d="m628.95 1162.6c-36.101-4.5083-56.042-51.544-90.52-47.162-42.515 5.7283-46.481-68.905-95.657-60.903-26.161-6.5142-35.06-64.052-68.529-27.031-37.808-18.33-32.293-97.087-88.47-73.685-13.622-14.533-17.848-22.446 1.9895-9.1866 23.208-10.19 26.763-71.46 43.424-29.238 8.1395 28.053 6.0593 109.75 49.338 90.327 22.513-43.68 56.567 31.618 50.125 24.642-11.276-17.979-15.963-84.892-1.96-32.544 0.74888 30.34 11.539 58.558 42.72 31.03 29.442-17.114 24.132 64.959 38.618 60.769 2.917 32.655 68.326-23.651 39.306-45-22.222-32.142-39.417-75.068-80.326-85.534-3.9697-65.373-68.07 0.54516-97.53-10.342-24.722-3.9103-23.803-90.763-8.8148-35.441 13.403 15.145 29.003 16.431 45.577-4.8998-1.9468-21.835-22.904-62.783-36.186-81.783-29.964-9.7441-15.474 90.31-22.594 26.819 5.7135-22.145 1.2395-34.116-4.0545-3.6842-16.42 29.343-45.508 22.998-42.345-11.41 3.9674-13.776 42.614-69.938 63.164-30.454 29.721 6.1607 26.97 94.167 59.04 70.729 16.598 33.911 28.811-54.423 32.981-2.2368 4.0963 17.595 10.292 41.263 16.036 32.237 3.3532 28.714 11.652-9.5684 13.469 19.018 20.92 12.415 4.6337-44.028 17.264-13.02 6.6113-19.356 33.039-36.688 26.587-54.895 22.422 19.705 58.633 31.074 87.322 19.523 19.312 10.721 21.232-22.468 29.227 2.0403 14.766-20.493 19.364-18.156 33.565-46.464 16.859-31.616-16.096-76.257-51.559-57.788 9.4815-22.346-47.173-19.631-49.158-3.0326 13.212 13.218-44.098-6.1039-47.222-22.613-12.036-36.713-36.493-65.45-51.776-99.814-20.141 4.9672-34.277-18.44-11.854-32.245 6.3723 16.688 62.198 69.95 45.025 53.956-9.7109 4.4789 39.251 17.414 2.155 16.317 37.461 33.451 71.725-40.825 108.02-13.578 19.383-0.61039 67.99 29.845 38.233-0.93059 9.6528-12.919 71.76-26.322 52.177-31.813-45.905 13.734 28.752-40.325 26.854-41.718 20.617 21.725-10.585-95.963 16.164-39.611 2.6815 25.36 25.491 39.824 11.149 3.5947-1.146-31.084 41.344-50.083 49.193-83.591 32.72-4.3279 4.1849 61.137-2.5703 81.656-11.125 39.713-43.995 86.462-20.633 126.47 7.6173 15.372-7.8409 76.582 13.851 58.024 7.1256-25.803-3.3326-68.26 35.322-57.133 6.9565-23.981-6.2437-69.224 19.29-74.494-2.9329-18.431 2.0108-68.74 11.174-25.662-15.393 35.983 30.29 33.853 15.664 0.28671 10.243-42.661-61.024-112.58 9.4078-120.34 18.373 6.4974 26.905 14.941 21.718-14.804 27.763 28.488 13.22 85.266-30.891 59.898-18.365 41.423 31.287 13.971 37.16 21.102-13.182 15.96-36.23 23.529-19.402 50.717-9.2669 24.523 21.809 96.828-15.974 80.612-18.337 10.251-33.266 16.448-26.364 48.584-15.293 27.335-20.699 78.157 18.03 75.814 1.2455-10.124 20.124 42.588 20.384 6.2316 0.21895-17.6 3.0754-76.904 4.2844-28.154 13.717 27.511 9.5304-39.424 11.76-52.902-8.1795-26.016-5.5104-42.272 4.1244-8.2023-5.6955 24.11 26.89 67.049 35.838 30.228 12.381-42.59-27.704-84.767-1.7144-120.54-10.998-39.778 49.337-13.166 42.699-35.39-25.136-21.616 34.706 5.8212 6.6553-25.268-35.843-11.952-62.801-84.328-2.3424-65.71 18.974 4.9002-18.024-16.208 11.795-14.025-33.246-23.801 34.867 11.663 6.1235-17.357-21.353-17.358-7.6873-20.29-29.714-46.042 9.7766-10.673 31.256-49.606 24.123-8.3422-9.0056 28.888 3.6696 21.755 14.911 47.94 1.0688 7.7886 53.226 43.103 11.015 61.166-28.803 14.015-13.145 49.076-13.863 61.197-27.014-47.619 4.094 36.369-5.4185 52.28 16.559-8.5798 47.857 22.204 9.3595 22.827-36.134-2.9683-10.98 70.166-33.592 26.085-12.242-49.114-43.429 37.597-17.406 53.169 9.6204 27.912 26.218 46.997 30.597 9.415 12.093 13.336-1.3087-44.428 10.717-6.2049 10.352 38.382 3.9948 96.236-48.358 86.777-17.722 29.576 16.658 102.3-43.077 102.3-59.608-16.594-38.38 90.078-93.782 71.889-31.171 1.2084-36.98 51.679-76.367 49.802-37.581 10.073-24.745 82.667-78.324 61.512-30.456 0.1413-29.267 49.807-56.38 55.242zm-64.67-124.28c43.068-26.583-34.747-76.906-30.395-115.67-26.62 15.675-33.539 50.6-2.1339 58.251 8.5263 19.258 13.566 46.645 32.529 57.417zm-137.48-218.42c-25.053 7.8867-18.654-58.458-9.3761-16.815 35.777-6.3837 15.347-92.836 40.749-84.799-4.3981 25.999-3.0007 40.042 15.38 40.939 3.2705 20.476 22.069 48.692 24.768 11.282 20.074-29.02-21.863-56.606-19.614-83.928 19.656 25.256 37.215 71.495 37.96 96.041-16.698 16.229-32.22 26.022-49.175-0.72295-13.826 11.64-21.514 34.219-40.692 38.004zm417.49-555.95c-15.719-15.438 17.376-27.299 20.153-50.411 13.32-21.186 52.454-36.293 28.746 0.46122-2.8304 36.141-14.841 41.433-48.899 49.95z" fill="#484848"/>
  <g fill="#212121">
   <path d="m628.9 1161.3c-31.478-7.669-52.791-34.909-76.779-54.588-18.757 5.5885-40.635 12.844-49.744-12.676-14.771-21.52-30.249-54.232-62.312-42.346-11.659-4.3042 23.772-5.517 26.377-14.682 27.657-14.884 11.154 24.418 28.106 35.628 7.4942 18.204 20.562 47.311 40.35 25.236 14.385-10.364 29.938-14.986 27.71 6.237 8.6278 16.776 32.637 45.216 32.142 22.335 10.398 30.948 54.712 35.37 52.506-4.2728 4.7678-21.522 17.035-56.232 43.92-38.137 10.148 6.9386 35.925 19.053 33.484 16.447-24.67-1.1055-59.255-10.526-68.176 24.186-8.4117 11.864-11.33 33.248-27.584 36.633zm93.568-73.304c-3.7982-19.491 2.3097-54.93-18.834-24.436-20.016-2.6123-31.15-24.676-46.299-34.774-8.3609-10.858-15.019-34.86 3.2861-15.284 17.474 6.1831 25.213 51.253 43.31 36.805 11.034-21.307 21.141-49.62 8.32-74.484-3.1053-23.558-31.936-48.832-40.609-16.756-24.368-14.942 10.465-56.653-2.3951-69.69-4.2564-7.2108 22.394-33.75 19.818-13.809 8.6842-24.348 9.4447 25.19 14.244 34.429 2.1749 24.473 38.799 36.599 53.912 27.586 3.2567-20.336-7.706-50.245-1.2836-64.977 15.46-5.4346 18.245 40.253 33.844 12.823 5.503-15.099 21.977-25.011 7.8853-4.0115-14.481 30.393 26.233 39.66 42.563 51.246-22.335 9.1395-44.072-28.654-66.501-18.343-8.9919 15.662-0.13862 46.542-30.476 39.392-16.923 1.2202-28.89 5.8374-14.148 21.614 15.025 12.515-2.027 34.347-2.0112 47.602-6.8335 4.2247-2.8869 38.397-2.1503 35.98-2.6404-31.739 24.971-52.453 52.012-33.698 35.686 15.138 14.079-32.197 23.046-37.88 7.5617-2.3894 14.084-28.04 29.919-10.081 19.986 17.466 50.214 14.969 49.966-16.817 5.8334-19.372-0.60326-40.278 16.116-52.962 13.469-14.931 42.474 16.876 54.184-0.1404 5.9933 1.8661-0.81801-14.765 8.514 0.66667 1.4495-9.1444 1.7668-49.204 6.1169-20.65 12.806 15.265-15.288 43.944-39.594 35.758-32.899-4.7496-39.009 30.414-48.677 53.246-8.0014 30.837-37.037 18.66-56.021 9.6864-16.63 15.063-7.3242 56.167-42.7 45.257-27.415-9.9268-44.01 9.3328-44.676 35.653-2.8847 6.8698-2.004 18.354-10.683 21.049zm-91.778-69.333c-21.912-21.199-20.722-57.349 2.3678-76.748 12.999-30.173 17.415 12.125 29.574 22.844 14.819 20.862-15.954 21.16-23.423 10.7-4.1535 14.761-5.5256 29.098-8.5186 43.204zm62.76-154.71c-8.8965-15.459 13.676-42.456 3.2501-63.885 0.54317-13.921-9.204-22.193-18.279-15.628-6.546-16.582-23.376-10.583-21.987-30.539-18.777 6.5191-43.473 9.1545-67.096 6.4783-13.035-11.887-13.809 24.278-16.146 11.693 10.12-15.468-13.728-20.237-20.588-21.706-2.0903-12.999-8.5758-21.407-16.677-7.0846-9.4934-15.552-28.246-59.424 5.6427-39.967 8.1199 12.559 20.161 16.812 23.483-1.6732 21.719-6.1524 37.837-29.044 60.284-15.032-5.4506 0.75444-24.17 4.7859-5.6241 6.0623 20.585-9.6767 35.915 7.2218 43.35 23.071 8.8635-14.833 32.592-25.893 46.775-28.447-16.703 18.356 1.6181 43.04-7.8628 62.502-7.7688 10.214-6.019 28.617 1.4053 8.2238 10.772-24.445 26.822-49.882 21.653-77.587-4.1484-27.77 24.51-46.421 25.746-74.169 6.7199-19.554 1.416 23.816 8.5655 30.915 1.1593 14.933-3.282 40.912-23.312 29.018-13.014 18.369 12.564 27.216 18.55 13.795 22.889 16.16 27.988 45.137 31.162 71.552-0.47204 12.406 30.314 17.147 27.112 18.158 2.4519-21.207 5.7595-47.58 14.96-64.7 8.8926-8.5513 37.808-1.6259 12.69 8.3231-25.883 13.511-13.72 48.286-26.839 70.882-17.953 0.8179-29.335-9.8178-41.089-11.423-0.65211 17.136-9.1101 22.007-21.612 17.948-17.672 15.81-2.3336-28.806-3.9602-39.187 3.3979-17.26 1.8825-33.45-9.7197-14.726-16.457 16.288-8.9495 45.304-5.108 58.15-27.28 1.771-14.009 45.248-35.236 48.76-3.0511 6.3854-1.6399 13.635-3.4914 20.221zm200.15-26.633c-18.676-11.906-2.1516-17.117 10.734-18.308 7.5545-19.847 16.286-55.064 23.687-65.46-1.0085 31.645 49.393 18.206 37.101-10.233 0.68879-13.381-2.1767-59.012 6.3452-24.143 6.7433 20.864 13.601 43.476-2.8002 61.271-15.903 13.215-41.345-1.2813-50.667 25.428-5.5989 12.937-13.303 18.849-24.401 31.445z"/>
   <path d="m454.47 400.59c18.833 14.331 35.558 9.1739 35.558 9.1739s22.994-25.203 4.6602-26.641c-18.334-1.4382-51.196 2.324-51.196 2.324z" stroke="#000" stroke-width="1px"/>
   <path d="m734.87 403.25c-18.833 14.331-35.558 9.1739-35.558 9.1739s-22.994-25.203-4.6602-26.641c18.334-1.4382 51.196 2.324 51.196 2.324z" stroke="#000" stroke-width="1px"/>
  </g>
 </g>
</svg>
