<?xml version="1.0" encoding="UTF-8"?>
<!-- Created with Inkscape (http://www.inkscape.org/) -->
<svg width="128mm" height="128mm" version="1.1" viewBox="-13 0 128 128" xml:space="preserve" xmlns="http://www.w3.org/2000/svg"><g><rect x="14.285" y="12.041" width="62.394" height="78.096" fill="#fff" stroke-dashoffset="10.834" stroke-linecap="round" stroke-linejoin="round" stroke-miterlimit="25.8" stroke-width=".030165" style="paint-order:fill markers stroke"/><path d="m44.135 127.11-1.0337-0.70686-0.49166 0.30705-0.49166 0.30704-1.6522-0.8544-1.3222-1.404-1.1845-2.527 0.11999-1.2501 0.11999-1.25-1.9379 2.249h-1.2921l-0.48343 1.2715-0.59188 0.3658-1.2782-0.3208-1.1179-1.1842-0.37105-0.70794-0.37105-0.70795-0.41495-2.467-0.41495-2.4671-0.25532-0.87716-0.38328-0.14707-0.38328-0.14708-1.2814 1.1713-0.86949 2.7319-0.40245 0.15444-0.40245 0.15443-1.1195-0.59914-2.5991-2.4312-1.34-2.6444-0.98841-2.8729v-2.8276h-0.79375v2.3165l-0.7409 0.61489-1.2173-0.30651-1.2173-0.30652-1.5644-1.7817-0.81646-2.7494v-0.63291l-0.4266-0.35404-0.4266-0.35405 0.32865-2.7963h-0.25845l-1.0798 2.1166h-0.44809l-1.4383-2.1734-1.2778-3.3949v-1.8237l-1.424-0.91093-1.424-0.91094-0.66305-0.88313-0.66305-0.88314-1.3431-2.6836-0.44961-1.7009-0.4496-1.7009-0.19442-1.9001-0.19443-1.9001-1.7189-2.5497 0.33358-10.237 1.1025-3.2568-0.386-4.2334 0.0028-2.956 1.1215-2.5352v-3.3828l1.3229-3.2557v-2.9645l2.3812-5.6509 0.0052-1.7444 1.2427-2.6458 1.1333-1.0081v-1.955l1.5782-2.3286 0.32915-1.7003-1.1136-1.8018v-2.7327l-0.84399-1.9674-1.0081-3.5652 0.0062-2.5202 0.70854-2.6458 1.626-3.175 1.5479-1.6648 1.7198-0.88932 3.7842-0.0917 3.8897 1.9547 4.3124-2.0242 1.0583-1.1774 1.8521-1.0305 3.4396-2.3504 3.8887-0.0024 1.4829-1.5875h1.3566l0.57996-1.0837 1.2569-0.47788 5.596-0.6025 2.6363 0.67567 3.3109-1.1628 1.5111 0.0054 3.1554 0.81766 5.9985-0.1562 2.5641 1.8237 2.3812 1.6164 3.9688 1.5272 3.7316 1.7037 1.8246 1.5875 2.6458 0.63184 3.7028 2.4867 2.7794 3.8946v1.8637l0.5295 0.85674 0.52949 0.85674 0.27131 3.3412 0.27132 3.3412-0.73714 1.4562-0.17851 0.98615-0.17851 0.98614-1.8304 2.3979 0.0125 0.19615 0.0125 0.19614 2.9188 2.3358 2.2478 1.4255 3.1428 3.5169 2.2469 1.0579 1.5958 2.203-0.076 1.8963 1.7622 3.9688 0.09 8.0977 1.6801 2.3395 0.70516 1.5283 0.70515 1.5283-0.0344 3.4396-0.37992 1.5875 1.1265 2.6247 0.29116 5.5774-0.29244 2.5136-0.29244 2.5135-1.4875 5.0865-2.4809 3.3003v0.52282l-3.7879 5.6425-2.4278 3.175-7.675 7.8723-3.175 2.4149-3.1932 2.942-6.3318 4.4337-2.1167 1.4465-0.79931 0.40882-0.79932 0.40881-4.6694 0.80579-2.0292 1.3428-1.5814 2.2984-2.1204 0.95616-1.7594-0.27192-1.1906-0.38148v1.9002l-1.5612 0.80734-0.95232 8e-3 -1.3229 0.77398-2.1167 1.0129-2.9104 0.33734zm-14.264-21.848-0.13896-0.34727-0.04178 1.0142 0.15985-0.15985 0.15985-0.15986zm-5.0314-28.437-0.17639-0.17639v0.70556l0.35278-0.35278zm-3.7042-8.9958-0.17639-0.17639-0.35278 0.35278h0.70556zm0.61736-2.9662v-0.23219l-0.79375-0.65875v-0.70214l-0.8599-0.80593-0.8599-0.80594-0.66146-2e-3v0.28158l0.74492 1.7828 2.0238 1.3752h0.40633zm6.4225-4.2781 0.73395-0.34292 0.29418-1.3645 1.0169-2.1166 0.46758-3.4396-0.76426-2.2792 0.08178-0.84259 0.08178-0.84258 0.92564-0.1754 1.3947 1.0971h0.92264l0.83658-3.3304 0.29786-3.286 1.0162-1.718 1.4182-2.9104 0.0826-0.66146 0.08261-0.66146 0.37726-3.084 0.42388 0.12289 0.42388 0.1229 0.88743 0.36642-0.30186-1.1543 0.73734-0.4669 0.66146-8e-3v0.79375h0.52917v-0.42334l-0.57328-0.57328 1.0236-0.98776 0.60798-1.7988v-0.4502h-1.5875v-1.2917l-0.57527-0.35554-0.29445 0.29445-0.29445 0.29444h-1.3805l-0.82374 0.66146-1.0833 2.1167-1.1958 2.6458-0.90386 1.4308-0.90387 1.4308 0.60647 1.3311-1.601 1.601-0.16001-0.16002-0.16001-0.16001-0.09088-2.3481 1.4321-2.0672 0.88583-3.9688 0.24228-1.6485-1.5865-1.1297h-0.81312l-0.29809 0.48232 0.43956 0.76589 0.43956 0.7659-0.17008 0.67766-0.17008 0.67767-1.5346 1.5254-2.0448 3.1059-0.92471 1.392 0.70556 0.52916-1.0563 3.3434-1.2733-0.31957-0.81752 2.0812-0.79737 0.15948-0.79736 0.15947h-1.7426l-2.6885-2.7027-0.7771 0.2982 0.83842 2.0066 0.3286 0.46914 0.3286 0.46915 1.948 2.1054h1.5349l0.16352 0.26459 0.16352 0.26458h0.46042l0.6042-2.9104h1.0039l0.78946-1.4552 0.02118 0.7121-0.76764 1.4046-1.3089 3.9688-0.37444 2.0423 0.59274 0.36634-1.5598 1.8247-0.0215 0.84152-0.79141 1.5838-0.79141 1.5837 0.09004 3.267 1.8897 8e-3 0.79375 0.54862 3.4396-0.22619zm2.6142-18.919 0.09141-0.47157 0.712-0.23708-0.09142 0.47157-0.09141 0.47156-0.356 0.11855-0.356 0.11854zm-10.314 15.863-0.08622-0.76402-0.18922-0.1892-0.59007 0.36468 0.56399 0.67957-0.17902 0.46651-0.17902 0.46652 0.37289-0.13001 0.37289-0.13zm27.9-11.561 1.3554-0.38589 1.6855-1.2461-0.51274-0.171-2.9476 0.8569-0.15279 0.24723-0.1528 0.24723h-1.1858l-0.635 0.635v0.48502l1.1906-0.28256zm-28.963-0.0817-0.60515-0.42387-0.17366 0.17367-0.17366 0.17366 0.77842 0.49229 0.7792 8e-3zm3.354-4.0414 0.3531-0.22383-0.60612-0.1585-0.60612-0.15851-0.10419 0.1042-0.1042 0.10419 0.1744 0.28219 0.1744 0.28218 0.36564-8e-3zm26.502-3.6045v-0.1323h-0.26458v0.26459h0.26458zm-8.4667-0.62045v-0.48816l-1.0583-0.95778v1.2991l0.635 0.635h0.42333zm-15.134-0.88768 0.3175-0.3175v-0.9525h0.69397l1.2746-1.1875 1.8679-0.98332 0.24014-0.22631 0.24014-0.2263-0.67166-0.80931 0.31856-1.2692-0.36796-0.30538-0.36796-0.30539-2.3017-0.0896-0.46302 0.21598-0.46302 0.21597v-0.78557l0.80654-0.66936-0.13631-0.13632-0.13631-0.13631-0.79612 0.83307-0.79612 0.83306-0.0116 0.93086-0.99122 2.1828h-1.4901l-0.74663 1.1245h-1.2272l-0.37666 0.60944 0.9297 0.67982 2.171-0.0986 0.3492-1.3229 0.86424 1.9674v0.54616h0.9525zm24.262-1.27 0.16352-0.26458h-0.26458l-0.16352 0.26458-0.16353 0.26458h0.26459zm-5.424-2.1341v-0.28198l-0.55572-1.0384-0.50262 0.31063v1.2917h1.0583zm-23.019-1.1576v-0.38126l-0.4926-0.30444-0.33238 0.5378 0.16352 0.26458 0.16352 0.26459h0.49794zm22.49-0.77696v-0.0999l-0.46302-0.36312-0.46302-0.36313 0.72625 0.92604h0.1998zm-19.243-2.1479 0.46822-0.64366-1.5716-0.81271h-0.29086v1.0931l0.54778 1.0235 0.37826-0.016zm1.3915-1.2042 0.1712-0.27701-1.0468-2.2241-1.1197-1.011-0.16672 0.16671-0.16672 0.16672 1.1911 2.7942 0.53332 0.66146h0.43314zm1.7896-1.6412 0.71214-0.33073 0.0042-0.36564-0.49259-0.30444-1.4368 1.3315h0.50094zm11.097-1.4012-0.11732-0.61374 0.42432-0.60581 0.42432-0.6058v-0.95921l-0.92604-1.4205-0.3298 3.1589-0.37408 2.9104 1.0159-1.2505zm15.813 0.87458v-0.20094h-0.51055l-0.57935 1.0825 0.54495-0.34033 0.54495-0.34032zm-32.808 0.19593v-0.13229h-0.26458v0.26459h0.26458zm43.972-0.77445 0.97699-0.033 0.32796-0.32796-1.6852-0.84067-0.76141 0.44978-0.76141 0.44977v0.73627l0.92604-0.40118zm-14.764-0.74996 0.27413-0.43458-0.42142-0.42142-0.37524 0.51317-0.37525 0.51317v0.47213l0.62366-0.20789zm-20.924-0.555-0.04981-0.69871h0.4702l0.51577 0.92163 0.19728-0.19727 0.19728-0.19728-0.60778-0.64695-0.60778-0.64696 0.34066-0.88774-0.6535-0.78742-0.0085-0.55341-0.0085-0.5534-1.4252-0.80273-0.33981 0.3398 0.88346 2.0274 0.24234 0.45943 0.24234 0.45944v0.27176h-0.79375v1.077l0.86742 1.3238 0.58779-0.20963zm-4.7115-0.52977-0.48067-0.89255-1.3286-0.56133-1.3286-0.56134-0.12556 0.1264 0.60556 0.70354 0.60556 0.70355 1.5605 0.80697 0.69832 0.84143 0.27421-0.2742zm2.3715 0.29408-0.1828-0.8599-1.2922-2.8557-0.25254 0.25255-0.25255 0.25254 1.3271 3.2661v0.80427h0.8358zm-10.443 0.46302v-0.13229h-0.26458v0.26458h0.26458zm22.49-0.52917v-0.13227h-0.26458v0.26459h0.26458zm-2.8438-1.9227-0.04812-1.2523-0.33823-2.5537-0.767 1.4784 0.3237 1.2897-0.34607 0.21949-0.34607 0.21948-0.27828 8e-3 -1.0446-2.3762-0.33073-2e-3 -0.33073-3e-3v1.8209l0.52917 0.32704v1.8901l0.93344-0.15148 0.93344-0.15147 0.63341 1.0142 0.52482-0.52482zm14.882 1.2612 0.16353-0.26459h-0.26459l-0.16352 0.26459-0.16352 0.26458h0.26458zm-20.157-1.2568-0.16478-0.46302-0.21956-0.4055-0.52707 0.32575 0.91024 1.0058h0.16596zm21.314-0.2301 0.31581-0.69313-0.85455 0.32792h-0.2213v1.0583h0.44423zm-10.408-1.2251-0.18451-0.59532-0.28356-1.1906h-0.48058l-0.51607 1.3574v0.23014h0.81036l0.1523 0.39687 0.1523 0.39688h0.53427zm7.6423 0.016 0.40579-0.57935-0.12459-0.12458-0.12458-0.12459-1.0616 0.96072v0.44715h0.49916zm18.931 0.0605 0.38921-0.24615-0.35873-0.35873-0.40828 0.15668-0.40829 0.15667v0.54578l0.39688-8e-3zm-22.557-1.2324-0.1763-0.17629-0.80071 0.66453 0.16069 0.25999 0.16068 0.26 0.83193-0.83193zm-27.044 0.42828-0.16352-0.26458h-0.49794v0.52917h0.82498zm18.83-0.97014-0.17639-0.17639v0.70556l0.35278-0.35278zm-15.427-0.22048 0.1523-0.39688h-1.0417v0.44097l0.35278 0.35278h0.38436zm46.586 0.13884 0.67869-0.25804v0.51607h0.47962l-0.13838-0.52916-0.13838-0.52917h-0.1238l-0.83323 0.29047-0.83323 0.29046v0.4774h0.23013zm-50.121-0.66801v-0.13229h-0.26458v0.26458h0.26458zm13.494-0.11668v-0.24896l-0.56437-0.34881-0.14118 0.14119-0.14118 0.14118 0.1744 0.28219 0.1744 0.28218h0.49794zm-6.6644-0.61396 0.08858-0.45998h-1.3617v0.2213l0.16558 0.4315 0.16558 0.43151 0.85338-0.1644zm9.9731 0.0676 0.48036-0.53079-0.38003-0.38003-2.0859-0.0136-1.41e-4 0.06413-1.4e-4 0.0641 1.1538 1.3269h0.35172zm-18.125-0.42356v-0.36857h-1.3229v0.42334l0.59365 0.59364 0.72927-0.27984zm23.813-0.23677 0.57263-0.92653-0.18216-0.5465-0.87045 0.67977-0.35611 1.7198h0.26347zm30.427 0.52966v-0.13229h-0.26458v0.26458h0.26458zm-42.332-1.175 0.0017-0.14787 1.5383-0.8751 0.52503-0.98102-1.0442-1.2896 0.35788 1.4259h-0.74528l-0.62618-0.62618-0.40569 0.43404 0.66146 0.23624v0.81847l-2.36-0.266 0.83862 1.6524 0.56748 0.70924 0.6893-0.94267zm31.484 0.51359v-0.26458h-0.23336l-0.16352 0.26458-0.16352 0.26459h0.5604zm5.5562-0.82614v-0.49677l-0.39688 0.0168-1.0046 0.76038 0.33895 0.40841 0.33894 0.4084 0.72355-0.60048zm-45.516-0.19435-0.0073-0.43471-1.4405-1.3709-0.79375-0.35472-1.5875-1.0138-0.92604-0.03868v0.4356l2.7171 2.2102h0.9871v0.97014l0.31632 0.31632 0.74202-0.28474zm5.5636 0.22674v-0.26458h-0.52917v0.52917h0.52917zm11.797-0.92232 0.16125-0.64247-0.21339-0.64016-1.1612 1.2464v1.2418l1.0521-0.56306zm-2.0048 0.12433 0.28547-0.53341-1.2138-0.45855-0.41057 0.24214-0.56724-1.6272h-0.6686l0.26856 1.4049-1.1357-0.29699v0.75731l1.3596 0.51693 1.2862-0.32281v0.85112h0.51055zm32.038-0.42315 0.3547-0.42739-0.99764 0.19332-0.22024 0.66146h0.50847zm-13.188-0.35468 0.99219-0.38256v-0.38592l-1.6947 0.48603-0.40942 0.4317-0.40943 0.4317 0.52917-0.19838zm4.1096-0.23538 0.11854-0.356-0.94314 0.18282-0.23708 0.712 0.94313-0.18282zm-12.201-0.21727-0.17639-0.17639-0.35278 0.35278h0.70556zm-22.401-0.22053v-0.13229h-0.26458v0.26458h0.26458zm8.6273-1.8737-0.1606-0.41852-0.016-0.88276-0.51392 0.88056 0.32204 0.83923h0.52917zm17.238-0.7923-0.16508-0.16509-0.56437 0.3488v0.87591l0.89454-0.89454z" fill="#bababa"/><path d="m44.138 126.71-1.2528-0.82983-0.30067 0.30067-0.30067 0.30066h-0.9119l-1.6541-1.3918-1.2969-2.5593v-2.928h-0.75059l-0.5561 0.89979-0.5561 0.89978-0.41316 0.15855-0.41316 0.15854h-0.95086l-0.65756 1.5875h-0.87639l-1.1832-0.82871-1.0458-2.05-0.83964-4.9265-0.7655-1.1906h-0.72293l-1.1202 0.92604-1.231 3.175-0.97159-0.176-2.5532-2.153-1.3202-2.2528-1.329-3.6844v-2.9221l-0.72927-0.27985-0.59365 0.59365v2.2754l-0.66146 0.0586-1.3229-0.1136-0.68831-0.35583-0.68831-0.35584-0.41935-0.64001-0.41935-0.64002-0.86076-2.848-0.84777-1.7274 0.57919-2.506-0.46882-0.47975-0.949 1.71-0.66146 0.88642-0.85403-1.0583-1.2347-2.6458-0.54865-2.3812-0.14074-0.72439-0.14074-0.72438-2.012-1.0264-1.9297-2.136-1.3025-2.5703-0.89921-3.4018-0.1962-1.9183-0.1962-1.9182-1.5255-2.2489 0.0038-6.35 0.30277-5.0271 0.86243-1.6518 0.0579-3.9045-0.57242-1.8521 0.34942-2.3812 1.0554-2.3812-0.0871-2.9982 1.3351-3.5471v-2.8451l2.177-5.1617 0.20005-1.4745 0.20005-1.4746 0.67446-1.2842 0.75547-0.96412 0.75547-0.96411 0.0136-1.7759 1.8385-2.8859v-1.4984l-0.46302-0.70632-0.46302-0.70633-0.34884-3.4636-1.4079-3.9688-0.28956-2.6606 0.61678-2.971 1.8554-3.6288 1.6527-1.7098 1.7552-0.57928 3.0667-0.09214 4.0469 1.997 3.8694-1.7065 2.3235-2.0103h0.65446l0.68308-0.82307 3.5135-2.0874h3.765l1.5875-1.5875h0.93779l1.3794-1.3215 3.0535-0.56447 4.0628-0.03818 1.9439 0.38983 2.9708-1.1115h1.6185l2.9735 0.86442 5.2158-0.2874 1.4172 0.40832 4.3503 3.1187 4.6456 1.8211 3.4396 1.6894 1.0192 1.129 2.9496 0.83568 2.3812 1.3367 2.0359 1.9163 2.0651 3.0137v1.6376l0.54884 1.0758 0.54883 1.0758 0.46136 6.1174-0.24879 0.46485-0.24878 0.46485-0.57684 2.6897-1.8075 2.1635v0.64276l2.7782 2.3952 1.3229 0.7011 5.1078 4.9421h0.77796l2.1841 2.3694v1.0389l-0.27699 0.17118-0.27698 0.17119 0.4948 0.83862 0.4948 0.83863 1.4457 4.1865-0.1608 6.922 2.2492 3.175 0.52867 1.5148 0.52868 1.5147v1.96l-0.64614 1.7869 0.63491 1.7703 0.6349 1.7703-4e-3 8.2038-1.4283 5.7442-0.84046 1.6642-0.95494 1.0583-2.2311 3.9489-3.905 5.612-8.5898 9.0669-3.0886 2.3927-3.5259 3.1145-5.8304 4.1753-3.5207 2.284-4.4073 0.81239-0.79375 0.28062-0.79375 0.28061-3.7391 3.8408-1.9993 0.37507-2.0104-0.6635-0.28412 0.17559-0.28411 0.1756 0.14643 0.73216 0.14643 0.73217-0.7279 0.60411-2.2617 0.50817-1.9508 1.3333-3.1399 0.56746h-0.34126zm-1.7483-8.8274v-0.1323h-0.26458v0.26459h0.26458zm-7.5406-0.66146 0.16352-0.26459h-0.5604v0.52917h0.23335zm0.78611-2.4474 0.49107-1.1245 0.77411-1.1999 0.72683 0.60322v-0.85855h-0.73714l-0.3212-0.83702v-1.6815l-1.107-0.6913 0.16164-0.64404 0.16164-0.64403h-0.57523l0.10168 4.6302-0.42972 0.98369-0.42972 0.98368v1.6045h0.69191zm-2.4223-1.7716 0.22446-1.135-0.56382-0.56382-0.28984 0.28984-0.33032 2.789 0.73505-0.24502zm4.5731 0.62065-0.17121-0.44615-0.26458 0.26458 0.34241 0.89231 0.26458-0.26458zm-11.223-0.69232-0.31309-0.31309v0.5468l0.35278 0.35278 0.2734-0.2734zm12.68-3.0515 0.27998-0.7276 0.22613-2.249h-0.47864l-1.6435 1.5352v1.1454l0.54778 1.0235h0.78823zm-10.347-0.4598v-0.36242l1.9086-2.022-0.16375-1.3968-0.16375-1.3967 1.7684-2.7644 0.18378-0.73222 0.18378-0.73223-0.54525-1.0188-1.5535 0.54155-0.31234 0.37635-0.31234 0.37634h-1.0101l-0.1523-0.39687-0.1523-0.39688h-0.72643l-1.627 2.7782 0.30666 3.2932-0.61648 0.98714 0.51898 0.92737 0.67602-1.7681 1.0728-2.3812 0.1125 0.32086 0.1125 0.32085-1.1205 4.084 0.65602 1.6242 0.53394 0.36196 0.42214-0.2609zm-4.6835-0.53239-0.4416-0.92604h-0.39993l-0.31781 0.51422 0.8766 1.3379h0.72433zm11.739-2.6899-0.17639-0.17639v0.70556l0.35278-0.35278zm-17.186-2.34 0.57074-0.39976 0.08344-0.72472 0.08344-0.72471 0.42996 0.0702 0.42996 0.0701 0.91116-1.3906-0.22424-1.5278h0.43752v0.59396l0.3692-0.30641 0.3692-0.3064 0.33658-1.7009 0.91772-0.91331 0.91772-0.9133v-0.93388l-1.945-1.945-0.96541 1.1922-0.0082 1.3966-0.19438 0.28389-0.19439 0.28388-0.85187 0.31321-0.61096 2.4264h-1.853l-0.8832-1.8521h-0.42098l-0.24418 1.1906-0.32437 2.0127 0.8136 2.7986 1.1062 1.4063h0.37302zm4.3095-2.3412v-0.32844l2.6458-2.9686v-0.59327l0.78891-0.30273 0.31143-1.0394 0.31142-1.0394-0.61453-0.61453-1.5238 1.4599-1.9616 4.331-0.36874 0.69048-0.36874 0.69047 0.16222 0.16223 0.16222 0.16222 0.45536-0.28143zm11.178-4.0721 0.41012-0.99218-0.109-2.5-0.37176-0.37176-0.77145 1.0197-0.0084 0.48833-0.0084 0.48832-1.0889 1.5292 0.95657 1.314 0.58109 0.016zm-21.372-1.5875 0.18203-0.7276 2.4355-2.2702-1.162-1.162-0.91401 0.57655-1.1813 3.3849-0.014 0.92604h0.4718zm19.615-2.9187 0.17033-0.85163h-0.81785l-0.17292 0.7873-0.17292 0.78729 0.18176 0.29409 0.18176 0.2941 0.45952-0.45952zm-13.276-0.70295 0.68067-1.4388-0.06138-1.7526-0.121 0.46302-0.121 0.46303h-0.47678l-0.73662 1.4552-0.17078 0.94496-0.17078 0.94497 0.17952 0.17951 0.17952 0.17952h0.13796zm-6.9901-0.81772 0.33548-1.1982-0.16241-0.1624-0.16241-0.16241-0.7195 0.59713-0.04162 1.062-0.04162 1.0621h0.45659zm5.1062 0.0416 0.47897-1.0172-0.16898-0.16897-0.16898-0.16898-0.91565 0.99915-0.91565 0.99914 0.33544 0.54276 0.87588-0.1686zm11.192 0.42898 0.35148-0.46302 0.0108-1.5875-1.0389-0.49761-1.0389-0.49762-0.39474 0.15148-0.39474 0.15147-0.36538 2.4366 0.40078 0.37243 0.23624-0.66146h0.88695l0.66094 1.0583h0.33405zm-3.3359-3.1088v-0.13229h-0.26458v0.26458h0.26458zm-16.984-0.80075-0.14811-0.14811-0.36131 0.94886 0.65753-0.65264zm7.0746-0.24556 0.64943-0.64943v-0.78657l-0.24734-0.15286-0.24734-0.15287-1.2793 1.7297-0.37388 0.66146h0.84903zm6.1218-0.98767-0.13896-0.34727-0.04178 1.0142 0.15985-0.15986 0.15985-0.15985zm-15.102-0.93707-0.15985-0.15985-0.15879 0.15878-0.15879 0.15879 0.41445 0.6706 0.11141-0.33423 0.11141-0.33424zm20.305-0.98923 0.14904-0.3884-0.50606-0.31276-0.52917 0.32705v0.76252h0.73714zm-20.082-0.42794-0.15489-0.25062-0.50123 0.30978 0.15489 0.25062 0.15489 0.25061 0.50123-0.30978zm14.825-0.83697 0.6748 0.129 0.288 0.46598h0.46113l0.1691-1.1366 0.91181-0.57152 0.77348 1.0466 0.41413-0.98369 0.41413-0.98368v-1.3399h0.49038l1.3792-3.0125-0.27418-0.7145-0.98512 0.52722-0.59187-0.59187-2.1555 0.0844-0.77119 0.3988-0.77119 0.39879-1.8767 1.9324v0.3832l0.39981 0.33181 0.39981 0.33182-0.46596 0.34593-0.46596 0.34592 0.33073 0.54169 0.33073 0.5417v1.0343l-0.52917 0.32704v1.1448l0.77488-1.1063zm1.0812-2.8165-0.14615-0.23648 0.79734-1.9083h0.49084l0.33301 0.53882-0.56934 0.92122-0.56934 0.92121h-0.1902zm2.1434-0.46908-0.17639-0.17639v-0.869l0.71127-0.97272-0.03303 0.95103-0.03302 0.95103-0.29244 0.29244zm-5.9972 3.616v-0.26458h-0.5604l0.32704 0.52916h0.23335zm-7.1543-1.8521-0.0071-0.39688-1.0407 1.2492 0.0034 1.132 1.0514-1.5875zm-3.9582-0.0156v-0.24897h-0.52917v0.82498l0.52917-0.32704zm7.4083-2.5195v-0.33647l-0.38768-0.0856-0.38768-0.0855 1.5691-2.512-0.0041-0.5961-0.0041-0.59609-0.38877-0.59014-1.1344-0.35372 0.03804-0.85099 0.03804-0.85098h-0.74965l-0.25689 0.77068-0.25689 0.77067 0.94115 0.68819-0.34327 2.5045 0.17162 1.6752 0.17163 1.6752 0.98377-0.8903zm13.749 0.70046 0.27389-0.51178v-1.3577l0.5604-0.5604 0.5604-0.56039-0.72392-0.45861-1.134-8e-3 -0.36758 0.92604-0.25366 3.0428h0.81059zm-9.782-2.89 0.0017-0.35903-0.83703 0.3212h-0.2213l0.0017 0.99218 0.0017 0.99219 1.0514-1.5875zm-6.3483 1.4174v-0.13229h-0.26458v0.26459h0.26458zm-3.4396-0.80936v-0.41249l-0.52917 0.32704v0.49794h0.52917zm2.1167-1.0972v-0.38653l-0.66146 0.21784-0.18312 1.2561 0.84457-0.70093zm8.4156-0.67248 0.08119-0.41849-1.1283-0.35811-0.357 0.38534 0.66146 0.23624v0.79375l0.66146-0.22024zm-9.4739-4.2846v-0.38126l-0.52917-0.32704v-1.7785l2.9513-2.6304-0.60032-0.2001 0.34239-0.89226 2.8192-1.5911 0.16377-0.26499 0.16377-0.265-0.53882-0.53881-0.53882-0.53882h-1.0061l-1.1417-1.9351 3.038-2.8274h0.76649l-0.29288 1.8048 0.13848 0.13847 0.13847 0.13848 0.15552 2.2838 0.34556 1.3272-2.6664 3.4354-0.0024 0.23945-0.0024 0.23944 1.0981-0.99381 0.86803-1.4694h0.54737l-0.0288 5.1594-0.67341 1.232 0.28872 0.7524h1.2122l0.33047-0.52917 0.33047-0.52916h2.1122v-0.43588l-1.2568-0.37737-1.2568-0.37738v-1.3229l0.60988-0.0864 0.60988-0.0865 0.70056 0.58141 4.2843 0.33038 0.348-0.90686-0.67924-1.2692 0.65265-0.7864-0.35026-1.1036-2.023-1.277-0.84778-1.6994 0.11952-0.11953 0.11952-0.11952 1.7476 1.0591 4.4979 0.0644 1.8561-0.6663 2.1753-2.1793 0.37234-2.98h0.42689l0.71918-1.7198-0.07607-0.23791-0.07607-0.23792 0.3869-0.84708 0.03628-1.2598 0.39688-0.19934 0.39688-0.19933 1.4298-0.66632 0.33341-1.644 0.29688-0.92605 0.29688-0.92604 0.42114-0.50271 0.0014-0.80697 0.0014-0.80698 0.46163-0.68596 0.46163-0.68595 1.1559-1.7537-0.27658-2.4306 0.98738-2.1755 2.2344 1.9828v0.58956h0.59088l-0.13445-0.51413-0.13445-0.51414 1.0009-0.90583v-0.74296l0.39714 0.24544 0.68248-0.57013 0.68248-0.57012 0.60869-1.0132 0.6087-1.0132-0.13202-1.6446-0.13201-1.6446-0.44775-0.86585-0.44774-0.86585 0.0822-0.51989 0.0822-0.5199 2.6052 2.3986h0.45411l0.16575-0.43193 0.16574-0.43192-0.61268-0.98106v-0.80093h0.58779l-1.2321-0.99768 0.66422-0.80033-1.2804-1.0072 0.32868-0.4495 0.32868-0.44949h1.1323v0.79375h0.52916v0.79375h0.83525l2.0244-2.0447 0.81503-1.5272 1.7493-1.8521 1.0263-0.83832 1.0263-0.83831-0.17144-0.68304-0.17143-0.68304-0.91596 6.5e-4 -3.8837 3.1744h-0.74652v-0.52764l1.887-2.0887 1.7282-0.57034 1.0136-0.51675 1.0136-0.51674 0.0757-0.7102 0.0757-0.71021 0.68856-0.43676 1.1024-0.0082 0.16225 0.16226 0.16226 0.16226-0.41586 1.0393-0.41587 1.0394 0.14824 0.14823 0.14823 0.14824 1.225-0.0288 4.3656-0.35767 0.074-0.32888 0.1276-2.1166-0.49906-0.62287-1.8193 0.29523 0.012-0.7307 1.0348-1.3229 0.012-0.42007-0.92604 0.15548 0.1222-0.63108-2.5972 0.02012-1.602-0.35186-0.16212-0.51078-0.16211-0.51078h-0.98208l-0.7479 0.62221-0.74791 0.62221-2.1167 1.3188-3.5432 1.1746-1.3794 1.085-0.33116-0.33116 2.6104-2.5073 3.2916-1.7438 0.40347-0.57604 0.40348-0.57604v-0.93051l-1.1906-0.22972-3.4396-0.76126-1.9489 1.1046-0.37127-0.37127 0.33772-0.81532 0.33771-0.81532 2.6753-2.6197h-1.3489l-1.7983 1.5842-0.85784 0.86153-0.85785 0.86153-4e-3 0.86125-0.79375 0.65875v1.2566l-1.7776 1.9859-2.2915 4.1968-0.21336-0.64006 0.63148-2.6323 0.476-0.29418v-1.2915l0.92604-0.0168 0.84472-0.64463 0.87507-1.6935v-0.4652l-1.1906 0.04202-0.16272-2.249h-1.0888l-1.7912 1.9555v0.49971l0.82497 0.60323-0.52773 1.388-2.017-0.02714-2.1167-1.9599-1.2879-0.85763-1.3579 0.33802 0.65732-0.79847-1.293-0.58915-3.0936 2.0658-0.9829 1.0861h-0.9577l-0.56687 1.0592-1.944 0.81226-0.96793 1.0389h-1.2711l-0.32704 0.52917h0.82498v0.79375h-0.56987l-1.4839-1.4839-3.571-1.758-3.4314 0.5686-1.0151 0.91867-1.1244 1.8193 0.87691 0.49074v0.7788l1.2648 0.57628 0.71958 1.3968 1.3679 1.3229 0.10981 0.26458 0.10981 0.26459 0.77568 0.39687 0.77567 0.39688 0.01808 0.26458 0.01807 0.26458-0.59531 0.0846-0.59531 0.0845v0.26257l0.53812 1.0055-1.2913 0.84612-1.5118-0.27946-1.5118-0.27947-0.64866-0.53834 0.12834 0.6714 0.12834 0.67139 0.55574 0.38925 0.55574 0.38926h2.2635v0.52916h-1.9989l-1.1761 0.82376v0.98505l0.1606 0.41851 0.1606 0.41852h0.9803l1.212-1.2327 2.2936-0.71879 0.50327 0.31429 0.50327 0.3143h2.3698l0.54778 1.0235v0.63589l-2.4602-0.33721-0.36526-0.30313-0.36526-0.30314-1.3072 0.59562 0.0028 0.40822 2.128 0.1212 0.52212 0.27943 0.52212 0.27944v0.52715l-0.92604 0.28949-1.5875 0.81962-1.8759 1.4579-2.9934 0.66989-1.613 2.0072v0.62634l1.7198-0.34271 0.17638-0.51718 2.734 8e-3 -0.79375 0.51296-1.9844 8e-3v0.81237l-0.8235 1.2568 3.1062-0.28166 1.6861 0.8719v0.74773l-2.5135 0.3307-2.1167 0.85742-0.25135 0.21591-0.25135 0.2159h1.364l0.31976 0.38528 0.31976 0.38529-0.17185 0.27805-0.17185 0.27806-1.6109 0.83305-1.2054-0.30253-0.63343 0.76324 0.34396 1.0837h0.58413l0.88444 0.80041-0.75156 2.9508 0.29764 0.29764 3.3153-2.0146 0.43994-0.24011-0.06289 0.49195-0.06289 0.49194 0.61188 1.4897v0.85402l-0.63547 1.7574h-1.1982l-1.8705 1.6423v0.73893h1.0583v1.3144l0.95115-0.45358 0.95115-0.45357 0.68756 0.9403-0.27514 1.0522-2.0486 1.9413-0.16532 0.5415-0.16532 0.54151-1.6927 2.1167-0.42726 0.72062 0.36334 0.22455 0.36334 0.22456-0.8423 0.68235-1.1521 1.935-3.6861 2.9782-0.12068 0.58612-0.12068 0.58611-0.19684 1.6872 1.3588-1.0108 1.3229-1.0614 0.4015-0.012-0.34164 3.0428-0.5215 1.0583 0.69977-0.66146h0.68792v0.79375h0.79375zm-0.74143-5.2347 0.07997-1.3826 1.3052-0.64794 0.21786 0.21786-1.1262 2.3958v0.79952h-0.55682zm4.4456-13.822v-0.38757l1.1037-0.59066 0.30421 0.30422-0.48036 0.53079-0.48036 0.53078h-0.44715zm3.8726-0.5396-0.16847-0.43903v-2.0734h0.23013l1.3371 0.50836-0.5784 1.7406-0.65188 0.70249zm-5.4601-6.7301v-0.24897l0.5571-0.3443-0.10996-0.30648-0.10996-0.30649 0.69784-1.3838 0.87155-0.40938 0.87155-0.40937 1.0034-0.1786 0.11973 0.343 0.11973 0.34299-3.3596 3.1393-0.66146 0.012zm10.517-2.079-0.7276-0.0885v-0.52728l0.93354 0.1582 1.7428-1.241 0.12446 0.12446 0.12446 0.12447-0.50338 1.324-0.96664 0.21412zm-8.1359-2.3023v-0.13229h0.26458v0.26458h-0.26458zm4.1086-0.22632-0.49043-0.35861 0.32212-0.83944 0.67574-0.44277 0.67574-0.44276 3.4395-0.27609v-0.22692l-0.27389-0.51177-0.27389-0.51178h0.94557l1.2437 2.3444-0.18354 0.29697-0.18354 0.29696-0.30648-0.11118-0.30648-0.11119-1.4661 0.84412-1.0403-0.64968h-0.71892l-0.47889 0.52917-0.47889 0.52916h-0.6106zm-3.8001-4.6357-0.35291-0.22371 0.73936-0.28372 0.71084 0.13588 0.71084 0.13589v0.46747l-1.4552-8e-3zm2.0066-1.5381-0.46302-0.121v-0.49037h1.8209l0.29277 0.47372-0.417 0.16002-0.417 0.16001-0.3536-0.0614zm2.0505-0.61137 0.16352-0.26458h0.49794v0.52917h-0.82498zm23.349-0.35236-0.19844-0.48466v-1.3855l0.28386 0.28385 0.28386 0.28386-0.17084 1.7871zm-24.672-0.63558-1.3229-0.42192 2.3812-0.44613 1.4491 0.30921 0.16922 0.27381 0.16922 0.2738-0.72925 0.46191-0.79375-0.0288zm17.859-4.8197v-0.7806l0.80954-0.45305-0.81664-1.9545h0.69971l0.88776 0.66146 0.32721 1.6665-1.568 1.6408h-0.33959zm10.319-1.7329v-0.13229h0.26458v0.26458h-0.26458zm-1.7051-1.4552 0.17439-0.66146 0.71751-0.7554 0.1591 0.41461 0.15911 0.41461 0.46441-0.12145 0.46442-0.12145 0.67834 0.81735-1.3856 0.63135-0.37608-0.50752-0.37607-0.50751-0.85387 1.0583zm-23.421-3.4222-0.27389-0.51177v-0.31157l0.66146 0.4334 0.66146 0.43341v0.46831h-0.77513zm22.48 0.26609v-0.24568l0.41577-0.41578 0.41577-0.41577h0.58361l-1.2428 1.3229h-0.17234zm-3.175-0.56368v-0.2802l0.26458 0.16352 0.26458 0.16353v0.23335h-0.52917zm7.4083-1.513v-0.20573l0.90304-1.2893 0.0115-0.671 0.0115-0.67101 1.3861-0.52917 1.3861-0.52916 6e-3 -0.73113 2.1604 0.28977 0.28626 0.28626-0.32252 0.84047-1.7694 0.73928-0.35566 0.42855-0.35567 0.42855-1.3704 0.90966-1.3704 0.90965h-0.60668zm-1.4552-1.6464 0.16352-0.26459h0.52917l-0.16352 0.26459-0.16353 0.26458h-0.52916zm-2.5135-0.36815v-0.19581l0.58614-1.0952-0.68994 0.17317-0.68994 0.17316v-0.29575l1.0098-1.9633 2.3959-2.4874 2.6797-1.3579-6e-3 0.67037-3.9634 4.2321v1.0997l-0.66146 0.62141-0.66146 0.6214zm-23.482-0.72063-0.8599-0.55069v-0.72869l1.4379 0.54668 0.6788 0.56335v0.72896l-0.39688-8e-3zm-3.2411-2.2812-0.66146-0.12293-0.26458-0.39647-1.5544-0.50929-0.18832-0.56496 1.7427-0.265 0.39688 0.2328v1.0271h0.2213l0.83703 0.3212v-0.89446l0.61617 0.20539 0.77129 1.1616-1.2552-0.07206zm23.548-1.4936v-0.39688l0.52917-0.32704v0.79375l-0.52916 0.32704zm14.023-0.03123v-0.13229h0.26459v0.26458h-0.26459zm-26.37-1.8962 0.17639-0.17639 0.35278 0.35278h-0.70556zm2.1572-0.35852-0.16795-0.27175 0.34216-1.5578 1.8097-0.33951 0.93003 0.35843-1.8521 1.5647-0.89393 0.51769zm10.984-0.20806v-0.51517l0.81618-0.67737 0.55636 0.55636-0.18732 0.98225-1.1852 0.1691zm-14.7 60.564 0.14817-0.23974 1.0578 0.27662v-1.0888l-0.60944-0.37666-0.58118 0.7751-0.92604 0.34747v0.54578h0.76252zm-18.368-1.4861 0.3344-0.40293-0.8686 0.33331v0.47255h0.19978zm35.449-5.9471v-0.26458h-0.52917v0.52916h0.52917zm-27.89-2.5777-0.12108-0.12108-0.56437 0.3488v0.56273l0.80654-0.66937zm-6.5063 0.0642v-0.13229h-0.26458v0.26458h0.26458zm3.175-3.193v-0.37886h-0.49076l-1.0967 1.3943v0.49384l1.5875-1.1304zm24.727 1.0443 0.42837-0.16438 0.79229-1.8962-0.15691-0.7144-0.15691-0.71441 0.56015-0.34619v-1.1858l0.52426-0.52426-0.40203-0.57397-0.40203-0.57398-0.92134-0.17284-0.92134-0.17285-0.78795 0.65394v0.82715l0.57422 0.61123 0.57422 0.61124-1.2645 3.7863-0.47115 0.12321-0.47115 0.1232v0.46745h2.0734zm-29.754-2.0846 0.32938-0.39688 0.86125-8e-3 3.0427-2.824v-0.6076h-0.27593l-1.0527 0.69662-1.0527 0.69661v0.45885h-0.7276l-0.30176-1.5088 0.31869-1.2693-1.1414 1.008v1.5055h-0.97339l-0.61411 1.3478v0.94524l0.35278 0.35278h0.90534zm36.424-1.8962-0.17639-0.17638v0.70555l0.35278-0.35278zm0.19213-0.95037 0.29294-0.4653-0.81143-1.4506-0.58647-0.0846-0.58647-0.0845v1.2542l0.66146 1.4354 0.73703-0.1392zm-32.648-2.9081 7.16e-4 -0.19844h-0.47435l-1.6423 1.8705 0.01128 0.45381 0.01128 0.45382 2.0926-2.3812zm-2.3805 0.19844v-0.1323h-0.26458v0.26459h0.26458zm-1.0676-0.90865 0.27389-0.51177v-1.0931h-0.41507l-0.90784 1.5369v0.57981h0.77513zm68.272 0.37948v-0.13229h-0.26459v0.26458h0.26459zm-28.943-0.59531 0.35149-0.46302 8e-3 -0.47566 8e-3 -0.47565 0.70009-0.64883 0.70009-0.64882h0.38581l0.4128-0.8599 0.41281-0.85989 3.5672-2.3812 0.0971-0.29913 0.0971-0.29912-1.9282-0.36174-0.87293 0.7751-1.0583 0.28941-1.0583 0.2894-1.3476 2e-3 -0.61168 0.46302-0.61169 0.46302-0.89733 0.75502-0.89734 0.75501v1.0359l1.2118-0.18173 1.2118-0.18172-0.33586 2.58-0.12289 0.59531-0.12289 0.59532h0.34862zm-33.629-0.59694 0.48036-0.53079-0.16336-0.16335-0.16336-0.16336-0.37157 0.14259-0.37157 0.14258-0.28847 1.1031h0.39761zm-3.0442-0.13067v-0.13229h-0.26458v0.26458h0.26458zm66.674-1.6536-1e-3 -0.46302-1.188-1.4168-1.3996 0.14776-1.3996 0.14775 0.0774 0.23209 0.0774 0.23208 3.1736 1.5426 0.66146 0.0406zm-68.444-0.88013 0.14583-0.55764-1.0091 0.91318 0.14434 0.23353 0.14434 0.23354 0.42873-0.26497zm46.075-1.069 0.25135-0.23367-0.58243-0.58242-2.0369 0.65715-0.695 0.1862 0.17252 0.27915 0.17252 0.27914 2.4666-0.3518zm-11.779-1.7959 0.54718-0.76845-0.0084-0.75291-0.0084-0.7529-0.79116-1.0466-0.91181 0.57152-0.1569 1.2689-0.56896 1.4557 0.65836 0.79327h0.69292zm30.621-1.26-0.17639-0.17639v0.70556l0.35278-0.35278zm-63.809-0.35278-0.16352-0.26458h-0.52917l0.16352 0.26458 0.16352 0.26459h0.52917zm40.13-0.43788 0.48385-0.43788v-0.94509l-0.22037-0.13619-0.22037-0.1362-1.9233 0.90262-9e-3 0.41892-9e-3 0.41893 0.17639 0.17639 0.17639 0.17638h1.0608zm21.651-0.88503v-0.26459l-1.9844 0.0528 1.3229 0.42367 0.66146 0.0528zm-59.734-2.0022 0.15014-0.15013-0.532-1.9487-0.19644-0.2077-0.80654 0.66937v0.46437h0.85112l-0.16602 0.66146-0.16602 0.66145h0.71564zm39.487-0.63396 0.15756-0.25494-0.53882-0.53881-0.53882-0.53882v-0.52917h1.2929l0.71928-1.0269-0.14775-1.2725-0.14774-1.2725-2.0342 0.1226-0.50272-0.26904-0.50271-0.26905v-1.0397h-0.79375v0.53635l0.64246 1.0287-0.55275 0.60652-0.55275 0.60651-0.2967 0.57615-0.2967 0.57614 0.30396 0.79212 1.7435-0.28294 0.42554 0.68855-0.3445 0.11484-0.3445 0.11483-0.99219 0.99219v0.50017l2.5135 0.1982 0.63023 0.0954zm20.048-2.1227 0.99219-4e-3v-0.79375h-3.6394l-0.62485 0.7529 0.61075 0.12209 0.61076 0.1221 1.0583-0.1962zm1.5214-1.5911v-0.52917h-0.30239l-0.37797 0.37798-0.37798 0.37797v0.30238h1.0583zm-1.8916-0.55505 0.83323-0.29047v-0.4774h-0.99371l-0.95835 0.40043-0.95835 0.40042v0.25748h1.244zm-10.103-0.15051-0.17639-0.17639-0.17639 0.17639-0.17638 0.17639h0.70555zm-45.443-3.5278h0.72789l-0.04234-0.59532-0.04234-0.59531-1.5737-0.158-0.95084 1.0507 0.36995 0.59858 0.39175-0.15033 0.39175-0.15032zm39.337-0.59532 0.62803-0.59531 0.01-1.1278 1.8159-1.3851 1.4914-0.59263 2.6458-0.67242-2.1167-0.0528-2.3812 0.74064-1.9561 0.83641-0.28444-0.46024 1.2165-0.94775 1.2165-0.94774 1.2267-0.43644 1.2267-0.43643 0.36674-0.10865 0.36675-0.10864-0.46621-0.51515-0.4662-0.51515 4.1677-1.9044 1.474-0.2992 0.51546-0.96314-2.4096-1.4121-2.2257 0.35524-1.1906 0.7792v0.78155h0.55546l-0.23999 0.42885-0.23999 0.42884-3.1182 1.7565-3.7875 1.9018-1.917 2.3395 0.16627 0.66249 0.16627 0.66248 0.89153 0.52601 0.89152 0.52602 0.16953 0.67542 0.16952 0.67543h0.79409zm-2.0087-3.4901v-0.38126l0.47982-0.29654-0.13848 0.52953-0.13847 0.52953h-0.20287zm-39.728 1.5856 0.09141-0.47156-0.712 0.23708-0.09141 0.47157-0.09141 0.47156 0.712-0.23708zm66.054-0.78545v-0.7717l-0.33073-0.11024-0.33072-0.11025v0.81156l-0.86805 0.48578 0.19441 0.31455 0.1944 0.31456 1.1407-0.1626zm-10.22-0.84887 0.82683-0.16536v-0.46302h-1.8088l-0.83703 0.32119v0.47256h0.99219zm-3.1826-0.51683 1.4959-0.41762 1.5875-0.70006 1.0523-0.1906 0.1664-0.86398-0.84061-0.59856-0.84061-0.59857-2.2474 0.034-1.5234 0.79754-2.2527 1.9416 0.16125 0.2609 0.16124 0.2609 1.1365 0.45854 0.44772 0.0336zm6.1261-1.822v-0.65215l-1.0531-0.56358 0.0635-0.30712 0.0635-0.30711-0.81342-0.1808 0.0323 0.97232 0.0323 0.97233 0.98232 0.71829h0.69261zm-2.2209-2.3683 0.14374-0.37458 1.0386-0.71974 1.0386-0.71973v-0.88054l0.635-0.635h0.93388l0.54723-1.0225 0.52944-0.16804 0.52945-0.16804v-1.5418l-1.323-0.33207-2.1267 0.85094-2.096 1.3231h-0.3257l-1.581 1.1258 0.27508 1.0519-0.59004 0.9448 1.548 1.6401h0.67978zm-55.591-0.68375-0.16352-0.26459-1.6886 0.0696 1.8521 0.38985 0.16352 0.0696zm2.5135-0.66977v-0.40518l-0.81657-0.31334-0.31717 0.31716 0.66937 0.80654h0.46437zm-3.4396-1.299v-0.38126l-0.56437-0.34881-0.14738 0.14738-0.14738 0.14737 0.31335 0.81658h0.54577zm67.469-1.3385v-0.13229h-0.26458v0.26459h0.26458zm-67.866-0.52916v-0.26459l-1.1906-0.169v-0.46113l0.26458-0.16353 0.26458-0.16352-0.0084-0.4474-0.0084-0.44741-0.77692 1.0272v1.1336l0.3751 0.3751 1.0801-0.1546zm54.574-0.65244 0.72387-0.78472 2.6458-1.8653 3.108-1.6329-0.59446-0.59447-3.1099 0.64234-2.4833 1.3204-2.0797 1.6713v1.0046l0.27389 0.51178 0.2739 0.51177h0.51801zm9.5874-2.258v-0.13229h-0.26459v0.26458h0.26459zm-39.158-6.4029v-0.71438l-0.59943 0.59943 0.31824 0.82932h0.28119zm-0.26458-1.4023v-0.26458h-0.52917v0.52917h0.52917zm1.8521-0.66146v-0.13229h-0.26458v0.26458h0.26458zm4.1705-1.4552-0.07491-0.39687-1.1876-0.1694-0.32142 0.8376 0.63349 0.76331 1.0253-0.63776z" fill="#898989"/><path d="m44.12 126.49-1.0087-0.80165h-0.42517l-0.16352 0.26459-0.16352 0.26458h-0.95574l-1.3947-1.097-1.4082-2.4029-0.04666-3.2386-0.42045-0.0816-0.42045-0.0815-1.4156 2.139h-1.626l-0.59921 1.5875h-0.98303l-0.74845-0.74845-0.74845-0.74846-0.56552-2.0482-0.61812-4.2273-0.63551-0.63551-0.63551-0.63552-0.90251 0.36294-0.66146 0.27043v-2.142l0.53718-0.332 0.37936-0.90795 0.37937-0.90795h0.51513l0.61428-1.8613 1.5947-0.82463-0.33641-1.1505-0.297-1.6198 1.1094-1.8198 0.001978 2.2802 0.46036-0.28452 0.73912-1.4609 0.73913-1.4608h0.57838l0.658 2.1084v1.8774l-0.39688 0.94986-0.39688 0.94985v1.7518l-1.0383 0.32956-0.51271-0.27439-0.51271-0.2744-0.1626 0.42374-0.1626 0.42373-0.31522 4.6608 0.924 2.4194h0.40066l0.16683-0.43474 0.16683-0.43475 0.19221 0.19182 0.19221 0.19181 0.53422 1.8987 0.6564 0.2188v-0.9966l0.45958-0.50271 0.47723-1.282 0.47723-1.2819 0.35976 0.68663 0.35976 0.68664h0.43025l0.79533-0.92604 0.35128-0.98564 0.35014 0.29059 0.35014 0.2906 0.68355 2.0712-0.81515 1.1638 0.50929 1.4609 1.5616 1.4961v-1.1704l0.66471-0.25273 0.66471-0.25272 0.5889-1.2925-0.18162-1.2111-0.18162-1.2112h-0.46551l-0.34431 0.5571-0.4001-0.1602-3.2556-3.6837v-0.6819h0.79375l0.0084-0.19844 0.0084-0.19843 0.38019-0.50229 0.38019-0.50228 0.77339 0.64186 0.24922-0.48011 0.24922-0.4801 0.36616-2.5236-2.3344-3.5618-0.30966-0.87632 0.96793-0.87597-0.26643-2.2165-0.77474-2.7782h-0.48411l-1.3541 2.0462 1.1076 3.2006 0.05094 1.9407 0.05095 1.9407-0.51768 0.8599-0.51768 0.85989h-0.67963l0.01931-0.7276 0.01932-0.7276 0.41758-2.9104-0.26335-0.70082-1.2004 0.30127-0.51121-1.4525-1.3073-1.3229-0.54855-1.0087 1.647-1.7309 0.69169 0.57406 0.63903-0.63844 0.58785-3.2412-0.12911-0.49372-0.12911-0.49373-0.96609 0.8743-0.24403-1.25-0.44242-2.6458-0.93312 0.1572-0.15706-0.40929-0.15706-0.40928h-0.89588l-0.635-0.635-0.66146 0.66139-0.03186 7.9946-1.1046 0.40862-0.34996 0.56625h-0.46228l-0.3359-1.0583-0.6258 4e-3 -2.3768 3.8319-0.4247 3.7042-0.28766 3.336-0.61504-0.1976-1.0341-1.8998-1.0341-1.8999h-0.4454l-0.03846 0.72761-0.03846 0.7276 0.06057 0.92604 0.06058 0.92604 1.3353 3.0078 0.36857 0.14143 0.36857 0.14144 0.0046 0.67806 1.8623 1.9647 1.1483 0.80432-1.0486 3.2782-0.57084 0.1902-2.8606-2.3302-1.4663-2.694-1.0376-3.0159v-2.7898l-0.41577-0.41577-0.41577-0.41578h-0.18898l-0.41577 0.41578-0.41577 0.41577v2.0955l-0.3776 0.1449-0.3776 0.14489-2.3822-1.0538-0.83108-1.6071-0.74752-2.87-0.32975-0.52801-0.32975-0.52802 0.5711-2.8476-0.47472-0.49021-1.0225 0.92534-0.64172 1.5492-0.33268-0.016-0.47438-0.65183-0.47438-0.65184-1.3002-3.4543v-1.6102l-0.27343-0.5109-0.27343-0.51091-2.0168-1.0289-1.6707-1.9028-1.2753-2.5166-0.8754-3.0113-0.42554-4.2212-1.7361-2.7055 0.36722-10.321 1.0898-2.9126-0.1816-2.1614-0.1816-2.1613-0.0186-2.956 1.1215-2.5352v-3.3828l1.3229-3.2557v-2.9645l2.3812-5.6509 0.0116-1.7444 0.96489-2.1167 0.70237-0.83195 0.70237-0.83194 0.0022-1.7757 1.5834-2.3812 0.32163-1.7003-1.1136-1.8018v-2.7327l-0.84399-1.9674-1.061-3.7042 0.2801-3.8814 1.9227-4.0561 1.422-1.5024 1.565-0.81689 3.7266-0.06191 3.7047 1.896 0.79325-0.24693 3.4396-1.5833 1.8521-1.5772 4.8789-3.1187h4.1497l1.1737-1.5875h1.2687l1.0661-1.3553 3.6026-0.53206 2.8685-0.42916 1.7447 0.72899h1.3662l0.79483-0.41103 0.79484-0.41102 2.5374-0.30052 3.6519 0.92031 5.0271-0.33444 1.695 0.93357 3.8612 2.6493 3.9688 1.5279 3.3848 1.5198 1.9588 1.7696 2.0355 0.38186 2.613 1.3241 2.5538 2.3888 1.6093 2.5078v1.7433l1.0912 1.7656 0.24634 3.2454 0.24635 3.2454-0.37672 1.0624-0.37671 1.0624-0.14887 0.70045-0.14886 0.70044-1.8556 2.221v0.67941l2.7781 2.3634 2.1167 1.3542 1.9844 2.0175 1.9844 2.0176 1.0583 0.51748 1.0583 0.51749 1.1958 1.7679-0.16165 0.80821-0.16164 0.80821 0.84714 1.2929 0.67045 1.9648 0.67044 1.9648-0.1212 7.2016 1.6993 2.1456 0.7124 1.5441 0.71239 1.5441-0.0214 3.4396-0.41508 1.4548 0.62612 1.5215 0.62612 1.5216-0.0228 4.3656-0.0227 4.3656-1.1651 4.7625-0.59288 1.5875-1.9641 2.6642-1.2043 2.3629-3.4326 5.0271-1.9142 2.3697-7.6729 8.0491-2.6458 1.9841-3.7962 3.3686-3.6121 2.6206-5.0271 3.363-0.54472 0.28334-0.54472 0.28333-4.5613 0.79617-0.79498 0.4111-0.79497 0.41109-2.7775 3.1554-1.4793 0.61274-1.7317-0.29875-1.7198-0.34976v2.1581l-0.46302 0.23663-0.46302 0.23662-0.81829 0.15463-0.81828 0.15462-2.5968 1.5679-3.2146 0.32985zm6.6591-22.564-0.11466-0.59532v2.3812l0.22932-1.1906zm-31.68 0.92604 0.82924-0.46302 0.29722-1.4282 0.53243-0.47655 0.53243-0.47654 0.5942 0.98878 0.8779 1.1262 0.26453-0.6606 0.26453-0.66059 0.63453-1.7027 3.3972-3.8536 0.60026-1.9912-1.2364-1.3161h1.0583l0.52644-0.59532 0.52644-0.59531 0.85295-1.3778 0.17876-0.95286 0.17876-0.95285-1.5096-0.33134-0.66146-0.23615-0.66146-0.23616-1.3229-0.23118-0.92604-0.36844-0.76476 0.29346 0.53302 1.7475 0.68902 2.5352 1.0765 1.169-1.5275 1.4824 0.16546-0.4312 0.16546-0.43119-0.76387-0.73958-0.76387-0.73959-1.2462-1.3898h-0.35587l-1.5517 3.5719-1.1889 1.7598-0.3232 1.0183h-0.46863l-0.26191-0.94855-0.26191-0.94856 0.44824-1.179 2.432-4.3967v-0.81058l1.298-2.7437 0.6864-0.55772 1.0016-0.1892 0.21086-0.39688 0.21086-0.39687 1.3679-3.1354 0.56104 0.56104-0.41939 0.81102-0.41939 0.81101v1.6138h1.1937l0.74542-1.7198 0.97125-1.262v-1.586l1.1906-1.9146 0.17866 1.5714-0.67358 2.041 0.67195 0.41529-1.1031 0.28846v1.0776l-1.0831 1.8358 0.50621 0.31286 0.4154-0.15941 0.4154-0.1594 1.1122-1.7996h0.61921l1.2394-2.3364 0.6366-0.15978 0.6366-0.15977v-0.74039l-0.3212-0.83703h-1.7955v-3.3576l-1.104-0.99912-6.4366-0.1256-1.642 0.52892-1.2284 1.3076h-0.93486l-0.17068-0.27618-0.17068-0.27617 0.68527-0.8257 1.2124-0.46094-9.92e-4 -0.20499-9.91e-4 -0.20498-2.4939-1.0583-0.40377-0.1728-0.90252 1.8926h-0.96033v-0.33922l1.9608-2.5712h1.2142v-0.51055l-1.0583-0.5664v-0.43684l2.5135-0.31121 1.6332-0.34049 0.83664 0.83664-0.59383 1.5732 0.37074 0.37073 1.2793-0.58286 0.15632-0.49254 0.15632-0.49253 0.90986-0.32902 0.90986-0.32901 1.0456 0.65296 0.41836-0.34721 0.41836-0.3472 0.0084-0.95979 0.0084-0.9598 0.74171-0.97903 0.56018 0.34622 0.91657-0.51294 0.90817 0.48604 1.4867-1.3079-1.5875 0.012-3.7042 0.67294-1.8521 0.95922-1.9282 1.515h-0.63414l-1.3362-1.0511 0.72361-0.1996 1.5843-0.48072 0.14388-0.78793 0.14388-0.78794-0.48597-1.5875-0.70655-1.6998-2.1348-1.0891v-0.51841h0.68792l0.55843 0.55842 3.913 0.1406 4.3656-1.8202v-0.73096h2.0728l1.2712-0.54491 1.2712-0.5449 1.2056 0.5493v0.84316l-1.3732 2.3432h0.52083l0.6217-0.50343 0.6217-0.50342 0.0058-2.5773 1.1906-1.5143v-0.51395l1.5875-2.0044v-0.56669l-1.1037-0.59066 0.354-0.354h0.61736l0.17482-1.2343-0.77355-0.8824-0.91296-3.7042-0.73727-1.4289v-1.8011l1.2732-1.3738 0.64285-2.0108 0.23262-0.25136 0.23262-0.25135v-1.2171h0.42333l0.635 0.635v2.1832l-1.3229 1.2428v0.63671l-0.39688 0.32938-0.39688 0.32937v2.027l0.6141 1.3478h0.42561l0.54778-1.0235v-0.90354l1.5827-1.5125h0.56326l1.377-3.0078-0.53974-1.8871-0.35642-0.8282 1.2097-1.3122 0.9968-1.4523 0.99681-1.4523 0.16648-1.7828 0.16649-1.7828 0.98071 0.88754v0.95836l-0.86513 1.8142 0.1795 0.71517 0.17949 0.71517 1.3449-0.33754-0.83872 1.1974v0.82334l4.6046 0.62789 0.10952-0.10952 0.10952-0.10953-0.27533-0.78982-0.27534-0.78983 1.4155-0.95448 1.0583-0.64516 1.1906-0.53879v-0.51103l-0.52917-0.32704v-1.2917h-0.46747l-0.12613-0.65978-0.12612-0.65978 0.36583-0.30362 0.36584-0.30361-0.14766-0.46523-0.14765-0.46522 1.4131-1.1115h0.62626l1.0402-0.94246 1.0402-0.94245 0.98165-0.51276 0.98165-0.51275h1.8984l1.3026 1.4056 1.4502-0.68158 5.0728 0.096 0.35808-0.43145 0.35807-0.43146-0.31705-0.50768-0.31706-0.50768h1.0442l0.2739-0.51177 0.27389-0.51178v-1.571l1.9844-1.6211-1.0208-0.018-1.6907 0.61136-0.9927-0.38753 2.249-1.3359v-0.46468l2.1167-1.0798v-0.51841h0.73714l0.13305-0.34675 0.13306-0.34674 1.0504-0.31472 1.0504-0.31471h1.098l0.34765 0.56251-0.85894 0.94912 0.40355 0.33491 0.40355 0.33492v1.438l2.1326 0.7038 0.61945-0.61945-0.31053-0.85972-0.31053-0.85973 0.14833-0.56595 0.14833-0.56596-0.68109-1.0215-0.68108-1.0215-1.9915-1.3198-2.2292-2.2521h-1.0243l-3.0556-1.6074-1.4898 0.51934-2.314 1.5921-2.1901 0.8763v1.2355l-0.47921 0.34573-0.47922 0.34573-0.37362 0.62571 0.65147 1.4731 0.65146 1.4731h0.82287v1.2347l-0.35406 0.35406-2.4218-2.5148-0.049-2.8654-1.4799-1.18 0.17218-0.68604 0.17219-0.68604-0.33247-0.53236-0.33246-0.53236h-4.3837l-0.23776-0.62537-0.23777-0.62537-0.87757-0.33675h-0.95026l-0.69222-0.83408 0.75972-0.48073 2.3812-0.02242 1.9844-1.8449-0.016-0.38975-0.71156-0.93779-1.2782 0.48599-1.5049 2.1716h-2.468l-0.635-0.635v-0.66948l2.3951-2.2951-1.9402-0.92522-3.233-0.29438-2.9104 1.1147-1.2259 2.67e-4 -1.8368 1.401 0.15232 1.0422-0.59531 0.39815-0.59598 0.3975v-1.5315l1.596-1.9362-0.40534-0.22717-2.6458-0.08354-2.7073 0.56164-1.2214 1.3001h-0.99592l-1.5202 1.6644-3.3866-0.34696-3.1332 2.0308-0.72625 0.88504h-0.71054l-1.7382 1.487-2.0677 1.1901-2.028 0.69869-4.2096-2.0988-3.5203 0.54807-1.1945 0.78269-2.0422 3.0767-0.48383 1.4573-0.48383 1.4573-0.0198 2.998 0.55778 1.0422 1.3369 0.33554v0.51908h-0.76252l-0.31365 0.5075 0.8725 2.6675h0.74945l0.31596 0.82338-1.1263 1.0493v0.70177l1.1223 1.4268-0.30504 1.8797-1.5828 2.4332 0.56573 0.68166h0.76776l-0.08858 0.45999-0.08858 0.45998-1.0523 0.193-0.98235 0.87141-0.99716 1.9538 0.14377 0.37466 0.14377 0.37465-1.3507 3.5146-1.3601 3.538-0.23724 3.1298-0.51929 0.97031v1.1067l0.79375-0.41047 0.79375-0.41046v0.51782l-2.1167 1.701v2.0571l-1.086 2.384 0.15998 2.4276 0.92029 0.57703 0.87467-1.2488 0.50718 0.90628 1.5343-1.47v-1.8721l3.5576-3.5852h0.67565v0.87236l-2.3114 4.287-0.17311 0.73116-0.17311 0.73115-0.60569-0.15201-0.60569-0.15202-0.31419 0.61149-0.31419 0.61148-1.7649 2.3812h-0.47959l-0.85877-1.8187-0.38415 3.5872-0.35918 0.85965-0.35918 0.85964-0.33 8.9476 0.67107-0.73183 0.67107-0.73182 0.55467-2.0599 1.8631-1.6358h0.30703l-0.92355 1.4095-1.0314 1.7481 0.33781 0.54658h1.2605l0.16352-0.26458 0.16352-0.26459h1.5563v-0.52764l1.9027-2.1061-0.58036-0.93904-0.58036-0.93905 0.83461-1.2738 1.7806-1.3582h0.67159l-0.37689 2.5135-0.5104 0.95378 0.16576 0.80958 1.7198-3.0016v-0.91172l1.5719-1.5059 0.17406 0.45358 0.17406 0.45359-0.33638 2.4542-1.0016 1.0883-0.19236 1.0583-0.65421 0.0662-0.48507 0.0662-0.74965 2.249h-0.55035l-2.216 2.8035-1.1187-0.35508-1.4392 1.7634-0.8152-0.67656-0.34064-1.5509h-0.41467l-0.34013 3.3073-0.33292 3.114 0.67945 3.7652 1.8663 3.6242 0.83301 0.23933 1.5021 0.76897 0.48232-0.29808v0.80702l0.37373 0.86887 0.37373 0.86888 0.66376 3.175 0.78742 1.5875 1.0763 1.4558 1.1095-2.2037 0.88185-0.55625 0.33336 0.33336-0.24556 1.6225-0.24557 1.6225 1.032 3.8113 1.0955 1.1906h0.65862zm3.7116-6.0193v-0.1323h0.26458v0.26459h-0.26458zm0.39688-0.66146 0.16352-0.26459h0.26458l-0.16352 0.26459-0.16352 0.26458h-0.26458zm-9.9219-1.8521v-0.35278l0.35278 0.35278-0.17639 0.17638-0.17639 0.17639zm3.4396-2.0064v-0.68351l0.66146 0.21784 0.1691 1.1492h-0.83055zm-2.2301-3.1718-0.41577-0.41577v-0.51765l0.74347-1.4289 1.4218-1.3229 0.49799-0.92379-1.4315-2.9236-0.74288-0.61654-0.46012 0.74449-1.1435 3.5562-0.496 0.44888-0.496 0.44887-0.8261-0.6856-0.30629 0.30629-0.30629 0.30628h-0.42333v-1.9907l3.6786-3.9624 1.2162-2.0254 1.5875-2.4726 0.52917 0.1494-0.18076 4.2887 0.65204 2.3288 1.1305 0.90593 1.1764 1.6692-0.0084 0.35604-0.0084 0.35603-1.2808 1.4552h-0.55455l-0.0083-0.72761-0.0083-0.7276-1.1936 2.4343-1.5129 1.4021h-0.4141zm-4.2333-1.3229-0.17694-0.705 0.22679-0.22678 0.35389 1.41-0.11339 0.11339-0.11339 0.1134zm-2.9008-4.4129 0.16711-1.1245 0.98602-2.296 0.3352 0.11503 0.3352 0.11504-0.0037 1.4299-0.0037 1.4298-1.0509 1.4386-0.9323 0.016zm13.897-0.0243-0.29468-0.35507 0.17409-0.1741 0.17409-0.17409h0.70556v1.0583h-0.46437zm1.8214-1.034 0.0041-0.33073 0.22746-0.35898 0.22746-0.35897 0.16622 0.26895 0.16622 0.26896-0.32292 0.8415h-0.4726zm-14.556-3.5058v-0.13229h0.26458v0.26458h-0.26458zm4.2333-0.13229v-0.35278l0.35278 0.35278-0.35278 0.35278zm5.645-0.70928 0.15804-0.97387 0.87719-0.83039-0.16725 0.71593-0.16725 0.71594-0.25592 0.67313-0.25592 0.67312h-0.34692zm-8.82 0.0152v-0.1771l2.249-2.4401 1.4304-1.8481 0.01242 0.43877 0.01243 0.43877-2.3373 2.8692-1.3669 0.89562zm6.0854-5.9379v-0.54656l0.54778-1.0235h0.69312l0.87576 0.9677v0.34162l-1.5612 0.80734h-0.55544zm4.1672-4.1337-0.46302-0.121v-0.49036h0.99758l1.7805 0.77303-1.8521-0.0406zm-12.898-4.2716v-0.24697l2.0792-1.8784 0.29263-0.54679 0.29263-0.54678h0.54047l-0.45914 0.77727-0.45914 0.77726-1.1433 0.9557-1.1433 0.95569zm6.4062-4.0623-0.32081-0.32081v-0.8451l2.107-2.0574 0.29951 0.29952-1.2331 3.0673-0.5318 0.1772zm19.88-3.4561 0.06226-0.85989 0.38636-0.7876 0.38636-0.78759 0.72183-0.25386 0.72183-0.25385 0.15237 0.15237 0.15237 0.15238-0.87577 2.6775-1.2521 0.82042h-0.51774zm-20.465-1.7668v-0.75804l1.8705-1.6423h0.47952l0.16248 0.2629 0.16248 0.26291-1.9765 2.3646-0.69845 0.26802zm-1.4111-6.2809-0.17639-0.17639v-1.1425l0.59531-0.54223 0.59531-0.54222 0.57792-0.29765 0.57792-0.29764h1.3577v0.79104l-2.307 1.0844-0.59212 1.2996h-0.45232zm-2.5576-0.69785v-0.60966l1.5358-2.4216 0.30806-0.19039 0.30806-0.19038 0.14445 0.14444 0.14445 0.14445-0.85536 2.5104-1.1485 1.2225h-0.43693zm5.5562 0.41769v-0.23606l0.37524-0.51318 0.37524-0.51317 0.42142 0.42142-0.54826 0.86917-0.62365 0.20788zm-6.4535-3.8886 0.14444-0.37642 0.75284-0.28889v0.40673l-0.635 0.635h-0.40672zm5.9244-1.9515v-0.23593l0.96771-0.87577h0.35521l-0.0166 0.39688-1.3063 0.95075zm-1.7873-2.7653 0.10892-0.33073 0.57459-0.0846 0.57459-0.0845v0.50936l-0.83703 0.3212h-0.52998zm6.8227-0.79375 0.0083-0.33073 0.69338-0.50573 0.69338-0.50572 2.5367-0.24374 0.67581 0.16961 0.67581 0.16962-0.0017 0.1934-0.0017 0.19339-1.667 0.949-0.55212-0.55212h-1.1159l-1.0272 0.77692-0.92604 0.016zm-6.3583-2.1159v-0.39961l1.6864-0.69853 1.0917 0.0816 0.59531 0.14909 0.59531 0.1491v0.46119l-1.7198 0.27777-2.249 0.37897zm41.429-2.8096-0.20723-0.3353 0.31757-0.31757 0.15985 0.15985 0.15985 0.15986-0.22282 0.66846zm-34.815-2.549v-0.13229h0.26458v0.26458h-0.26458zm31.012-0.44648-0.3208-0.32081v-0.89589l0.74231-0.28485 0.97748 0.72641-0.28349 0.46277-0.28348 0.46277-0.51121 0.1704zm-35.907-0.74414 0.16352-0.26459h0.26458l-0.16352 0.26459-0.16352 0.26458h-0.26458zm36.909-1.0583v-0.52916h0.22131l0.41851 0.16059 0.41852 0.1606v0.73714h-1.0583zm-1.1906-0.26458 0.16352-0.26458h0.79375l-0.32704 0.52916h-0.79375zm-33.482-0.81641-0.29533-0.55183 0.30404-0.30404 1.1173 0.33476 1.1173 0.33477-1.0095 0.73817h-0.93858zm-2.8983-0.63201v-0.39008l1.5612-0.80732 0.47554-0.84976 2.5935-0.25474-1.6621 1.0616-0.35355 0.57205h-1.2097l-0.95778 1.0583h-0.44715zm42.995-0.66825 0.16352-0.26458h0.26459l-0.16353 0.26458-0.16352 0.26459h-0.26458zm0.29651-2.3867 0.27005-0.27005 2.8656-1.0474h2.0977l-0.57092 0.57092-1.1565 0.13364-1.1565 0.13363-1.9951 0.74931h-0.62429zm-4.3976-1.544v-0.22654l1.8783-2.46 1.0143-0.51748 1.0144-0.51748 1.8951-0.1276 0.34866 0.34866-0.13283 0.34214-0.13282 0.34214-2.8424 1.5346-2.8958 1.5082h-0.1468zm8.7974-0.62555-0.59532-0.28711v-0.66112l0.83323-0.29047 0.83324-0.29046h1.1998l0.21088-0.63262 1.6546-0.1582 1.6546-0.15819 0.25948 0.41984-0.16353 0.26458-0.16352 0.26459h-2.0985l-0.49074 1.2907-1.0489 0.56134-1.49-0.0358zm-45.663-0.9118-0.17639-0.17639v-0.70556h1.0017l0.28474 0.74202-0.31632 0.31632h-0.61736zm35.542-1.8673v-0.29056l1.654-1.3917 0.28633 0.28633-0.11156 0.0662-0.11157 0.0661-0.85857 0.77711-0.85858 0.7771zm-37.703-0.32598-0.79375-0.19036 0.71584-0.20095 0.71584-0.20094-0.30624-1.5312 1.6527 0.57613v0.35011l-0.52177 0.32586-0.52177 0.32585 0.30642 0.7985-0.45349-0.0626zm53.578-2.4746v-0.67366l1.3943-1.0967h0.97477l0.86709-1.3233 1.3941-0.77426 1.8222-0.8627 1.721-0.27927 1.3516 0.33924v0.42509l-2.1639 1.4168-0.6142-0.39672v-0.79375h-0.79375l-0.0845 0.59531-0.0846 0.59531h-0.42094l-3.1142 2.1154-0.21609 6.4e-4 -0.21609 6.3e-4 -1.8168 1.3857zm-17.442-0.34033 0.64143-0.6866 1.4289-0.74347 0.42315 8e-3 -2.3388 2.1092h-0.79619zm26.262-1.3419 0.17639-0.17639 0.17638 0.17639 0.17639 0.17639h-0.70555zm-32.367-0.64694v-0.31279l1.8663-2.2775 1.581-1.1258 0.32282 0.1076 0.32281 0.1076-3.1629 3.3159-0.93006 0.49775zm5.8868-2.1765 0.0946-0.30743 4.9988-2.4928 0.69269-0.02074-0.1614 0.26116-0.16141 0.26116-2.3257 1.6001-3.2321 1.0059zm-10.734-4.5809-0.18036-0.18036v-0.97014h0.79375l-0.0082 0.66146-0.42492 0.6694zm9.0801-1.1095v-0.22358l1.0616-0.96071 0.17314 0.17314 0.17315 0.17314-0.96072 1.0616h-0.44715zm1.5875-1.4867v-0.38734l1.9749-1.342h0.40633v0.72178l-2.0128 1.3949h-0.36843zm0.58488 96.28 0.34116-0.41606 1.7107-1.9144-0.90629-1.0014-0.44636 1.7635-0.8184 0.79375-0.12262-0.33073-0.12261-0.33073h-0.48507v1.8521h0.5083zm5.1478-2.9353-0.17639-0.17639v0.70556l0.35278-0.35278zm4.5861-1.2572v-0.37523l0.1606-0.41852 0.1606-0.41851h-1.6129l-0.16498 0.26695-0.16499 0.26695 0.3344 1.0536h1.2873zm-6.1736-1.6532-0.17639-0.17639v0.70555l0.35278-0.35278zm4.7349-1.5149 0.15886-0.63296-0.89024-1.7216-0.20544 0.3324-0.20543 0.3324 0.1678 0.86746 0.15327 0.72761 0.15326 0.7276h0.50901zm-0.67241-5.041-0.28493-0.74942-0.17833 0.17834-0.17834 0.17834 0.1306 1.9401 0.31885 0.3879 0.31884 0.3879 0.0791-0.78687 0.0791-0.78686zm9.784 2.1021v-0.13229h-0.26459v0.26458h0.26459zm3.3483-2.3698-0.15668-0.40829h-0.56439l0.59066 1.1037 0.14354-0.14354 0.14354-0.14355zm-13.402-1.0541v-0.11668l-0.52917-0.32704v0.5604h0.52917zm9.6626-0.87551-0.1859-0.99219-0.46475-0.79375-0.016 2.4254 0.35278 0.35278h0.49986zm-14.425-0.33073v-0.49794l-0.28764-0.17777-0.28763-0.17777-0.53209 0.53208 0.60474 1.13 0.25131-0.15532 0.25131-0.15531zm22.754-0.74965v-0.22049l-0.1692-0.1692-0.1692-0.16919-0.23199 0.14338-0.232 0.14338 0.15223 0.2463 0.15222 0.2463h0.49794zm9.7014-3.1309-0.17639-0.17639v0.70556l0.35278-0.35278zm-31.476-0.24772 0.0862-0.25874-0.38155-0.51847-0.38154-0.51847-0.359 0.92604 0.32148 0.83776 0.31406-0.10469 0.31405-0.10468zm16.13-0.0169-0.17639-0.17639v0.70556l0.35278-0.35278zm-10.108-1.4096-0.16537-0.65998-0.55141-0.66442h-0.99354v0.81483l1.122 2.1992 0.37686-0.51483 0.37687-0.51483zm16.017 1.3371v-0.24897l-0.52917-0.32704v0.82498h0.52917zm-41.099-1.2503-0.17639-0.17639v0.70556l0.35278-0.35278zm31.221-1.5875-0.17639-0.17639-0.35278 0.35278h0.70556zm10.407-0.48507v-0.39687h-0.79375v0.79375h0.79375zm-15.914-1.349-0.32051-0.76768-0.10536 0.60987-0.10537 0.60988 0.34137 0.41132 0.34137 0.41133 0.169-0.50704zm-0.7552-0.98615v-0.35075l-0.6866-0.64143-0.6866-0.64144-0.78249-1.5044-0.25408 0.25408 0.54244 0.88974 0.54243 0.88973 9.9e-4 0.55122 9.9e-4 0.55121 0.35278 0.35278h0.97014zm19.579-0.3107v-0.36564l-0.28218-0.1744-0.28219-0.17441-0.13885 0.13885-0.13884 0.13885 0.17549 0.55295 0.1755 0.55294 0.24554-0.15175 0.24553-0.15174zm-6.6146-0.79375v-0.66146h-0.52917v0.97014l0.35278 0.35278h0.1764zm-30.78-0.0441-0.17639-0.17639-0.35278 0.35278h0.70556zm25.929-0.26458-0.17638-0.17639v0.70556l0.17638-0.17639 0.17639-0.17639zm-25.135 0-0.17639-0.17639-0.35278 0.35278h0.70556zm42.598-0.52917-0.17639-0.17639v0.70556l0.35278-0.35278zm4.5861-0.0693v-0.24569l-0.83154-0.83154h-0.76815l0.4334 0.66145 0.4334 0.66146h0.73289zm-34.66-0.28348v-0.26459h-0.5604l0.16352 0.26459 0.16353 0.26458h0.23335zm14.023 0.13229v-0.13229h-0.26459v0.26458h0.26459zm5.2917-0.60854v-0.74084l-0.635-0.635h-0.42333v1.4817l0.635 0.635h0.42333zm10.878-0.39357-0.29435-0.29435v0.81139l0.19293 0.19292 0.19293 0.19293 0.20284-0.60854zm5.2619-0.28754v-0.89278l-0.79375-2.2497v-0.174l1.355 1.355 0.26729-0.26729-0.609-2.2617-0.69493-0.54952-0.69493-0.54953-0.44092-0.26458-0.44093-0.26459-0.56533-0.34213-0.56534-0.34214-0.15235 0.47443-0.15236 0.47443-0.27244 0.57127-0.27243 0.57127 0.8431 1.2037-0.13844 0.5516-0.13845 0.55161 3.0206 3.2974h0.44569zm-19.436-0.1447-0.39968-0.77289-1.5449-1.1h-0.77956l-0.63952 0.77057 0.17069 0.27617 0.17068 0.27617h1.2134l0.89903 0.6388 0.89902 0.6388 0.41046 0.0454zm-27.219-1.2556-0.17639-0.17639-0.35278 0.35278h0.70556zm23.372-1.556v-0.40951l-0.70009-0.64882-0.70009-0.64883h-0.4519v0.63251l1.4219 1.4842h0.43016zm7.1438-0.50092v-0.11667l-0.52916-0.32705v0.5604h0.52916zm4.5043-1.5271-0.53518-1.2099-0.37651-0.14448-0.3765-0.14448 0.1323-0.50591 0.13229-0.50591-0.87263-0.87263h-0.49137v0.676l0.42342 0.60453 0.42343 0.60452-0.15121 0.57819-0.1512 0.57819 1.1168 0.96648 1.1168 0.96649 0.1446-0.38128zm1.6341-0.26119-0.3175-0.3175v-1.3758l-0.61258-0.61258 0.56697-0.68388-0.30793-1.3229-0.30792-1.3229-0.23615-0.36648-0.23614-0.36647-0.6776 1.2621 0.77188 0.85627-1.3418-0.2565v0.76001l1.3369 1.1624-0.27333 0.51071-0.27332 0.51071 0.66495 0.42513 0.95442 2.0618 0.30331-0.30331 0.30332-0.30331zm-1.1112-3.519v-0.13229h0.26458v0.26458h-0.26458zm-16.404 3.472v-0.36448l-0.36598-0.30373-0.36597-0.30373-0.16405 0.4275-0.16405 0.42751 0.29753 0.48141h0.76252zm-28.575-1.223v-0.26458h-0.5604l0.32704 0.52916h0.23335zm26.37-0.17639-0.17639-0.17639v0.70556l0.35278-0.35278zm3.7924 0.192v-0.24896l-0.28219-0.1744-0.28218-0.17441-0.28237 0.28237 0.1744 0.28219 0.1744 0.28218h0.49794zm0.26458-0.67707v-0.13229h-0.26458v0.26458h0.26458zm-3.9202-0.71878-0.31309-0.31309v0.5468l0.35278 0.35278 0.2734-0.2734zm5.9913-0.97209 0.0867-0.5911 1.5464 0.33964v-0.51259l-0.48085-0.59382-0.48084-0.59382-1.9293 0.9155-0.17445 0.54962-0.17444 0.54962 0.96949 0.70891 0.55057-0.1808zm-28.101 0.0582 0.67473-0.4421 0.41378 0.66951 1.7033-0.88082 1.0325 0.0746 1.0325 0.0745 0.32054-0.32055 0.32054-0.32054h0.67572l0.86855-1.3256-0.60878-0.73354-1.5713-0.23062-0.92522 1.0415-2.1167 0.97198-1.3838 0.012-1.3455 1.0583h-0.57799v0.44097l0.35278 0.35278h0.45959zm28.94-2.3852v-0.18139l-0.57529-0.61236-0.57529-0.61237h-0.43692v0.9525l0.635 0.635h0.9525zm-27.781-0.89256v-0.51356h0.73206l0.1388-0.72609 0.1388-0.7261-0.12357-0.19994-0.12357-0.19995h-0.65465l-0.85203 2.7766 0.12578 0.20352 0.12578 0.20351 0.4926-0.30444zm41.69-0.93331-0.15825-0.63052-1.3395-0.33619-0.29332 0.29332 0.61393 0.69627 1.1413 1.8521 0.097-0.62222 0.097-0.62223zm-36.927 0.0146v-0.40517l0.39688-0.1523 0.39688-0.15229v-1.0183l0.39688-0.1523 0.39687-0.15229v-1.2512l0.8599-0.22319 0.85989-0.22318-0.0844-2.6114-0.1871-0.72761-0.18711-0.7276h0.85544v1.2851l0.79375 0.79375v0.48566l0.80473 1.6131 0.78277 0.64964v0.82368l0.63826 1.7651 0.55236-0.1886v-1.3597l0.19937-0.20083 0.19936-0.20083-0.3978-0.60712-0.3978-0.60713 1.1906-0.66021 0.39688 0.1124v-0.80266l-2.503-2.3982 0.78312-0.4952-0.52916-0.0692-0.79375-0.0712v-0.79375l1.9313 0.1676 0.3784-0.61226-2.0451-2.1042 1.0272-0.75844h1.2032l0.55422-1.0356 0.91239-0.17117 0.91239-0.17116 0.62994-0.83241 0.62995-0.83241 0.17134-0.69599 0.17135-0.69599 1.0641-0.27827v-0.78467l-0.98284-1.2138-1.9578 1.1551h-0.144l0.021-0.59531 0.021-0.59532-1.4552-0.1674v-0.49402h-0.63302l-1.0112 0.70077-1.0112 0.70076-0.1508-0.1508-0.1508-0.15079 1.184-1.6014-0.88497-1.3506h-1.0275l-0.2832 0.52917-0.2832 0.52916h-1.3043v1.4136l0.43179 0.47712 0.43179 0.47713-0.70338 0.26743-0.70339 0.26742-0.42494 0.33462-0.42494 0.33461-2.0465 1.9221 0.0041 0.89102 0.0041 0.89103 0.48876 0.7727 1.0013-0.90615 0.17697 0.17697 0.17697 0.17696v1.2843l-1.0583 0.27676v0.65074l0.3675 0.76825 0.3675 0.76826 0.32583 1.796 0.32582 1.796-0.93949 1.0381h-0.71184v-0.62388l0.30318-0.83842 0.30318-0.83841-0.82896-2.4328 0.28888-1.1047-0.79743-0.90864-0.18142-0.59531-0.18142-0.59532h-1.0227v2.0155l-0.77692 1.0272-0.0182 1.0583 0.83742 3.7042 0.71738 1.3468-0.24348 0.38491-0.24349 0.38491-0.0041 0.80102-0.0041 0.80103 0.82376 1.1761h1.0283zm4.3683-10.182 0.16619-0.26889 0.4926 0.30444v0.23335h-0.82498zm3.5913-6.1776 0.11024-0.0965 1.3229-0.68748-0.72625 0.88038h-0.81715zm26.033 15.717 0.15725-0.25444-1.0571-0.53931-1.0571-0.53932h-0.55473l0.32005 0.51249 0.32006 0.51248 1.0842 0.52672 0.63023 0.0358zm-10.709-0.25912v-0.24897l-0.56437-0.3488-0.28237 0.28237 0.34881 0.56437h0.49793zm15.61-0.13893v-0.3879l0.87812-1.8414-1.507-3.1732-0.21905 0.13537-0.21904 0.13538 0.15658 0.25334 0.15658 0.25335-2.2319-0.1464-0.11057 0.31234-0.11057 0.31235 0.90378 1.0106 0.90377 1.0106 0.73538 1.3229 0.0369 0.26458 0.0368 0.26458 0.061 0.66146h0.52917zm6.3019-0.27356-0.30138-0.66146h-0.44423v0.29938l0.54778 1.0235h0.49921zm-47.841-0.13232v-0.26458h-0.52917v0.52916h0.52917zm50.8 9e-3v-0.25527l-1.1036-0.59066-0.29467 0.29467 0.66937 0.80653h0.72895zm-15.346-2.7874v-0.1323h-0.26458v0.26459h0.26458zm-2.4138-2.0825-0.31696-0.69565h-0.44423v0.41142l0.84773 1.2103 0.23042-0.23042zm9.8221 0.71047v-0.18139l-1.1506-1.2247h-0.43693v0.57664l0.59532 0.49663 0.59531 0.49663 0.39687 0.018zm-7.3129-1.6954-0.0369-0.90133-0.13322-1.1906-0.13323-1.1906-0.19502-0.47881-0.19501-0.4788 0.58608-0.15327 0.58608-0.15326-0.17138-0.95543-0.17137-0.95543-1.3371-2.6458-1.5402-1.482 8e-3 -0.31732 8e-3 -0.31731 0.70296-0.92605h1.7673l-0.50271-0.48112-2.9104-0.86733-6.4761-0.2984-0.17748 0.46252-0.17748 0.46251 0.5442 0.85412h1.4616l0.20917 0.56248 0.20917 0.56249 3.5244 0.70053 0.34844 0.27787 0.34844 0.27788 0.18765 0.62937 0.18765 0.62938-2.9913-0.37374 0.24466 1.4962 0.0218 0.14841 0.0218 0.14842 2.7781 0.70007 1.8875 0.9488 0.69086 0.83242h-1.4225l-1.0236 0.54779v0.5845l0.46302 0.34208 0.46302 0.34209-0.66145 0.67062v0.89589l0.39916 0.15317 0.39916 0.15318 0.58496 1.2838 0.56513 0.2726 0.56513 0.27261 0.52916-0.1438zm8.0074-8e-3 -0.16537-0.82682v-1.2568h-0.97014l-0.15308 0.15309-0.15309 0.15308 1.0823 2.6042h0.52476zm-15.335-0.14331-0.17639-0.17639-0.35278 0.35278h0.70556zm8.8194-1.6757v-0.52916h-1.0583v0.70555l0.35278 0.35278h0.70555zm3.9688 0.41249v-0.11667l-0.61093-0.37758 0.18879 0.30547 0.18879 0.30546h0.23335zm8.1139-1.118-0.17639-0.17639v0.70556l0.35278-0.35278zm-10.957-0.49169 0.0275-0.25796-0.88656-0.1708 0.16396 0.42728 0.16397 0.42728 0.25182-0.0839 0.25183-0.0839zm-9.3276-0.24235v-0.11668l-0.30546-0.18878-0.30547-0.18879 0.18879 0.30546 0.18879 0.30547h0.23335zm9.6804-1.6504-0.71403-0.61417h-0.79053l0.23027 0.41147 0.23027 0.41148 0.77506 0.4743 0.77507 0.47431 0.10395-0.2716 0.10396-0.27161zm-8.622-0.29667v-0.21167l-0.635-0.635h-0.42333v1.0583h1.0583zm10.674-1.1941-0.22269-0.38713-2.203-2.3788-1.7148-0.85544h-1.475l-0.30736 0.49732 1.7009 2.4131 1.3533 0.0676 1.0583 0.121 1.8276 1.1148 0.2053-0.2053zm-4.0591-6.3838v-0.11668l-0.30547-0.18878-0.30546-0.18879 0.37757 0.61093h0.23336zm-12.832-0.67707 0.16353-0.26459h-0.82498v0.52917h0.49793zm10.98-0.52917v-0.26458h-0.56039l0.32704 0.52916h0.23335zm-15.511-2.7642 0.8271-0.17136-0.45071-0.33833-0.4507-0.33834 0.1076-1.3033 1.6784-1.7946 3.1052-0.22462 1.0372 0.28638 1.0372 0.28639 0.60588-0.397 0.60589-0.39699v-0.76293l-0.52205-0.27939-0.52204-0.27939-2.7924-0.58575-2.8183 0.1002-3.1348 1.3595v0.98917h0.46868l1.5157-0.78719 0.1874 0.55568-0.12173 0.12173-0.12172 0.12173-3.8352 0.73076-0.5802 0.5802 0.635 0.635v0.90863l1.094 2.5574 0.57749 0.62048 0.57749 0.62049 0.23124-1.3216 0.23123-1.3216zm6.7802 1.9429v-0.2367l1.7198 0.012 6.35-0.22694 0.23813-0.0506-0.635-0.635v-1.4169l-0.79375-0.65875v-0.771l0.79375 0.17433 0.79375 0.17434v-0.40135l-0.32104-0.88781-0.32103-0.88781-1.2508-0.31392-0.63834 0.34163-0.63835 0.34163-2.0946-0.69127-1.4828 0.57169-1.6756 0.33-0.14341 0.37371-0.1434 0.37371 0.87906 0.49195-0.35062 0.42248-0.35063 0.42248h-0.69116l-0.85664 0.85665 0.90379 0.99868-0.33674 0.33674-0.80654-0.66936v-0.72896h-0.81036l-0.20286 0.66146-0.13133 0.94974-0.13132 0.94974 3.128 0.0294zm-9.7896-6.3831v-0.26868l-0.79375 0.65876v0.1832l0.79375-0.30459zm22.225-0.33617v-0.13229h-0.26458v0.26458h0.26458zm-22.635-1.2204 0.25135-0.23484 1.0848-2e-3 0.99896-0.27742 0.99896-0.27741-0.15468-0.25028-0.15468-0.25027h-1.2656l-2.6136 0.56052-0.46642 0.34106-0.46643 0.34106 0.38996 0.63096 1.1461-0.34558zm22.371-0.23484v-0.26458h-0.52917v0.52916h0.52917zm-1.3229-1.0142v-0.22048l-0.1692-0.1692-0.16919-0.1692-0.232 0.14339-0.23199 0.14338 0.30444 0.4926h0.49794zm-9.1684-0.97014-0.0403-0.26458-1.1229-0.36794-1.1229-0.36795-1.8668 0.47131-0.10393 0.31764-0.10393 0.31765 3.3427 0.1976 1.0583-0.0392zm2.0247 0.1323v-0.26459h-0.5604l0.16352 0.26459 0.16353 0.26458h0.23335zm8.2958-1.4321 0.24378-1.0352-0.48391-0.35384-0.4839-0.35384h-1.1906l-0.12389 0.20045-0.12388 0.20045-0.17649 0.94074-0.17648 0.94074 1.231 0.60242 1.0406-0.1066zm-0.21671-2.964 0.65215-0.4273v-0.94086l0.43474-0.16683 0.43475-0.16683-0.1411-0.14109-0.1411-0.1411-2.4394 1.7194v0.69189h0.54778zm1.4459-3.0123v-0.26458h-1.3229v0.52917h1.3229zm-14.31-9.3559-0.11024-0.09547-2.2879-0.3507 0.16737 0.27082 0.16738 0.27082h2.1736zm-0.283-2.1754 1.4077-0.94799-0.10694-0.10694-0.10695-0.10694-3.2765 1.7506 0.17963 0.17963 0.17964 0.17963h0.31574zm-3.8061-1.2608 0.48787-0.35674-0.37666-0.60944h-0.92596l-0.97574 0.71347 0.37666 0.60944h0.92596zm3.1406-0.44506 0.30909-8e-3 -0.93672-0.54535-1.1176 0.3547 0.36569 0.23288 0.36568 0.23288 0.70474-0.25902zm-4.9079-4.1844 0.11854-0.356-0.94314 0.18282-0.23708 0.712 0.94313-0.18282zm-23.226 106.59-0.2832-0.52917h0.4205l0.66094 1.0583h-0.51503z" fill="#6c6c6c"/></g><path d="m44.29 126.35-0.7861-0.66146h-1.083l-0.16352 0.26459-0.16352 0.26458h-0.45734l-0.82706-0.69592-0.82706-0.69593-1.334-2.6325 0.34152-2.0214-0.5876-1.098h-0.76762l-1.4007 2.1167h-1.0228l-1.0235 0.54778-0.0082 0.64284-0.23795 0.37596-0.23795 0.37595-1.3571-0.88918-0.79041-1.5285-0.5891-2.5676-0.45112-3.0974-0.90822-1.0036h-1.5055l2.16e-4 -0.19844 2.15e-4 -0.19844 0.93623-2.4651 1.8264-1.868 0.33824 0.28071 0.33824 0.28072v5.4074l0.75475 2.5079 1.0117 0.89377 1.0117 0.89378 0.67456 0.022 0.5529-1.4542 0.83724-0.92514 0.74072 0.61474 1.6345-1.9829 0.45393 0.70482-0.31248 2.1742 1.084 2.1248 1.6513 1.3895h0.8271l0.68049-0.92604 1.4945 1.387 1.4192 0.3338 0.32072-1.0105 0.7866-0.30185-0.31364-1.4668 1.157 1.4806 0.49786-0.45056 0.49787-0.45056v-0.8976l2.946-4.548-0.168-1.7056-2.5135 3.0607-2e-3 1.1298-0.27555 0.99218-0.27554 0.99219h-0.3902l-0.47164-0.79842-0.47163-0.79841-0.49374 0.30514v1.7197l-0.73522 1.0055-0.1908-2.8238 0.33073-0.1269 0.33073-0.12689v-0.47256l-1.1906-8e-3 -1.1906-0.31908v-1.2875l-0.80734-1.5612-0.38329 0.016-0.49808 0.37713-0.49808 0.37712-0.73314-0.37912-0.73314-0.37913-1.1609-1.8783 0.29944-0.78032h1.0524l1.4778-1.8521h0.18297l0.18297-1e-5 2.5404 3.3014 0.0246 1.2603 0.0246 1.2602 0.18757 0.18757 0.18757 0.18758 0.62354-0.782 0.62354-0.78199 1.0728 0.9709 1.0193-0.32351 1.894-1.894 0.385-0.83334 0.38499-0.83335 0.17955-0.59531 0.17955-0.59532h-0.48106l-0.30506 1.0182-0.30505 1.0182-0.67752 0.73106-0.67752 0.73105-0.14446-0.14445-0.14446-0.14446 0.31992-1.8967 0.31993-1.8967-0.36678-3.914h0.46837l2.0677 4.2409 0.55182-0.1806 0.164-1.3793-0.86989-1.6822-0.14711-1.4254-0.14712-1.4254h0.52916l0.30416 2.947 0.62358 0.75137 0.46921-0.28998 8e-3 -2.4824 0.26053-0.39688 0.26054-0.39687 0.16315 0.59531 0.16314 0.59531h0.47983l-0.2794-4.3656 0.5699 1.1906 0.56989 1.1906 0.12543 1.7454 0.12544 1.7454-0.83608 1.276 0.22104 2.1927 0.22105 2.1927 0.16434 0.16435 0.16434 0.16434 0.0772-0.11024 0.0772-0.11025 1.3789-2.1556-0.5067-0.31644-0.50669-0.31644 0.0904-2.5549-0.2789-0.47752 0.2337-1.8521 0.23369-1.8521-0.31588-1.252-0.31589-1.2521 0.40594-0.40594 1.563 1.7493 0.15576 0.77883 0.15577 0.77884h0.53137l-0.17513-1.5479-0.17512-1.5479 0.43416-0.36033 0.43417-0.36033 0.3414 0.46689 0.34139 0.46689 0.18282 0.97833 0.18281 0.97834 0.27331 0.33073 0.2733 0.33072h0.50642l-0.19302-0.85989-0.19302-0.8599-0.31726-1.8438-0.31727-1.8438 0.12325-0.47129 0.12324-0.47129h0.43622l0.16352 0.26459 0.16352 0.26458h0.43788l0.17488-0.85989 0.17487-0.8599 0.15303-0.8971 0.15303-0.89711-1.3895 0.26562v-0.45578h0.76252l0.33624-0.54406-0.83544-3.3312-0.25334-3.1362-0.16811-1.7859-0.1681-1.7859h0.81687l1.626 1.9726v-1.0961l-0.4991-1.4305-0.49909-1.4305-1.4016-2.7596-0.65221-0.7751-0.65221-0.77511v-0.51868l1.0693 0.52906 1.0693 0.52907 0.25922-0.25922-1.3304-1.2622-5e-3 -0.5543-5e-3 -0.55431-0.50537-0.45735-0.50537-0.45736-0.16522-0.70813-0.16523-0.70813-0.4479-0.8599-0.44791-0.85989h-0.67341l-0.39688 0.012v1.4432l-1.4552 0.1674v1.0232l-0.39687-0.016-0.41327-0.32231-0.41328-0.32232-0.36436-0.97004-0.66118 0.21052-0.26117 0.5782-0.26118 0.5782h-0.40369v1.5875h-0.58653l0.31818 1.2677-0.39499 0.15158-0.39499 0.15157v0.88919l1.751 1.7005 0.56233 0.30095 0.56234 0.30096h1.0436l-0.2476 0.94684 2.0738 2.3604 1.1338 2.2278v0.48853l-1.0475 0.27394-0.52052-0.84221-0.52052-0.84222-3.8646-3.6099-0.75871-0.91289-0.7587-0.91289-0.20594-0.91309-0.20593-0.91309 0.23704-0.14649 0.23703-0.1465v-1.1739l0.8173-1.1669-0.27897-0.52128-0.27898-0.52128-2.3991 0.1074 0.2449 0.95206-0.8833-0.087-0.66146 0.061v1.5227l-0.79375 0.65875v0.99354l1.9844 8e-3 0.76929 0.48665-0.34916 0.74481-0.34917 0.74481-0.18546 0.3792-0.18545 0.37919-0.44443 0.28034-0.44442 0.28033-0.97212-0.6071-0.65498 1.8113 2.6756 2.7323 0.30268-0.30268-1.1601-2.4679 1.4936-1.559h0.38092l0.4071 1.3891 0.40711 1.3891 0.12385 1.3229 0.12386 1.3229-0.40351 0.45027-0.40351 0.45026 1.0842 1.7543 1.3838 1.3 0.2466-0.38994 0.24659-0.38995 8e-3 -0.63022 0.28218-0.17441 0.28219-0.1744 0.39473 0.48952 0.39472 0.48951-0.33806-2.5812-0.13931-0.36305-0.13932-0.36305h0.74923l0.88668 0.66146 0.56629 2.249 0.56628 2.249-0.07 5.6204 0.79772 0.66205v0.37943l-1.436 0.6543-1.4608-1.76-0.30334-0.92604-0.30334-0.92605-0.44558-0.48304-0.27441 0.72177-0.27442 0.72176-8e-3 2.4791-0.49068 0.77582-0.27978-0.73587-0.27977-0.73586v-0.90305l-1.0006-3.6085-0.31521-0.30667-0.3152-0.30667 0.35774 2.4438-0.43879 0.84853-0.4388 0.84854 0.1256 3.7966-1.1496 0.1692v2.3337l-0.41743 1.0433-0.41744 1.0433-0.37631 0.14441-0.37632 0.14441-0.0338-0.90944 0.0422-4.7625-0.53751-0.79375-0.26524 0.39688-0.26525 0.39687 0.0374 2.6458-0.32961 1.8074-0.3296 1.8074 0.34708 0.2145 0.34708 0.21451 2.0456-0.197v0.49245l-0.78608 0.43991-0.14 4.0151-0.68117-0.25958-1.0388 0.94012 0.16434-1.9593 0.16433-1.9593-1.1219-1.3229-0.75971 0.98014-1.127-0.78936-0.95668 0.25018-1.1258-1.581v-0.38914l0.36844-0.29376 0.36844-0.29375 1.3681-4.3052 0.34916-2.9708h-0.5696l-0.3677 2.452-1.4288 1.5991-1.4281-4.5802h-0.467l-1.9547 2.6628 0.3529 2.3534-1.1235 1.2015-0.29254-0.52018-0.29254-0.52019-1.2326-1.2326v-1.003l0.66146-0.41178 1.1543 0.149 0.26675-0.49843 0.26675-0.49842 1.1447-3.3077-0.33608-2.2108-1.4381-2.1856-0.56282-0.95128-4.7288-0.1578-2.6458-0.53619-3.5556-0.95936-0.15332-0.15331-0.15332-0.15332 0.36584-1.4576 0.46646 0.6184 0.46646 0.61841 0.85916-0.71305 0.60461 0.568 0.60461 0.56801h1.1972l1.5875-1.5875h0.77932l1.5612-0.80734v-1.0448h1.0583v2.608l0.41577 0.41577 0.41577 0.41578h0.38396l-0.04014-1.265-0.04014-1.2649-0.71832-1.1502 0.35402-0.35402 0.82115 0.31511 0.62679 1.3757-0.36091 0.22306-0.36091 0.22305 0.8964 1.3681 0.64926-8e-3 0.79375-0.50492-0.62976-1.0166 0.79928 0.30169 0.79928 0.3017 0.67704-0.9259h0.63843l1.848-1.4095 0.78982-1.5274-0.32645-1.0286 0.82835 0.31786-0.0068-0.35903-0.0068-0.35904-1.9707-0.87962-2.2334-0.35488-1.3548-1.0657-0.75719 0.62841-2.7984-1.3109-0.90483-0.19319-0.90483-0.1932-1.063-0.77001-1.063-0.77002-3.7373 0.0802-3.3525-0.0658 3.6171-3.4351 0.36564-4e-3 0.32704 0.52916h2.3314l0.52062-0.97278-0.2785-1.065 0.45998-0.45998 0.45998-0.45997 1.1246 0.16864 1.1246 0.16865 0.34273-0.55456h1.2731l0.58451 1.0922-0.34337 0.41374-0.34337 0.41373 1.7672 1.4753-0.34036 0.5507-0.3884-0.14904-0.3884-0.14905v0.74454l0.56586 0.56586 2.3115-0.26054 1.8851 0.35365v0.57741l-5.5562-0.37219v0.85614l1.9175 0.80117 5.4809 1.0983 3.2456-0.68876 1.5269-1.2848v-0.74671h-0.75809l-0.17151-0.5404-0.17152-0.54041 0.6196-0.48738 0.6196-0.48737 0.9783-2.7206-0.17623-1.25-0.17622-1.25-0.67514-1.4077-0.67513-1.4077 1.2386-1.3184-0.87954-1.5325 1.0334-2.1388h0.67557l0.635 0.635 0.061-1.2965-0.104-0.98388 0.24459 0.15116 0.24458 0.15116 0.59907 2.018 0.59906 2.0179-0.15405 0.77023-0.15404 0.77023h0.87114l0.96771-0.87576v0.87576h-0.52917v0.56448l-1.2667 1.6845-0.38438 2.8796-0.70936 0.70936-0.35168 1.8746 0.54285 0.54284 3.2276 0.1656v-0.98138l0.56524-0.34934-0.27164-0.70788 1.4262-0.1646 0.0854-0.60167 0.0854-0.60168 3.2126-2.6736 0.21141 0.34208 0.21142 0.34207-0.56369 0.67921h-0.66615l-1.3096 1.7198-0.18744 0.59295-0.18744 0.59294 0.14306 0.23147 0.14305 0.23147 1.375-0.26284 0.22855-0.60115 0.22856-0.60114 0.52546-0.32476 0.9051 0.43161 0.90509 0.43161 0.43599 0.73808 0.436 0.73807v1.2963l1.2976 1.4002h0.59647l-0.17433-0.79375-0.17434-0.79375h0.798l0.39446 0.39446 0.39445 0.39446 0.28279 0.86231 0.2828 0.86231 0.22314 2.1166 0.18698 0.59531 0.18698 0.59532h-0.52609l-0.65876-0.79375h-0.72895v0.20063l1.3991 3.0561-0.28374 0.45433-0.28373 0.45433 0.59708 0.59708h0.8883l0.54994 1.4552 0.15292 2.0777 0.15293 2.0777-0.43747 0.74057-0.43748 0.74058 0.34499 1.6256 0.34498 1.6256 0.5147 0.3605 0.51469 0.36051 0.74622 1.0654 0.39634 2.0712 0.39635 2.0712-4e-3 1.3229-1.0514-1.5875-4e-3 -1.424-0.52916-0.32704v2.0658l0.97486 2.955-0.39424 2.9051-0.17904 0.81519-0.17905 0.81518h0.51895l0.49676-0.85989 0.49677-0.8599 1.4381-3.4396 0.23076-3.9688 0.16538-0.53566 0.16539-0.53566-0.82101-1.5745-2e-3 -0.52498-2e-3 -0.52497-0.72428-1.3834-0.72427-1.3834 0.68776-0.68126 0.55226 0.97921 1.0665 0.87287 1.2188 1.2745 0.45196 1.2148 0.45195 1.2148 0.68478 1.4552 0.68477 1.4552 0.0896-0.84721 0.0896-0.8472-1.8134-4.1264-0.18848-0.85989-0.18847-0.8599h0.80579l0.44443 0.59531 0.44443 0.59532-0.20516-0.52917-0.20517-0.52917-0.12092-0.85989-0.12092-0.8599h0.62025l1.4876 3.3073 0.17462 0.56744 0.17463 0.56743-0.67942 0.71722 0.0402 5.9669 0.29937 0.29938 0.29938 0.29937 0.75861-0.62959 0.14504-0.71909 0.14504-0.7191 0.18287-0.79375 0.18288-0.79375 0.3469-0.40067 0.34691-0.40067 0.1232-2.3804-1.9295-2.5278-0.64688-2.1591-1.4959-0.52148-0.259-0.48394-0.25899-0.48395v-0.29937h0.75771l1.1111 1.5604 2.6939 0.1594 1.0346 2.6458 0.79137 0.87812-0.3776 0.2224-0.37761 0.22239-0.27426 1.4859 0.62061-0.23815 0.61101 0.327 0.611 0.327 0.52488 1.4304 0.52487 1.4304 0.82084 2.4371-0.17832 0.71051-0.17833 0.7105-0.2366-0.14622-0.23659-0.14623-0.43755-1.386-0.43754-1.386-0.74362-1.5875-0.44133-1.0583-0.44134-1.0583-0.10813 0.44368-0.10814 0.44367 1.054 2.5522 0.40574 1.4552 0.40575 1.4552 0.42299 0.59832 0.42299 0.59833 1.0066-0.70503 2.5721-3.9312 0.851-0.69802 0.16631-0.75719 0.1663-0.75718 0.75974-0.63053v-0.75003l-1.0215-2.0023-0.18436-1.6296-0.18437-1.6296-0.34062-0.46582-0.34061-0.46582-1.2358 1.5751-0.1452 3.4486-0.0614 2.249-0.0613 2.249-0.22355 0.88605-0.22354 0.88604-0.42443-0.44917-1.3527-4.3251 0.39064-4.1416 0.97113 1.9844h0.46887v-0.1686l-0.84512-2.8742-1.0642-2.495-1.7664-1.0422-1.3514-2.1408v-1.3566l0.46302 0.0778 0.46302 0.0777-0.0851-0.7276-0.0851-0.72761h0.70433l0.74723 1.1906 1.7519 3.4396 2.1752 2.3724 0.67066-0.91718h0.60312v0.46745l1.0271 0.2686 0.40694 0.97393 0.40693 0.97394 0.61154-0.37796-0.1646-1.9473-0.16461-1.9473-0.80041-1.9156v-2.1168l0.41622 0.34542 0.41621 0.34543 1.0927 2.1419 1.2498 3.6747v1.7594h-0.51054l-0.26779 0.50037-0.26779 0.50036 0.32109 1.3517 0.3211 1.3517h0.42932l0.64547-0.72761 0.64548-0.7276 1.991-2.9104 0.6126-0.52916 0.58194-1.3045 0.58195-1.3045-0.32616-2.9473-0.32228-2.6303 0.85632 0.71068v-0.39847l-1.7807-2.4786-0.93445-1.9692 0.16275-0.16274 0.16274-0.16275 3.7626 3.9072 0.76618 1.4816 0.50663-0.31312v-1.2252l-0.39687-1.1249-0.39688-1.1249-2e-3 -2.7116-0.26052-0.93777-0.26052-0.93778-1.8803-1.8225-0.51296 0.78764 0.11089 0.46276 0.11089 0.46275-0.52559 0.32484-0.5889-0.58889h-0.89513l-0.16852-0.67146-0.16853-0.67146 0.23629-0.42224 0.2363-0.42223-0.1994-0.88413-0.1994-0.88412-0.51445-0.99874-0.51445-0.99875-3.118-2.5244-0.542-0.96992-0.60003 0.2106-0.42759-0.42758-0.42759-0.42759v-0.49137h0.72239l1.3943 1.0967v-0.50278l-0.41432-0.34385-0.41432-0.34386-0.37943-0.73373-0.37943-0.73374v-1.0846h0.42333l0.3131 0.31309 0.31309 0.31309 0.31568-0.31568-0.44719-0.6825-0.44718-0.68249 0.11562-0.99044 0.11563-0.99044-0.34174-1.5912-0.34175-1.5912-0.0266-1.8521-0.3651-1.0491-0.36511-1.0491-0.71703-0.21986-0.92604-0.80671v-1.0344l-3.175-3.0589v-0.82346l-1.8231-3.1107-2.1629-2.6062-0.15543-0.60764-0.15543-0.60763 0.26636-0.26636 2.7076 0.35917v0.40673l-1.7006-0.078-0.098 0.47814-0.098 0.47815 1.2352 1.1945 0.33601 0.51211 0.33601 0.51212-0.1554-0.59532-0.15541-0.59531h1.0058l0.16262-0.16262 0.16262-0.16261-0.41354-0.63114-0.41353-0.63113h1.1192v-0.70881l-0.66146-0.30138-0.66145-0.30138v-0.53603l1.0856-0.66594 1.0534-2.3668 1.8955-1.5624 0.80232-1.8917 0.20138-6.6146-1.9955-6.2471-4.5934-4.2156-1.8718-0.78211h-1.0569l-1.7382-1.5185-3.2077-1.6138-2.084-0.35744-0.8599-0.29264-0.8588-0.29262v-0.43992l-1.1906-0.46048-0.39957 0.50542-0.39958 0.50543-2.1136 0.1792-1.9687 0.7119-0.17664-0.17664-0.17665-0.17664 0.58142-0.70056 2.8013-0.70407 0.92604-0.47885v-0.5168l-2.249 0.30778 1.1378-1.0051-1.81-1.4443-4.884 0.35392-3.175-0.92964-1.2991 0.04521-1.2991 0.0452-2.2352 0.98875-2.5748-0.55033-3.4396 0.11826-2.6458 0.49496-0.97018 1.3169h-1.2629l-1.1256 1.5224-3.3702-0.27052-3.633 2.1584-0.68308 0.82307h-0.63672l-1.2829 1.3744-2.1167 1.1245-2.2518 0.89059-3.7705-1.9343-3.1355 0.13762-1.7348 0.72486-1.9252 2.3495-1.3411 2.9294-0.55956 3.027 0.59347 2.4733 0.45746 1.8521 0.87726 2.3812 0.36093 0.20317 0.36093 0.20318-0.8496 1.4804 1.2219 2.4466-0.71987 1.7522-1.2098 1.7936v0.61407l0.65704 0.65704-0.57384 0.37484-1.9353 2.5541-0.0058 1.4147-0.74158 2.3812-1.8985 4.6599-1.33e-4 1.3742-1.34e-4 1.3742-1.0581 2.7838v2.8375l-1.0832 2.4486-0.02432 3.0426 0.37501 3.8642-0.8828 2.3116-0.36129 4.1429-0.0078 6.192 0.66146 0.66062v-1.4204l1.5062-1.6857-0.22008 3.1326-0.5365 1.4068 0.33053 3.0912 0.57299 3.4396 2.0604 4.0058 3.1839 2.0604 0.12929 0.67102 0.12929 0.67103 0.58 2.6458 1.551 2.9545-0.7218 1.1025-0.7218 1.1024h-0.42297l-0.76984-1.1906-1.1057-2.8264-0.39189-2.7231-1.765-1.0651-1.9656-1.6915-1.434-2.6348-1.0468-4.0928v-2.2176l-0.61713-1.7988-0.66798-0.88493-0.66798-0.88494-0.0307-2.9926 0.37125-7.732 0.77735-2.0576 0.30778-3.7042-0.71478-2.358 0.46176-2.14 1.1109-2.789-0.33622-2.1026 0.56746-1.5229 0.56747-1.5229 0.41236-4.2334 2.1346-4.9242 0.36472-2.4842 0.48779-1.3059 1.8213-2.2227v-1.9777l0.63526-0.83287 0.63526-0.83286 0.65208-2.1764-1.213-1.9627 0.08046-2.0535-0.82026-2.2458-1.0493-3.4396-0.03794-3.2572 0.90316-2.7192 1.3536-2.4903 1.6203-1.73 1.9986-0.53817 2.4116-0.0484 3.981 1.9675 1.3953-0.3502 2.9321-1.3981 1.897-1.6068 1.5426-0.91041 3.4396-2.2646h4.0503l1.1475-1.4552h1.044l1.391-1.391 1.6276-0.44474 4.7085-0.53062 2.5037 0.81892 4.0343-1.4322 3.3055 0.98063 6.8993 0.0146 2.2786 1.8037 1.789 1.214 3.5852 1.5534 1.3229 0.39303 3.4396 1.7292 1.2457 1.3369 2.7231 0.63474 2.9104 1.7507 1.9332 2.0198 1.6387 2.6171v1.5814l1.0723 2.215 0.19915 2.6868 0.19916 2.6868-0.6151 1.7066-0.60064 2.2105-1.8424 2.2052v0.66433l3.0427 2.6206 1.8521 1.1346 3.9688 4.026 2.4186 1.3264 0.84056 1.423-0.13214 0.69121-0.13213 0.6912 1.1483 2.2508 1.307 4.004-0.36666 6.2686 2.4264 3.5566 0.54038 1.633 0.54037 1.633-0.5793 2.5548 9e-3 0.83304 9e-3 0.83305 0.4837 0.88674 0.4837 0.88675-6e-3 9.7896-1.4827 5.2916-0.89344 1.3896-0.68764 1.025-0.68765 1.025-2.2292 3.7042-2.2163 3.2333-2.1166 2.5766-7.4177 7.7926-3.0792 2.3911-3.5259 3.096-3.9688 2.8978-4.0769 2.7282-2.0085 1.0185-2.9104 0.37142-1.0583 0.29507-1.0583 0.29506-4.1161 4.1765-2.7631-0.28685-1.5875-0.1582-0.0803 1.1035-0.0803 1.1036-1.6381 0.57104h-0.79713l-1.7711 1.3509-3.0414 0.49814-0.88544 4e-3zm13.886-8.9297 0.79521-1.1245 0.62128-1.1245 0.62129-1.1245h0.43172l1.0222-1.0222-0.19942-0.74566-0.19942-0.74565h-0.47414l-0.54612 1.9411-0.19844 0.19804-0.19844 0.19805v-3.9392l0.78403-1.1194-0.7782-0.64584 0.11812-0.19113 0.11813-0.19113-0.41244-1.5422-0.4911 0.1382-8e-3 0.70182-0.91756 0.91756v0.49137h1.4303l-0.98892 1.0128-0.98893 1.0128 0.16302 0.42483 0.16302 0.42482-1.0552 4.4009-0.14093 0.82055-0.14094 0.82056 0.14867 0.56851 0.14866 0.5685h0.37775zm-3.3221-0.27504-0.28498-0.28499-0.31628 0.31628 0.68118 1.2359 0.10254-0.49112 0.10253-0.49113zm-0.66729-3.5601-0.15568-0.15568-0.16498 0.16497-0.16498 0.16498 0.20593 0.47443 0.20592 0.47444 0.11474-0.48373 0.11473-0.48373zm13.549-1.1125 0.78046-0.78046 1.1764-2.257-0.14559-0.89717-0.14559-0.89716-0.83014-1.267h-0.445l-1.4254 2.0568-0.15622 2.4112-0.15621 2.4112h0.56679zm0.22778-2.3274-0.12736-0.20607 0.72857-1.3163 0.018 1.424-0.4926 0.30444zm-2.8196 1.6683v-1.175l-0.47177-0.29156-0.1986 1.7155 0.18 0.92604h0.49037zm11.425-5.9928 0.26832-0.76971h0.96369l0.81351-0.46302 0.81352-0.46302 2e-3 -0.18668 2e-3 -0.18669-1.3089-1.9288-0.16697-0.89-0.16697-0.89001-0.82283-0.68031 0.17854 1.3508 0.17854 1.3507-1.6454 3.5162h-0.45299l-0.50205-0.89711-0.28981 1.0439-0.28982 1.0439-2e-3 2.1138 2.161-2.2942zm-14.051 2.3325-0.0198-0.19182v-1.3229h-0.77514l-0.27389 0.51178-0.27389 0.51177v0.52515l0.92604 0.23871 0.43656-0.0808zm-1.0782-2.1918v-0.38126h-0.52916v1.0896l0.52916-0.32704zm10.55-1.0459 0.25129-0.91008-0.13198-0.50467-0.13197-0.50466 0.41678-0.80596 0.41678-0.80595-0.32498-1.6249h-0.47963l-0.23046 0.66146-0.12101 1.4552-0.121 1.4552-0.1941 1.4305-0.19409 1.4305 0.29654-0.18328 0.29655-0.18328zm-26.558-12.819v-3.6945l0.92604-0.9265v1.1887l0.40951 0.98008 0.4095 0.98008 0.97807 1.0656 0.97296 2.7781h0.44062l-0.28058-0.92604-0.28828-1.1906-0.28829-1.1906-0.0523-0.39687-0.0523-0.39688 0.46302 0.0777 0.46302 0.0778v-1.2471l-1.6423-1.5542-1.7324-2.6871-1.555-0.64411-1.4202 0.53996v0.76845l1.2747 1.0027-0.56433 4.4597 0.02768 1.4184 0.02767 1.4184 1.2187 1.7898 0.26458 4e-3zm19.05 1.5778 0.16352-0.26458h-1.0896v0.52917h0.76252zm-1.1947-2.4474-4e-3 -0.59532-0.25648 0.39688-0.25648 0.39687-8e-3 0.39688h0.52917zm32.019-7.5274v-0.71437l-0.29972 0.29971-0.29971 0.29972 0.31824 0.82932h0.28119zm3.0608-9.869-0.15408-1.4552-0.8191-2.4728-0.76475-0.63469v0.40028l0.31473 1.0504 0.31472 1.0504-0.44701 0.25017-0.44702 0.25016v0.73053l1.6641 3.5954 0.24622-0.65475 0.24623-0.65475zm-65.337 0.93382 0.14931-0.38909-0.52594-0.66862-0.52594-0.66863-0.62156 0.50332-0.62156 0.50331 0.50173 0.5544 0.50173 0.55441h0.99293zm61.872-6.3728 0.52257-0.39503-0.31871-0.51033-0.31871-0.51034 0.51833-0.32035v-1.0271h0.38244l2.039 2.249-0.30476-0.96932-0.02-1.6765-2.1238-1.4696-0.25096 0.15509-0.25095 0.1551v0.92161l-0.66146 1.4243-1.4368 4e-3 -1.0014-0.84944-1.0014-0.84945-0.24926-0.182 0.72324-0.44698-0.17478-0.45547-0.17477-0.45546 0.59924 0.18885 0.59925 0.18886 1.21 0.083 0.22044 0.35676 0.22043 0.35676 0.99493-0.1888 0.088-0.77 0.088-0.76999-0.5429-2.1596-0.29138-2.1896 0.9228 0.073 0.0829-1.0058 0.0829-1.0057-2.5471-4.5415-2.0162-2.0794-0.30749 0.1025-0.30748 0.10249-0.13959 0.50956-0.13959 0.50955-0.49518 0.73024-0.49519 0.73025 0.84116 1.7609 0.84115 1.7609 0.51393 0.65335 0.51392 0.65335v0.46788l-0.66146-0.16601-0.66146-0.16602v1.7269l-1.0386-0.93994-0.87073 0.33413 0.24122 1.7144 0.20091 0.46302 0.20092 0.46302h-0.85037v1.0083l0.92605 1.1084 0.92604 1.1084v0.68707l0.40387 0.15498 0.40386 0.15498 0.9991 2.3308 1.2097 0.8473 0.40392-0.6533 0.92628 0.92604 0.28349-0.016zm-2.6833-13.787 0.17639-0.17638 0.17639 0.17638 0.17639 0.17639h-0.70556zm3.8806 14.083v-0.11667l-0.30547-0.18879-0.30546-0.18879 0.18879 0.30547 0.18878 0.30546h0.23336zm-46.567-2.926v-0.13229h-0.26458v0.26458h0.26458zm0.26459-0.52917v-0.13229h-0.26459v0.26459h0.26459zm-1.0583-1.8521v-0.39687h-0.79375v0.44097l0.35278 0.35278h0.44097zm49.212-0.76135v-0.36448l-0.79375-0.65875v0.55068l0.1606 0.41851 0.1606 0.41852h0.47255zm-10.583-10.88v-0.1323h-0.26459v0.26459h0.26459zm6.5176-0.53244-0.15356-0.40015 1.3088 0.32849v-1.2764l-1.3251-2.6174-2.9023-3.085-1.0449-1.4675-2.7975-1.9034-1.4552-0.34842v0.58501l0.96558 1.0688 0.96557 1.0688-0.36398 0.68011-0.36399 0.68011-0.69386-0.9827-3.2874-5.002-0.37289-0.11483-0.37289-0.11484 0.40996 0.99825 0.1934 1.4563 1.0332 2.0252-0.42888 1.9016 0.29826 0.32397 0.29825 0.32397-0.92604-0.32586v0.50185l0.89278 2.2596 0.67752 0.85914 0.67751 0.85915 0.89862-1.1891 0.33179 0.33073 0.33178 0.33073h0.64587l0.1791-0.8154 0.17909-0.81541-0.55495-0.59071-0.55494-0.59071v-0.89194h0.43692l1.2428 1.3229h0.43692v-0.79375h0.82003l1.6935 0.85565 1.191 1.089-1.0587 0.98634v0.97737l1.9689 1.9124h0.73351zm-7.576-3.5686v-0.26458h0.5604l-0.16352 0.26458-0.16352 0.26459h-0.23336zm-3.9688-3.1833v-0.27289l-0.81657-0.31334-0.29475 0.29475 0.1744 0.28218 0.1744 0.28219h0.76252zm10.848-0.72403v-0.20316l-1.2989-1.9115-1.4374-0.36078-0.65188-0.51276-0.65187-0.51277h-0.72239v0.54701l1.8521 1.0928v0.44192l2.249 1.5768 0.66146 0.0458zm-6.4029-4.6122 0.3175-0.3175v-0.34216l-1.9283-1.9855-2.9665-1.0438-0.62162-0.14929-0.62162-0.1493 0.0945 0.49061 0.0945 0.49062 2.5595 0.72289-0.13243 0.50641-0.13242 0.50641 1.4823 1.0555 1.2461 0.4991 0.29104 0.0336zm-43.074 80.222v-0.79375h0.52917v1.5875h-0.52917zm-19.505-2.5881-1.3807-1.2484-1.3695-2.7822-1.0284-2.9891v-3.0821l-1.3952-0.35017 1.1169-0.85054 0.72845-2.1167h0.7405l0.29298 4.7624 1.2522 2.9104 1.8944 2.3812 2.0528 1.9065-0.90466 2.7237-0.61893-0.016zm23.618-5.329-0.15627-0.25284 0.34676-2.281 0.2114-0.39687 0.21139-0.39688 0.35928 0.93254-0.35426 2.3624-0.23102 0.14277-0.23101 0.14278zm-31.246-2.2393-0.80634-0.35635-0.86455-1.3195-0.85616-3.1167-0.70228-1.3229 1.0087-4.2179 0.8013-1.2229 0.43257 0.26734-0.53968 2.7294 0.26564 0.42825 0.26564 0.42826 0.68458 2.9104 0.5132 0.73159 0.5132 0.7316 1.4324 0.74073-0.28352 2.8232-1.0583 0.1218zm16.203-0.6381-0.71263-0.74383v-0.45854l0.73205-0.83542 0.85011-2.9735 0.76783-0.63724 0.17627 0.93962 0.17627 0.93961-0.26718 1.9961-0.54214 2.0491-0.46796 0.46796zm-8.7743-2.2033-0.68114-1.3561 0.3394-1.918 1.2945-2.6458 2.0248-2.1166 1.596-2.6066-0.24898-0.65486-0.24898-0.65487 1.0181-1.1108 1.6796-3.3608 0.17106 0.17106 0.17106 0.17105-0.15068 6.7228-0.99097 1.0148-0.79721-0.66162-0.95144 0.30554-2.3066 3.8392-0.39927 3.4716-0.59688 1.1153 0.32616 1.6308h-0.56747zm13.415-0.49597v-0.92604l0.242 0.92604-0.121 0.46303-0.121 0.46302zm-18.582-10.065v-0.54l1.6751-3.2856 0.65737-0.79375 1.1497-3.807 0.76394-0.63401 0.17675 0.17675 0.17675 0.17676 0.04374 2.3268 0.83979 0.96706 0.83153 2.5041-0.27159 0.16786-0.2716 0.16785-2.2317-2.5361-0.57076 0.35275-0.17718 0.7301-0.17717 0.73011-2.1799 3.8365h-0.4348zm39.855-2.057-0.43174-1.5387v-1.519l-0.83308-3.3218 0.1716-1.2099 1.1933 2.0192 0.52782-0.16753 0.52782-0.16752v0.78531l-0.53988 0.18 0.45116 2.6423-0.1542 3.4396-0.0108 0.19843-0.0108 0.19844h-0.45944zm-44.088-3.1089v-0.41427l0.60428-1.1558 2.0416-2.2371v-0.79762l-1.6205-2.6337-1.2629-0.94611 1.7586-3.7641 0.64846-0.40078-0.35822 4.4296 0.87148 2.0558 1.1131 1.5055-0.81741 0.93668-0.87429 2.6879-1.5535 1.1486h-0.55059zm63.176-1.3717-0.40598-0.46302-0.43557-0.8599-0.43558-0.85989h1.0528l0.671 0.98746 0.67099 0.98746v0.67091h-0.71173zm-7.4992-0.94367-0.16764-0.43685-0.0395-0.86417-0.0395-0.86416h0.79375l0.1684 2.0541-0.54792 0.54792zm-3.0537-1.173-0.28044-0.7276-0.5105-1.3229-0.51051-1.3229 0.63598-2.5108-0.44653-0.93641-0.44654-0.9364v-0.7758h0.9525l0.55159-0.55159 0.3232 0.38944 0.32321 0.38943 0.1998 2.6836 0.13446 0.21755 0.13445 0.21754 0.27117 1.6839 0.27118 1.6839-0.45225 1.2734-0.45226 1.2734h-0.41806zm-55.939-0.17184-0.50639-0.37028 0.76485-1.4291 2.2566-2.4232 0.14324 0.14324 0.14324 0.14323-1.4759 3.645-0.21122 0.33073-0.21123 0.33073h-0.3968zm16.024-1.251-0.0084-0.43062 0.79375-0.65875v0.49282l-0.77692 1.0272zm45.981-0.41881-0.0837-0.71714-1.3119-0.30676-0.19939-1.168-0.1994-1.168-1.4069-2.8756 1.2655-0.97304 0.32491-0.012 1.3805 1.9921 1.0727 3.1178v1.1389l0.75 1.0257-0.2751 0.33148-0.27511 0.33148h-0.95839zm-65.103-0.51657-0.12331-0.22149 0.5629-1.8521 0.19172 1.7871-0.25399 0.254-0.25399 0.25399zm74.637-0.53933-0.69205-0.7405-0.95594-1.8232-0.95593-1.8232-0.0497-0.6903-0.0497-0.69029 0.32227-0.59531 0.32226-0.59531h0.22756l1.8705 1.6423v1.2035l0.39688 0.94985 0.39687 0.94986v0.54616h-0.76675l0.39722 0.95067 0.39721 0.95067-0.0843 0.25284-0.0843 0.25285zm-28.087 0.0815-0.19685-0.50089 0.27704-0.27704 0.31136 0.31136-0.0973 0.48373-0.0974 0.48373zm32.826-2.7266-0.45988-0.51135-0.16209-0.81044-0.16209-0.81045 0.29027-0.1794 0.29027-0.17939-0.75692-1.4637-0.83517-0.69313 0.60049-0.72354h0.36096l1.8961 1.7368 1.9114 1.0294v0.30769l-0.72309 0.98888-1.4649-1.1523h-0.98697v0.29086l0.82586 1.597-0.0822 0.54222-0.0822 0.54223zm-13.966-2.6105-0.25804-0.67868v-1.2885h0.51055l0.27389 0.51178 0.2739 0.51177v1.6223h-0.54227zm-18.327-0.77653-0.73888-0.92603h0.43398l1.3084 0.89536 0.19438 0.27992 0.19439 0.27992 8e-3 0.39688-0.66146-2e-5zm27.955 0.72356-0.30009-0.19439-1.6976-3.175-0.80433-0.84245-0.80433-0.84246 0.15899-0.41431 0.15899-0.41432h1.6041v-2.1523l1.1906 0.35972 0.1715 0.16869 0.17149 0.1687 0.18745 1.4136 0.18744 1.4136-0.68967-0.45188-0.68967-0.45189v0.52973l2.2054 3.3676 0.51256 0.57572 0.51256 0.57573-0.17563 0.28417-0.17562 0.28417-1.424-8e-3zm-76.398-1.9503-0.42964-0.6134 1.5812-1.5812 0.64314 0.64314h0.39851l0.84299-1.7765 1.5475-1.4826 0.16842 0.43889 0.16842 0.43888h0.71308l-1.1666 1.2978-1.5415 1.9164-1.0326-0.27004-1.4632 1.602zm13.463 0.30067 0.16352-0.26459h0.52917l-0.16352 0.26459-0.16352 0.26458h-0.52917zm33.734-0.1323v-0.13229h0.26458v0.26459h-0.26458zm39.275-0.78074-0.42488-0.64845 0.10295-0.47603 0.10296-0.47603 1.1588 1.8521 9.9e-4 0.19844 9.8e-4 0.19843h-0.51696zm-18.244-1.4021 0.18926-1.5214 0.80307-2.3706-0.64004-1.77 0.28529-0.28529 1.2414 0.98636 2.0441 2.2722-0.27882 0.27883-0.27883 0.27883-1.2119-1.6392h-0.50504l0.3226 3.0865 0.16928 0.44115 0.16929 0.44114h-1.0255l-0.354 0.66146-0.35401 0.66146h-0.7653zm16.698 0.91122-0.47258-0.34555 0.11087-0.64664 0.11087-0.64663 0.19816 0.52916 0.19815 0.52917 0.24751 0.46302 0.24752 0.46302h-0.168zm-5.3075-0.7022-0.46931-0.51858 0.20302-1.0028 0.20301-1.0028 0.44888 2.016 0.54949 1.0267h-0.46577zm-66.797-0.3839-0.30983-0.37332 0.51046-0.31548 1.3673 0.51986v0.54226h-1.2581zm35.17-0.15582v-0.26458h0.52917v0.52917h-0.52917zm-1.3229-0.66146v-0.39687h0.47255l0.1523 0.39687 0.1523 0.39688h-0.77715zm-37.382-0.40099 0.13946-0.53329 0.21436-0.13249 0.21436-0.13248 0.3467 0.56098-0.63952 0.77057h-0.41483zm55.779-0.22059-0.17707-0.80618-1.5515-1.9523v-0.63596l-1.8521-1.6854v-0.47224l0.66146-0.22723 1.5399 0.43508 1.3137 1.2033 2.0321 3.175-0.58938 0.1439-0.58938 0.14389-0.0932 0.51757-0.0932 0.51756-0.42427 0.44918zm-51.032-0.53375-0.48809-0.19209 1.4536-0.66228 0.2542 0.25419 0.2542 0.2542-0.17777 0.28764-0.17777 0.28763-0.63023-0.0372zm-10.038-1.7811-0.45459-0.60267v-0.76615l1.9432-1.8874 0.47417 0.29306-0.13467 0.30396-0.13467 0.30397-1.2388 2.9579zm72.315-0.35736-0.55561-0.78028 0.17003-0.67743 0.17002-0.67743 0.43398-0.26822 0.12272 0.20275 0.12272 0.20276 0.82094 2.7781h-0.7292zm-69.595 0.0291v-0.48656l0.7276-0.95901 0.7276-0.959 0.39688-0.02v0.97632l-0.52241 0.47278-0.52241 0.47277-0.15688 0.49428-0.15688 0.49427h-0.49351zm46.586-0.27472-0.64184-0.17936-0.21562-0.64686h0.77922l0.62463 0.52036 0.62462 0.52037-0.52917-0.0352zm-24.414-0.34997 0.3175-0.3175 0.635 0.635h-1.27zm2.4342 0.0529v-0.35278l0.35278 0.35278-0.17639 0.17639-0.17639 0.17638zm-12.549-2.4656-0.66973-0.87806-0.78736-2.2316 1.315-0.59917 0.7269 0.99409 1.4058-0.64052h0.28173l-0.33761 1.5371 0.28007 0.17309 0.28007 0.1731v-1.6716l1.768-1.768 1.5393-0.33694 1.2772-0.62029 0.22208 0.66146h0.81781l2.0699-1.8701 0.50774 0.3138v0.79947l-1.6075 2.3364-0.51918 0.27786-0.51919 0.27785v1.0211l-0.54188 0.29001-0.54188 0.29 0.32008 1.0085-1.2207 0.24958-3.7042 0.32448-0.586 0.38325-0.586 0.38324h-0.52086zm45.499-0.43528-0.7513-0.78419 0.67464-0.81288h0.45361l0.53455 1.0478 0.53454 1.0478v0.28566h-0.69475zm14.201 0.20393-0.31933-0.31933-2e-3 -0.41011-2e-3 -0.4101-0.39525-0.75785-0.39524-0.75785v-0.99784h0.41142l0.55858 0.39124 0.55859 0.39125 0.5204 0.88201 0.52039 0.88201-0.56848 0.71295-0.56849 0.71295zm-3.2199-0.58451-0.27441-0.72177v-0.23014h0.51055l0.5968 1.1152-0.55852 0.55852zm-39.962-0.15811v-0.26458h1.0896l-0.16352 0.26458-0.16352 0.26459h-0.76252zm9.6573-1.0583-0.16352-0.26458h0.5604v0.52916h-0.23336zm5.6224 0.0642-0.46302-0.10299v-0.49037h0.76252l0.3488 0.56438-0.1852 0.132zm-4.6082-1.0343 0.17639-0.17639 0.17639 0.17639 0.17638 0.17639h-0.70555zm22.977-0.23446 0.0855-0.41085 0.52192-0.1044 0.1784 0.92604h-0.87135zm-4.5447-0.25061v-0.13229h0.26458v0.26458h-0.26458zm-17.603-0.41016-0.17707-0.2865 0.1632-0.1632 0.1632-0.16319 0.56645 0.56645-0.26935 0.16647-0.26936 0.16647zm-47.749-1.0294v-0.77814l0.21107-0.13045 0.21107-0.13044 0.3692 0.22817 0.3692 0.22818-0.31001 0.68041-0.31001 0.6804h-0.54051zm55.033 0.42191v-0.0916l0.40337-0.80859 0.40338-0.80859 0.85648-0.32866 0.15837 0.15836 0.15836 0.15837-0.95097 0.53219-0.24336 0.6401-0.24337 0.6401h-0.54226zm10.453-0.4359-0.48036-0.53079h0.54639l0.66936 0.80653-0.25504 0.25504zm1.5609-0.29657-0.50403-0.55954-1.1906-0.45534v-1.0714h0.43391l2.2119 1.8933v0.75252h-0.44715zm-31.24 0.11855 0.17639-0.17638 0.17639 0.17638 0.17639 0.17639h-0.70556zm12.464-0.46343-0.51317-0.37524 0.21071-0.21072 0.21071-0.21071 0.86917 0.54826 0.10394 0.31182 0.10394 0.31183h-0.47212zm-46.63-0.93564 0.32296-0.51714 0.2177 0.2177-0.15667 0.40828-0.15667 0.40829h-0.55026zm6.0315-0.24422v-0.49677l0.79375-0.65876-0.0036 0.23084-0.0036 0.23083-0.31908 1.1906h-0.46745zm24.658-0.42927 0.0098-0.79375 0.12197 0.46805 0.12197 0.46806-0.13177 0.32569-0.13177 0.3257zm-29.244-0.30869-0.17639-0.17638v-1.2347h0.76252l0.27029 0.43734-0.30078 1.1502h-0.37926zm45.332-0.35277v-0.35278l0.35278 0.35278-0.17639 0.17639-0.17639 0.17638zm25.197-0.89823-1.2307-1.1628 0.64926-0.78231-0.15206-0.39627-0.15206-0.39626 0.39301-0.15082 0.39301-0.15081 1.8106 2.2177 0.18408 0.99218 0.18408 0.99219h-0.84853zm-23.969 0.45006-0.16919-0.16919v-0.44098h0.79375v0.49794l-0.45536 0.28143zm14.678-0.62875-0.89522-0.54577 0.29855-0.29854 0.29854-0.29855 1.4579 0.51063 0.0846 0.58999 0.0845 0.58999-0.43368-2e-3zm2.6127-0.33709-0.92837-0.57037-0.71325-0.7276-0.71324-0.72761h-0.55322v-0.59884l1.0583 0.14195 1.0583 0.14196v-0.54496l0.83467 0.16693 0.83468 0.16694 0.74679 0.61977 0.3839 0.7424 0.38391 0.7424-1.0673 1.0673-0.19844-0.0249-0.19843-0.0249zm-32.65-0.076-0.16566-0.43171 0.62139-4.4419-0.5701-1.177-0.28684-1.3397 0.97388-0.6082 0.36485-2.433 1.9803-1.2501 1.6979-5.5298 1.3142-1.2346v-1.4953h-0.54778l0.2918-0.54525 0.29181-0.54524 0.62563 0.20419 0.29792 0.90617 0.29793 0.90617 2.4909 0.163-1.3525 1.2534-1.2051 0.171-0.1648 2.5984-3.4071 3.2436v1.3921l-1.5509 0.34064-0.49308 0.62744-0.40658 3.4396 0.01924 0.52916 0.01924 0.52917 0.36586 4.1139-0.47309 0.52276-0.47309 0.52275h-0.39054zm-31.376-0.10069v-0.3007l2.6074-2.7332 0.19454 0.19453 0.19454 0.19454-0.54709 1.1929-2.4493 1.7527zm46.604-0.95895-0.33954-0.75761 0.4464 0.43703 0.44639 0.43704-0.10686 0.32057-0.10685 0.32058zm10.45-0.22845 0.15229-0.39687h0.45595l-0.1523 0.39687-0.15229 0.39688h-0.45595zm0.10499-1.1732-0.27389-0.51177v-0.59519l0.56478 0.34906 0.29068-1.1116h0.69638l0.32824 1.0342-0.4413 0.67351-0.44131 0.67352h-0.44969zm-6.6239-0.15799v-0.40518l0.81657-0.31335 0.15858 0.15859 0.15859 0.15858-0.66937 0.80654h-0.46437zm7.5299-2.6162-0.51847-0.38263 0.60465-0.61381 1.1473 0.61401-0.1976 0.59256-0.25874 0.0863-0.25875 0.0863zm-1.4445-0.41825v-0.35278l0.35278 0.35278-0.35278 0.35278zm5.1594 0-0.16352-0.26459h1.1208l-0.16352 0.26459-0.16352 0.26458h-0.46671zm1.302-1.6788-0.18166-0.47339 0.60531-0.60531 1.1847 1.2436-1.016-0.3561-0.20536 0.33228-0.20536 0.33227zm-6.0416-0.30553 0.20513-0.52916-0.01-0.72761-0.01-0.7276h0.46983l0.14331 0.46302 0.1433 0.46302 0.49054 0.91886v0.30742l-0.5622-0.17843-0.5622-0.17844-0.25651 0.35905-0.25651 0.35904zm-54.265-1.1951-0.13706-0.22177 1.2222-1.4209 0.76975 0.192-0.85891 0.83623-0.85891 0.83622zm57.153 0.0646-0.52916-0.11143-0.25136-0.2389-0.25135-0.2389h1.6621l0.15222 0.2463 0.15223 0.2463-0.20276 0.10403-0.20275 0.10402zm-59.39-0.62606-0.0088-0.43371 0.52036-0.62463 0.52036-0.62462 0.0176 0.86742-1.0407 1.2492zm56.531-2.0952-0.14241-0.54457 0.87848 0.1692 0.1772 0.91996h-0.77083zm2.0651 0.0154-0.16352-0.26458h0.5604v0.52917h-0.23335zm-9.2135-0.72453-0.74683-0.38111 0.17759-0.43936 0.17759-0.43937 0.14186-0.99813 0.14185-0.99812-0.94703-1.0465h-1.3996l-0.63718 0.63718-1.9676-0.1326-0.42501-0.38462-0.425-0.38462h-0.50749l-1.8321-1.566 0.83-0.0216 1.3048 0.36981 1.3048 0.36982 3.3073-1e-3v-0.49034l-0.79864-0.30646-1.2723-2.1336 0.54796-1.2026 1.1072-0.28953 0.418 0.64156 1.1239 3.0342 0.72595 0.60249v0.5387l0.57607 1.1535 0.57606 1.1535h0.73381l-0.0568-0.7276-0.0568-0.72761 0.0798-2.4286 0.66145-0.30138 0.66146-0.30138v-1.1065l1.1901 0.169 0.1953 1.5704 0.19531 1.5704-0.78698 0.8696v1.1656l-0.80952 0.31064 0.2923 0.92096-0.80569 0.66866v1.0102l-0.66146 0.20219-1.5875 0.23152zm3.7896-6.0067v-0.11667l-0.26459-0.16352-0.26458-0.16353v0.5604h0.52917zm4.4291 5.5299-0.7249-0.67216v-0.50776h1.2171l0.635 0.635v1.2171h-0.40229zm-27.183-2.4787v-0.48847l0.80654-0.66936 0.15006 0.15005 0.15006 0.15006-0.16652 0.52466-0.16652 0.52467-0.77361 0.29686zm33.47-3.1991-0.52917-0.22739 1.1906-0.0372v0.52917l-0.1322-0.0372zm-52.367-0.56262 0.14285-0.23113h2.0854v0.50985l-2.3711-0.0476zm41.387-3.679v-0.27289l0.81657-0.31334 0.17937 0.17936 0.17936 0.17936-0.77842 0.4923-0.39688 8e-3zm14.748-0.58701-0.11248-0.33073 0.51256-0.82969-2.2669-3.8005h-0.47931l0.0828 0.58797 0.0828 0.58798-1.8521 0.3401-0.92604 0.39264v-0.61105l1.3229-1.226v-0.374l-0.39648-0.39647-0.39647-0.39648-0.16649-0.66334-0.16649-0.66335 0.65244-1.2191-0.16801-0.52936-0.16802-0.52936 0.80952-0.31064v-1.0749h0.71436l2.1424-1.552 1.0676 0.27918 0.3699-2.9606h0.73278v0.84329l1.0583 0.27676v0.40265l-0.79375 0.65876v0.72895h0.52917v0.69475l-1.5875 1.5209v0.8535l-0.4592 0.50271-0.15297 0.82144-0.15298 0.82145 0.7004 1.0029-7e-4 0.71584-7e-4 0.71585 1.1518 1.9521-0.14406 0.3754-0.14405 0.3754 0.82902 1.6032-0.32766 0.32766-0.51355-0.32071-0.51354-0.32071h-0.48681l0.13838 0.52916 0.13838 0.52917h-0.54678zm-19.114-3.1088 0.16352-0.26458h1.06l2.613-0.85466v-0.66805l-0.39449-0.32739-0.39448-0.32739-3.4141 0.64418-0.31929-0.10642-0.31929-0.10643 2.639-1.6934h0.28884l0.27676 1.0583h1.2802l0.61453 0.65413 0.61453 0.65414-3.3858 1.6017-1.4864 4.2e-4zm22.374-2.0861-0.29723-0.55537 0.22327-0.86209 0.22328-0.8621 1.2895-0.0742 0.33073 0.26792 0.33072 0.26792-8e-3 1.3904-0.46766 0.73856-0.78267-0.30034-0.27231 0.27232-0.27232 0.27231zm-64.575-2.2796v-0.13229h0.26458v0.26459h-0.26458zm66.142-1.7859-4e-3 -0.59532-0.15953-0.59531-0.15954-0.59531h1.3846v0.54577l-0.41053 0.15754-0.41053 0.15753 0.16697 0.76021 0.16697 0.7602h-0.57083zm-28.042-2.5496v-0.21742l0.64882-0.7001 0.64883-0.70009h1.2424l0.28939-0.2894 0.2894-0.28939 0.98225 0.1938-3.1628 1.8402-0.93821 0.37982zm8.2021-0.0145v-0.24896l0.26695-0.16499 0.26695-0.16498 1.0536 0.33439v0.49351h-1.5875zm4.2333-3.5875v-0.13229h0.26459v0.26459h-0.26459zm-1.2981-1.5576-0.31513-0.37971 0.2793-0.17262 0.2793-0.17261 0.16311 0.42505 0.16311 0.42506-0.12728 0.12727-0.12727 0.12728zm-0.4113-3.0398-0.16979-0.53495-1.0313-0.32731v-0.96606l0.66145-0.24325 0.66146 0.23073v0.93337l0.54981 0.24533 0.5498 0.24533-1.0517 0.95176zm2.437-3.1558-1.2568-0.08104v-0.38837l2.9739-1.8024 1.7527 0.04968 0.29975 0.18525 0.29974 0.18526-0.48025 0.53105-0.48026 0.53105-1.8521 0.87052zm-6.35-1.207-0.46302-0.35857v-0.55716l1.5595 0.58866 2.8526-0.8992h0.61495v0.47171l-1.9844 0.78782-2.1167 0.32532zm-2.7781-0.75545-0.59531-0.28711v-0.4483h0.82854l1.0384 0.55572-0.15531 0.25131-0.15532 0.25131-0.36565-0.03582zm-3.0656-2.2568-0.12023-0.19844 1.6644-2.5331 1.1894-0.3021 0.39419 0.15126 0.39418 0.15126-1.107 1.8763-1.339 1.0533h-0.95574z"/></svg>
