<?xml version="1.0" encoding="UTF-8" standalone="no"?>
<svg
   width="14.63399mm"
   height="17.312187mm"
   version="1.1"
   viewBox="0 0 14.63399 17.312187"
   id="svg304"
   sodipodi:docname="mouse-2170032.svg"
   xmlns:inkscape="http://www.inkscape.org/namespaces/inkscape"
   xmlns:sodipodi="http://sodipodi.sourceforge.net/DTD/sodipodi-0.dtd"
   xmlns="http://www.w3.org/2000/svg"
   xmlns:svg="http://www.w3.org/2000/svg">
  <sodipodi:namedview
     id="namedview304"
     pagecolor="#ffffff"
     bordercolor="#666666"
     borderopacity="1.0"
     inkscape:showpageshadow="2"
     inkscape:pageopacity="0.0"
     inkscape:pagecheckerboard="0"
     inkscape:deskcolor="#d1d1d1"
     inkscape:document-units="mm" />
  <defs
     id="defs68">
    <linearGradient
       id="at"
       x1="373.14999"
       x2="373.14999"
       y1="245.75999"
       y2="203.07001"
       gradientUnits="userSpaceOnUse">
      <stop
         stop-color="#D8D9DB"
         offset="0"
         id="stop11" />
      <stop
         stop-color="#F8F8F9"
         offset="1"
         id="stop12" />
    </linearGradient>
    <linearGradient
       id="au"
       x1="361.88"
       x2="361.88"
       y1="203.07001"
       y2="178.21001"
       gradientUnits="userSpaceOnUse">
      <stop
         stop-color="#D8D9DB"
         offset="0"
         id="stop13" />
      <stop
         stop-color="#F8F8F9"
         offset="1"
         id="stop14" />
    </linearGradient>
    <linearGradient
       id="av"
       x1="386.73999"
       x2="386.73999"
       y1="203.07001"
       y2="178.21001"
       gradientUnits="userSpaceOnUse">
      <stop
         stop-color="#D8D9DB"
         offset="0"
         id="stop15" />
      <stop
         stop-color="#F8F8F9"
         offset="1"
         id="stop16" />
    </linearGradient>
  </defs>
  <g
     transform="translate(-79.522935,-248.85043)"
     id="g304">
    <g
       transform="matrix(1.1343,0,0,1.1343,10.436,-27.726)"
       id="g234">
      <g
         transform="matrix(0.16824,0,0,0.16824,4.0633,216.48)"
         fill="#636466"
         id="g221">
        <path
           d="m 342.73,191.82 -0.009,0.0225 3.9668,2.124 -0.68457,1.6768 -8.1299,-2.3057 0.48535,-1.1885 6.3945,1.8574 0.009,-0.0225 -5.8955,-3.0791 0.48046,-1.1777 6.4209,1.9199 0.009,-0.0225 -5.9228,-3.1416 0.43555,-1.0664 7.4219,4.0391 -0.66113,1.6221 -4.3203,-1.2578 z"
           id="path210" />
        <path
           d="m 349.04,189.23 -0.7207,1.1064 -7.0381,-4.582 0.71973,-1.1064 3.0166,1.9639 0.81836,-1.2568 -3.0166,-1.9639 0.7334,-1.126 7.0391,4.582 -0.7334,1.126 -3.0166,-1.9639 -0.81836,1.2578 z"
           id="path211" />
        <path
           d="m 348.34,182.03 1.21,-1.3496 0.89356,0.80078 -1.209,1.3506 1.833,1.6416 1.5215,-1.6982 0.89453,0.80078 -2.4033,2.6826 -6.2588,-5.6074 2.4023,-2.6826 0.89453,0.80078 -1.5225,1.6992 z"
           id="path212" />
        <path
           d="m 351.83,178.58 1.3867,-1.166 0.77246,0.91797 -1.3867,1.166 1.582,1.8828 1.7451,-1.4668 0.77246,0.91894 -2.7559,2.3164 -5.4043,-6.4307 2.7559,-2.3154 0.77149,0.91796 -1.7451,1.4668 z"
           id="path213" />
        <path
           d="m 352.78,173.35 1.1182,-0.70117 3.8272,6.0977 1.8389,-1.1543 0.6377,1.0156 -2.957,1.8564 z"
           id="path214" />
        <path
           d="m 361.44,164.49 2.7432,9.3281 c 0.25391,0.86328 0.72559,1.0625 1.3301,0.88476 0.60449,-0.17773 0.89356,-0.60058 0.63965,-1.4648 l -2.7441,-9.3272 1.7959,-0.52832 2.709,9.2061 c 0.56836,1.9346 -0.0732,3.3252 -1.9385,3.874 -1.8662,0.54883 -3.1582,-0.27246 -3.7275,-2.207 l -2.708,-9.2061 z"
           id="path215" />
        <path
           d="m 375.06,165.5 0.10156,1.6338 c 0.12402,2.0117 -0.77734,3.167 -2.7529,3.29 l -0.93359,0.0576 0.29297,4.7236 -1.9756,0.12207 -0.78027,-12.571 2.9092,-0.18066 c 1.9756,-0.12207 3.0137,0.91308 3.1387,2.9248 z m -3.9609,-1.0703 0.26465,4.2559 0.93359,-0.0576 c 0.62891,-0.0391 0.95215,-0.34766 0.89649,-1.2461 l -0.11719,-1.8858 c -0.0557,-0.89746 -0.41504,-1.1641 -1.043,-1.125 l -0.93457,0.0586 z"
           id="path216" />
        <path
           d="m 382.54,163.28 1.6885,0.2666 -6.8721,11.669 -1.6885,-0.26758 z"
           id="path217" />
        <path
           d="m 387.49,164.49 2.9023,1.1787 c 1.835,0.74512 2.3223,2.1279 1.5635,3.9961 l -2.3984,5.9043 c -0.75879,1.8682 -2.0732,2.5195 -3.9072,1.7744 l -2.9023,-1.1797 z m 1.1572,2.4131 -3.3877,8.3389 1.0342,0.41992 c 0.58398,0.23731 1.0566,0.0791 1.3945,-0.75488 l 2.4668,-6.0703 c 0.33886,-0.83399 0.11035,-1.2764 -0.47364,-1.5137 z"
           id="path218" />
        <path
           d="m 394.63,171.06 c 1.1709,-1.6406 2.7041,-1.9619 4.2861,-0.833 1.582,1.1289 1.7773,2.6836 0.60644,4.3242 l -3.8047,5.332 c -1.1709,1.6406 -2.7041,1.9609 -4.2861,0.83203 -1.582,-1.1289 -1.7773,-2.6826 -0.60644,-4.3232 z m -2.2666,6.584 c -0.52246,0.73242 -0.39843,1.2412 0.11426,1.6064 0.5127,0.36622 1.0332,0.31739 1.5557,-0.41503 l 3.9512,-5.5371 c 0.52246,-0.73243 0.39843,-1.2402 -0.11328,-1.6064 -0.51368,-0.36523 -1.0342,-0.31738 -1.5566,0.41504 z"
           id="path219" />
        <path
           d="m 402.72,182.05 -0.0225,-0.0283 -5.6768,3.6592 -1.7022,-2.1201 8.9473,-8.9883 1.206,1.502 -7.0947,7.0391 0.0225,0.0273 8.335,-5.4941 1.1953,1.4883 -7.1963,7.0273 0.0234,0.0283 8.4365,-5.4834 1.082,1.3476 -10.706,6.7978 -1.6465,-2.0488 4.7969,-4.7539 z"
           id="path220" />
        <path
           d="m 409.64,188.71 -0.0137,-0.0332 -8.4326,3.4883 -0.68066,-1.6465 11.643,-4.8174 0.94922,2.2959 -6.2051,4.7295 0.0137,0.0332 6.9688,-2.8838 0.6748,1.6299 -11.643,4.8174 -0.77735,-1.8789 z"
           id="path221" />
      </g>
      <path
         d="m 63.246,250.64 h -0.39128 v 4.1819 c 0,0.82017 0.23743,1.5842 0.64562,2.2296 -0.19202,-0.73831 -0.25434,-1.5772 -0.25434,-2.2296 z"
         fill="#ffffff"
         stroke-width="0.080354"
         id="path222" />
      <g
         transform="matrix(0.16824,0,0,0.16824,4.0633,216.48)"
         id="g231">
        <path
           d="m 396.84,203.07 c -0.82641,23.752 -16.16,42.686 -34.96,42.686 -1.8429,0 -3.6518,-0.18452 -5.4177,-0.53508 4.5182,4.6616 10.842,7.5633 17.846,7.5633 13.728,0 24.857,-11.129 24.857,-24.857 v -24.857 z"
           fill="#c7c8ca"
           id="path223" />
        <path
           d="m 396.84,203.07 h -47.389 v 24.857 c 0,6.7237 2.674,12.819 7.011,17.294 1.7659,0.35056 3.5748,0.53508 5.4177,0.53508 18.8,0 34.134,-18.934 34.96,-42.686 z"
           fill="url(#at)"
           id="path224"
           style="fill:url(#at)" />
        <path
           d="m 349.46,203.07 h 24.857 v -24.857 c -13.728,0 -24.857,11.129 -24.857,24.857 z"
           fill="url(#au)"
           stroke="#595a5c"
           stroke-linecap="round"
           stroke-linejoin="round"
           stroke-miterlimit="10"
           id="path225"
           style="fill:url(#au)" />
        <path
           d="m 399.17,203.07 h -24.857 v -24.857 c 13.728,0 24.857,11.129 24.857,24.857 z"
           fill="url(#av)"
           stroke="#595a5c"
           stroke-linecap="round"
           stroke-linejoin="round"
           stroke-miterlimit="10"
           id="path226"
           style="fill:url(#av)" />
        <path
           d="m 374.31,178.32 v -0.11282 c -4.2901,0 -8.3264,1.0868 -11.848,3.0001 -1.761,0.95668 -3.3936,2.12 -4.865,3.4573 -0.58859,0.53496 -1.1514,1.0978 -1.6863,1.6863 -0.53494,0.58858 -1.042,1.2029 -1.5192,1.841 -0.71573,0.95706 -1.3641,1.9674 -1.9381,3.024 -0.38266,0.70444 -0.73227,1.4294 -1.0467,2.1729 -0.15723,0.37175 -0.30563,0.74811 -0.44504,1.1288 -0.9758,2.665 -1.5084,5.5437 -1.5084,8.5467 h 2.3384 c 0,-12.939 9.8877,-23.565 22.519,-24.744 z"
           fill="#ffffff"
           id="path227" />
        <line
           x1="349.45999"
           x2="399.17001"
           y1="203.07001"
           y2="203.07001"
           fill="none"
           id="line227" />
        <path
           d="m 399.17,203.07 c 0,-9.6151 -5.463,-17.949 -13.451,-22.084 6.7292,4.448 11.171,12.078 11.171,20.748 l -22.577,1.3231 v 0.0127 h 24.857 z"
           fill="#ffffff"
           id="path228" />
        <path
           d="m 349.46,203.07 c 0,-13.728 11.129,-24.857 24.857,-24.857 13.728,0 24.857,11.129 24.857,24.857"
           fill="none"
           stroke="#595a5c"
           stroke-linecap="round"
           stroke-linejoin="round"
           stroke-miterlimit="10"
           id="path229" />
        <path
           d="m 399.17,203.07 v 24.857 c 0,13.728 -11.129,24.857 -24.857,24.857 -13.728,0 -24.857,-11.129 -24.857,-24.857 V 203.07"
           fill="none"
           stroke="#595a5c"
           stroke-linecap="round"
           stroke-linejoin="round"
           stroke-miterlimit="10"
           id="path230" />
        <line
           x1="349.45999"
           x2="399.17001"
           y1="203.07001"
           y2="203.07001"
           fill="none"
           stroke="#595a5c"
           stroke-linecap="round"
           stroke-linejoin="round"
           stroke-miterlimit="10"
           id="line230" />
        <line
           x1="374.31"
           x2="374.31"
           y1="178.21001"
           y2="203.07001"
           fill="none"
           stroke="#595a5c"
           stroke-linecap="round"
           stroke-linejoin="round"
           stroke-miterlimit="10"
           id="line231" />
      </g>
      <g
         transform="matrix(0.16824,0,0,0.16824,4.0633,216.48)"
         id="g233">
        <path
           d="m 374.31,199.94 c -2.5684,0 -4.6505,-2.0821 -4.6505,-4.6505 v -9.301 c 0,-2.5684 2.0821,-4.6505 4.6505,-4.6505 2.5684,0 4.6505,2.0821 4.6505,4.6505 v 9.301 c 0,2.5684 -2.0821,4.6505 -4.6505,4.6505 z"
           fill="#fcb021"
           id="path231" />
        <path
           d="m 371.02,187.35 c 0,-2.5684 2.0821,-4.6504 4.6505,-4.6504 0.93616,0 1.804,0.28226 2.5338,0.75821 -0.82986,-1.2722 -2.26,-2.1167 -3.8922,-2.1167 -2.5684,0 -4.6505,2.0821 -4.6505,4.6504 v 9.301 c 0,1.6322 0.84454,3.0624 2.1168,3.8922 -0.47596,-0.72971 -0.75827,-1.5976 -0.75827,-2.5338 z"
           fill="#ffffff"
           id="path232" />
        <path
           d="m 374.31,199.94 v 0 c -2.5684,0 -4.6505,-2.0821 -4.6505,-4.6505 v -9.301 c 0,-2.5684 2.0821,-4.6505 4.6505,-4.6505 v 0 c 2.5684,0 4.6505,2.0821 4.6505,4.6505 v 9.301 c 0,2.5684 -2.0821,4.6505 -4.6505,4.6505 z"
           fill="none"
           stroke="#595a5c"
           stroke-linecap="round"
           stroke-linejoin="round"
           stroke-miterlimit="10"
           id="path233" />
      </g>
      <path
         d="m 67.183,247.81 c 0.14621,0.0244 0.2876,0.0855 0.40966,0.18326 -0.0813,-0.15784 -0.17118,-0.2994 -0.26535,-0.42468 -0.09417,-0.12528 -0.19263,-0.23428 -0.29109,-0.327 -0.09847,0.0927 -0.19696,0.2017 -0.29113,0.32698 -0.0942,0.12528 -0.18409,0.26686 -0.26542,0.4247 0.12208,-0.0978 0.26347,-0.15887 0.40967,-0.18326 v 1.4424 c -0.1462,-0.0244 -0.28762,-0.0855 -0.40967,-0.18325 0.08131,0.15784 0.1712,0.29941 0.26537,0.42468 0.09416,0.12526 0.19262,0.23428 0.29108,0.32699 0.09847,-0.0927 0.19696,-0.20169 0.29113,-0.32697 0.0942,-0.12529 0.18409,-0.26686 0.2654,-0.4247 -0.12206,0.0978 -0.26346,0.15886 -0.40966,0.18325 V 247.81 Z"
         fill="#636466"
         stroke-width="0.080354"
         id="path234" />
    </g>
  </g>
</svg>
