<?xml version="1.0" encoding="UTF-8" standalone="no"?>
<svg
   version="1.1"
   id="polyLogo_1_"
   x="0px"
   y="0px"
   viewBox="0 0 188.01161 23.093172"
   xml:space="preserve"
   sodipodi:docname="polytech_logo.svg"
   inkscape:export-filename="polytech_logo_small.svg"
   inkscape:export-xdpi="96"
   inkscape:export-ydpi="96"
   width="188.01161"
   height="23.093172"
   xmlns:inkscape="http://www.inkscape.org/namespaces/inkscape"
   xmlns:sodipodi="http://sodipodi.sourceforge.net/DTD/sodipodi-0.dtd"
   xmlns="http://www.w3.org/2000/svg"
   xmlns:svg="http://www.w3.org/2000/svg"><defs
   id="defs1" /><sodipodi:namedview
   id="namedview1"
   pagecolor="#ffffff"
   bordercolor="#666666"
   borderopacity="1.0"
   inkscape:showpageshadow="2"
   inkscape:pageopacity="0.0"
   inkscape:pagecheckerboard="0"
   inkscape:deskcolor="#d1d1d1" />&#10;<style
   type="text/css"
   id="style1">&#10;	.st0{fill:#404041;}&#10;	.st1{fill:#37B34A;}&#10;</style>&#10;&#10;<path
   id="polytechName"
   class="st0"
   d="m 155.01161,11.593173 c 0,-2.5000001 0.4,-4.7000001 1.8,-6.0000001 0.9,-0.8 2.3,-1.1 3.8,-1.2 1.8,-0.1 3.7,0.2 5,0.5 l 0.5,-4.1 c -1.5,-0.3 -3.6,-0.5 -5.1,-0.5 -3.1,0 -5.4,0.7 -7.2,2.1 -2.4,1.9 -3.6,5.2 -3.6,9.2000001 0,4 1.1,7.2 3.6,9.2 1.7,1.4 4.1,2.1 7.2,2.1 1.6,0 3.6,-0.2 5.1,-0.5 l -0.5,-4.1 c -1.3,0.3 -3.2,0.6 -5,0.5 -1.5,-0.1 -2.9,-0.4 -3.8,-1.2 -1.4,-1.3 -1.8,-3.5 -1.8,-6 M 34.111619,4.9931729 h 3.2 c 2.3,0 4.1,0.3 4.1,3.1 0,2.8000001 -1.9,3.1000001 -4.1,3.1000001 h -3.2 z m 12.3,3.1 c 0,-5.5 -3.4,-7.5 -8.5,-7.5 h -8.6 V 22.593173 h 4.8 v -7.1 h 3.6 c 5.1,0 8.7,-1.9 8.7,-7.4000001 m 9.399999,3.5000001 c 0,3.6 0.7,7.1 5.4,7.1 4.6,0 5.4,-3.5 5.4,-7.1 0,-3.6000001 -0.7,-7.1000001 -5.4,-7.1000001 -4.7,0 -5.4,3.4 -5.4,7.1000001 m -4.699999,0 c 0,-6.2000001 2.599999,-11.5000001 10.099999,-11.5000001 7.5,0 10.1,5.3 10.1,11.5000001 0,6.3 -2.5,11.5 -10.1,11.5 -7.6,0 -10.099999,-5.3 -10.099999,-11.5 M 77.311618,0.5931729 V 22.593173 h 13.099996 v -4.4 H 82.011618 V 0.5931729 Z M 96.911614,22.593173 v -9.8 l -7.7,-12.2000001 h 5.4 l 4.7,7.8 4.699996,-7.8 h 5.4 l -7.7,12.2000001 v 9.8 z m 20.299996,0 V 4.9931729 h -6.1 v -4.4 h 16.8 v 4.4 h -6.1 V 22.593173 Z m 19.4,-13.3000001 h 8.7 v 4.3000001 h -8.7 v 4.6 h 10.2 v 4.4 h -14.9 V 0.5931729 h 14.9 v 4.4 h -10.2 z m 33.6,13.3000001 V 0.5931729 h 4.7 v 8.7 h 8.4 v -8.7 h 4.7 V 22.593173 h -4.7 v -9 h -8.4 v 9 z" />&#10;<path
   id="polytechLogo"
   class="st1"
   d="m 19.169465,2.6155825 c 0.516234,0.2064931 1.376623,1.5142844 1.170129,2.9253224 -0.963635,0.791558 -2.16818,1.342207 -3.269478,1.514284 v 9.0512921 h 3.372725 c 0,1.376622 -0.206493,2.512336 -0.447402,2.890907 H 13.800638 V 7.1928519 H 9.533109 v 7.0551891 c 0,3.544802 -1.996102,5.299996 -4.542853,5.299996 -0.722727,0 -1.583116,-0.103247 -2.305843,-0.30974 C 2.340258,18.790894 2.16818,17.414272 2.133764,15.693494 3.820127,16.519468 6.125969,16.898039 6.332462,14.248041 V 7.6402539 c -2.581167,0.275324 -3.544802,2.099349 -4.405191,3.3038941 0,-1.6175321 0.103246,-3.0629851 0.172078,-4.0610361 1.755193,-1.892856 3.71688,-2.78766 7.605838,-2.78766 h 5.57532 c 1.342207,0 2.649998,-0.516234 3.888958,-1.4798694 M 11.253887,0 C 6.229216,0 4.233113,0.3097401 4.233113,0.3097401 2.064933,0.4129864 0.550648,1.8928554 0.344155,4.4051919 c 0,0 -0.344155,3.269477 -0.344155,7.0551891 0,3.785711 0.344155,7.055189 0.344155,7.055189 0.240909,2.512336 1.720778,3.992205 3.888958,4.061036 0,0 2.030518,0.30974 7.020774,0.30974 4.990256,0 7.020774,-0.30974 7.020774,-0.30974 2.133764,-0.103246 3.648049,-1.5487 3.888958,-4.061036 0,0 0.344156,-3.166231 0.344156,-7.055189 0,-3.7857121 -0.344156,-7.0551891 -0.344156,-7.0551891 C 21.92271,1.8928554 20.442841,0.4129864 18.274661,0.3441557 18.274661,0.3097397 16.244143,0 11.253887,0"
   style="stroke-width:0.344156"
   inkscape:export-filename="polytech_logo_small.svg"
   inkscape:export-xdpi="96"
   inkscape:export-ydpi="96" />&#10;</svg>
