<svg version="1.1" id="polyLogo_1_" xmlns="http://www.w3.org/2000/svg" xmlns:xlink="http://www.w3.org/1999/xlink" x="0px"
	 y="0px" viewBox="0 0 265 77" style="enable-background:new 0 0 265 77;" xml:space="preserve">
<style type="text/css">
	.st0{fill:#404041;}
	.st1{fill:#37B34A;}
</style>
<path id="polytechDesc" class="st0" d="M83.8,49.2c0,1.7,1.4,2.2,2.7,2.7c1,0.4,1.7,0.7,1.7,1.7c0,1.1-1,1.4-1.9,1.4
	c-0.7,0-1.8-0.3-2.4-0.6l-0.1,1.2c0.8,0.3,1.8,0.5,2.6,0.5c1.6,0,3-0.7,3.1-2.6c0-1.5-1.2-2.1-2.4-2.6c-0.8-0.3-2.1-0.7-2.1-1.8
	c0-1.1,1.1-1.5,2-1.5c0.6,0,1.4,0.1,2,0.4l0.1-1.1c-0.6-0.2-1.3-0.3-2.1-0.3C85.4,46.6,83.8,47.3,83.8,49.2 M84.9,34.5H87
	c1.1,0,1.9,0.5,1.9,1.7c0,1.2-0.8,1.7-1.9,1.7h-2.1V34.5z M90.1,36.2c0-1.7-1.3-2.7-2.9-2.7h-3.3v9.2h1.1v-3.9h2.2
	C88.7,38.8,90.1,37.9,90.1,36.2 M143.2,39h2.6l0,2.7c-0.5,0.1-1.1,0.1-1.6,0.1c-2.3,0-3.2-1.5-3.2-3.7c0-2.2,0.9-3.7,3.3-3.7
	c0.8,0,1.9,0.1,2.5,0.3l0.1-1c-0.7-0.2-1.7-0.3-2.5-0.3c-3,0-4.5,1.7-4.5,4.6c0,3.5,1.9,4.7,4.3,4.7c0.8,0,1.8-0.1,2.7-0.3V38h-3.7
	V39z M95.3,38.9c0-1.3-0.7-1.9-1.7-1.9c-1.3,0-1.9,0.8-2,1.9H95.3z M96.4,39.8h-4.8c0,1.6,1,2.2,2.2,2.2c0.7,0,1.5-0.2,2.1-0.5l0,1
	c-0.6,0.3-1.6,0.4-2.2,0.4c-1.8,0-3.2-1.1-3.2-3.4c0-1.9,1-3.4,3.1-3.4C95.7,36,96.4,37.4,96.4,39.8 M101.4,42.7
	c-0.4,0.1-0.9,0.2-1.3,0.2c-1.1,0-1.8-0.7-1.8-1.9v-4h-1.1v-0.9h1.1v-1.6l1.1-0.3v2h1.7V37h-1.7v3.8c0,0.8,0.3,1.1,0.9,1.1
	c0.3,0,0.7-0.1,1-0.2L101.4,42.7z M107.1,38.9c0-1.3-0.7-1.9-1.7-1.9c-1.3,0-1.9,0.8-2,1.9H107.1z M108.2,39.8h-4.8
	c0,1.6,1,2.2,2.2,2.2c0.7,0,1.5-0.2,2.1-0.5l0,1c-0.6,0.3-1.6,0.4-2.2,0.4c-1.8,0-3.2-1.1-3.2-3.4c0-1.9,1-3.4,3.1-3.4
	C107.5,36,108.3,37.4,108.2,39.8 M113.5,37.1c-0.2-0.1-0.5-0.2-0.8-0.2c-1.2,0-1.6,1-1.6,1.9v3.9h-1.1v-6.6h0.8L111,37
	c0.3-0.6,0.9-1,1.7-1.1c0.3,0,0.7,0,1.1,0.2L113.5,37.1z M128.4,42.7h-1.1v-4.3c0-1-0.4-1.5-1.3-1.5c-0.9,0-1.7,0.6-2.1,1.3v4.5H123
	V33h1.1v4c0.5-0.7,1.4-1,2.3-1c1.1,0,2.1,0.7,2.1,2.3V42.7z M134.9,38.9c0-1.3-0.7-1.9-1.7-1.9c-1.3,0-1.9,0.8-2,1.9H134.9z
	 M136,39.8h-4.8c0,1.6,1,2.2,2.2,2.2c0.7,0,1.5-0.2,2.1-0.5l0,1c-0.6,0.3-1.6,0.4-2.2,0.4c-1.8,0-3.2-1.1-3.2-3.4
	c0-1.9,1-3.4,3.1-3.4C135.3,36,136.1,37.4,136,39.8 M157.8,38.9c0-1.3-0.7-1.9-1.7-1.9c-1.3,0-1.9,0.8-2,1.9H157.8z M158.8,39.8H154
	c0,1.6,1,2.2,2.2,2.2c0.7,0,1.5-0.2,2.1-0.5l0,1c-0.6,0.3-1.6,0.4-2.2,0.4c-1.8,0-3.2-1.1-3.2-3.4c0-1.9,1-3.4,3.1-3.4
	C158.1,36,158.9,37.4,158.8,39.8 M164.2,39.5v0.5c0,1.1-0.7,1.9-1.8,1.9c-0.7,0-1.2-0.3-1.2-1.1C161.1,39.3,162.6,39.5,164.2,39.5
	 M160.5,36.3l0,1c0.6-0.3,1.4-0.4,2.1-0.4c0.8,0,1.5,0.3,1.5,1.4v0.3c-2.4-0.2-4.2,0.1-4.1,2.2c0,1.3,0.9,2,2.1,2
	c0.9,0,1.6-0.4,2.1-0.9l0.2,0.8h0.9l0-4.3c0-1.8-1.1-2.3-2.5-2.4C162.1,36,161.1,36.1,160.5,36.3 M121.5,42.7
	c-0.4,0.1-0.9,0.2-1.3,0.2c-1.1,0-1.8-0.7-1.8-1.9v-4h-1.1v-0.9h1.1v-1.6l1.1-0.3v2h1.7V37h-1.7v3.8c0,0.8,0.3,1.1,0.9,1.1
	c0.3,0,0.7-0.1,1-0.2L121.5,42.7z M152.3,37.1c-0.2-0.1-0.5-0.2-0.8-0.2c-1.2,0-1.6,1-1.6,1.9v3.9h-1.1v-6.6h0.8l0.1,0.9
	c0.3-0.6,0.9-1,1.7-1.1c0.3,0,0.7,0,1.1,0.2L152.3,37.1z M170.6,42.7c-0.4,0.1-0.9,0.2-1.3,0.2c-1.1,0-1.8-0.7-1.8-1.9v-4h-1.1v-0.9
	h1.1v-1.6l1.1-0.3v2h1.7V37h-1.7v3.8c0,0.8,0.3,1.1,0.9,1.1c0.3,0,0.7-0.1,1-0.2L170.6,42.7z M222.7,56h-1.1v-4.3
	c0-1-0.4-1.5-1.3-1.5c-0.9,0-1.7,0.6-2.1,1.3V56h-1.1v-6.6h0.9l0.1,0.9c0.5-0.7,1.5-1.1,2.3-1.1c1.1,0,2.1,0.7,2.1,2.3V56z
	 M215.2,56h-1.1v-4.3c0-1-0.4-1.5-1.3-1.5c-0.9,0-1.7,0.6-2.1,1.3V56h-1.1v-9.8h1.1v4c0.5-0.7,1.4-1,2.3-1c1.1,0,2.1,0.7,2.1,2.3V56
	z M195.3,55.9c-0.4,0.1-0.9,0.2-1.3,0.2c-1.1,0-1.8-0.7-1.8-1.9v-4h-1.1v-0.9h1.1v-1.6l1.1-0.3v2h1.7v0.9h-1.7v3.8
	c0,0.8,0.3,1.1,0.9,1.1c0.3,0,0.7-0.1,1-0.2L195.3,55.9z M227.5,52.7c0-2.4,1.4-3.5,3.3-3.5c0.4,0,1.1,0.1,1.6,0.2l-0.1,0.9
	c-0.5-0.2-1.2-0.2-1.6-0.2c-1.2,0-2.1,0.8-2.1,2.5c0,1.8,0.9,2.5,2.1,2.5c0.5,0,1.1,0,1.6-0.2l0.1,0.9c-0.5,0.1-1.2,0.2-1.6,0.2
	C228.9,56.1,227.5,55.1,227.5,52.7 M225.2,48.3c-0.4,0-0.8-0.3-0.8-0.8c0-0.4,0.3-0.8,0.8-0.8c0.4,0,0.8,0.3,0.8,0.8
	C226,47.9,225.6,48.3,225.2,48.3 M225.7,56h-1.1v-6.6h1.1V56z M203.5,52.7c0-2.4,1.4-3.5,3.3-3.5c0.4,0,1.1,0.1,1.6,0.2l-0.1,0.9
	c-0.5-0.2-1.2-0.2-1.6-0.2c-1.2,0-2.1,0.8-2.1,2.5c0,1.8,0.9,2.5,2.1,2.5c0.5,0,1.1,0,1.6-0.2l0.1,0.9c-0.5,0.1-1.2,0.2-1.6,0.2
	C204.9,56.1,203.5,55.1,203.5,52.7 M202.1,53h-4.8c0,1.6,1,2.2,2.2,2.2c0.7,0,1.5-0.2,2.1-0.5l0,1c-0.6,0.3-1.6,0.4-2.2,0.4
	c-1.8,0-3.2-1.1-3.2-3.4c0-1.9,1-3.4,3.1-3.4C201.4,49.3,202.2,50.7,202.1,53 M201,52.1c0-1.3-0.7-1.9-1.7-1.9c-1.3,0-1.9,0.8-2,1.9
	H201z M190.2,49.4l-2.8,8c-0.4,1.1-1,1.7-2,1.8c-0.3,0-0.6,0-0.9-0.1v-1c0.3,0.1,0.7,0.2,0.9,0.1c0.5-0.1,0.8-0.5,1.1-1.1l0.4-1
	l-2.7-6.6h1.2l2,5.3l1.8-5.3H190.2z M182.7,56h-1.1v-9.8h1.1V56z M174.9,52.7c0-1.4,0.5-2.5,2-2.5c1.5,0,2,1.1,2,2.5
	c0,1.4-0.5,2.5-2,2.5C175.4,55.2,174.9,54.1,174.9,52.7 M180,52.7c0-2.1-1-3.4-3.1-3.4s-3.1,1.4-3.1,3.4c0,2.1,1,3.4,3.1,3.4
	S180,54.7,180,52.7 M173.4,49.4c0-1.7-1.3-2.7-2.9-2.7h-3.3V56h1.1V52h2.2C172.1,52,173.4,51.1,173.4,49.4 M168.2,47.7h2.1
	c1.1,0,1.9,0.5,1.9,1.7c0,1.2-0.8,1.7-1.9,1.7h-2.1V47.7z M155.6,58.7l0.1-1c0.7,0.3,1.6,0.5,2.4,0.5c1.2,0,2.2-0.6,2.2-2.3v-0.7
	c-0.3,0.3-0.8,0.9-2,0.9c-2,0-3-1.5-3-3.3c-0.1-1.8,0.7-3.5,2.7-3.5c0.8,0,1.7,0.2,2.3,1l0.1-0.8h1v6.5c0,2.2-1.4,3.2-3.1,3.3
	C157.3,59.2,156.3,59,155.6,58.7 M160.2,52.8c0-1.3-0.5-2.7-2.1-2.7c-1.5,0-1.9,1.4-1.9,2.7c0,1.3,0.6,2.4,2.1,2.4
	C159.8,55.2,160.2,54,160.2,52.8 M130.2,51.1c0-1.4,1.2-1.8,2.5-1.8c0.6,0,1.3,0.1,1.8,0.2l-0.1,1c-0.3-0.2-1-0.3-1.6-0.3
	c-0.7,0-1.4,0.3-1.4,0.9c0,0.6,0.6,0.9,1.3,1.1c1,0.4,2.2,0.8,2.1,2c0,1.4-1.2,1.9-2.5,1.9c-0.6,0-1.5-0.1-2-0.3l0-1.1
	c0.4,0.2,1.3,0.5,1.9,0.5c0.7,0,1.4-0.2,1.4-0.9c0-0.7-0.7-0.9-1.6-1.3C131.1,52.7,130.2,52.3,130.2,51.1 M143.7,49.4h1.1v4.3
	c0,1,0.4,1.5,1.3,1.5c0.9,0,1.7-0.5,2.1-1.3v-4.5h1.1V56h-0.9l-0.1-0.9c-0.5,0.7-1.5,1-2.3,1c-1.1,0-2.1-0.7-2.1-2.3V49.4z
	 M154.7,50.3c-0.2-0.1-0.5-0.2-0.8-0.2c-1.2,0-1.6,1-1.6,1.9V56h-1.1v-6.6h0.8l0.1,0.9c0.3-0.6,0.9-1,1.7-1.1c0.3,0,0.7,0,1.1,0.2
	L154.7,50.3z M129.2,50.3c-0.2-0.1-0.5-0.2-0.8-0.2c-1.2,0-1.6,1-1.6,1.9V56h-1.1v-6.6h0.8l0.1,0.9c0.3-0.6,0.9-1,1.7-1.1
	c0.3,0,0.7,0,1.1,0.2L129.2,50.3z M117.2,55.9c-0.4,0.1-0.9,0.2-1.3,0.2c-1.1,0-1.8-0.7-1.8-1.9v-4h-1.1v-0.9h1.1v-1.6l1.1-0.3v2
	h1.7v0.9h-1.7v3.8c0,0.8,0.3,1.1,0.9,1.1c0.3,0,0.7-0.1,1-0.2L117.2,55.9z M94.4,55.9c-0.4,0.1-0.9,0.2-1.3,0.2
	c-1.1,0-1.8-0.7-1.8-1.9v-4h-1.1v-0.9h1.1v-1.6l1.1-0.3v2h1.7v0.9h-1.7v3.8c0,0.8,0.3,1.1,0.9,1.1c0.3,0,0.7-0.1,1-0.2L94.4,55.9z
	 M137.3,50.1v-3.8h-1.1V56h1l0.1-0.8c0.5,0.8,1.4,1,2.2,1c2-0.1,2.8-1.8,2.8-3.5c0-1.9-0.9-3.3-2.9-3.3
	C138.2,49.2,137.5,49.8,137.3,50.1 M137.2,52.6c0-1.2,0.5-2.5,2-2.5c1.5,0,1.9,1,1.9,2.5c0,1.3-0.4,2.7-1.9,2.7
	C137.7,55.2,137.2,53.9,137.2,52.6 M124,53h-4.8c0,1.6,1,2.2,2.2,2.2c0.7,0,1.5-0.2,2.1-0.5l0,1c-0.6,0.3-1.6,0.4-2.2,0.4
	c-1.8,0-3.2-1.1-3.2-3.4c0-1.9,1-3.4,3.1-3.4C123.3,49.3,124.1,50.7,124,53 M122.9,52.1c0-1.3-0.7-1.9-1.7-1.9c-1.3,0-1.9,0.8-2,1.9
	H122.9z M112.2,53h-4.8c0,1.6,1,2.2,2.2,2.2c0.7,0,1.5-0.2,2.1-0.5l0,1c-0.6,0.3-1.6,0.4-2.2,0.4c-1.8,0-3.2-1.1-3.2-3.4
	c0-1.9,1-3.4,3.1-3.4C111.5,49.3,112.3,50.7,112.2,53 M111.1,52.1c0-1.3-0.7-1.9-1.7-1.9c-1.3,0-1.9,0.8-2,1.9H111.1z M105.7,49.4
	c0-1.7-1.3-2.7-2.9-2.7h-3.3V56h1.1V52h2.2C104.3,52,105.7,51.1,105.7,49.4 M100.5,47.7h2.1c1.1,0,1.9,0.5,1.9,1.7
	c0,1.2-0.8,1.7-1.9,1.7h-2.1V47.7z M95.9,56c-0.4,0-0.7-0.3-0.7-0.7c0-0.4,0.3-0.7,0.7-0.7c0.4,0,0.7,0.3,0.7,0.7
	C96.6,55.7,96.3,56,95.9,56 M127.6,61.6c-0.4,0-0.8-0.3-0.8-0.8c0-0.4,0.3-0.8,0.8-0.8c0.4,0,0.8,0.3,0.8,0.8
	C128.4,61.2,128,61.6,127.6,61.6 M128.1,69.2H127v-6.6h1.1V69.2z M100.6,61.6c-0.4,0-0.8-0.3-0.8-0.8c0-0.4,0.3-0.8,0.8-0.8
	c0.4,0,0.8,0.3,0.8,0.8C101.4,61.2,101,61.6,100.6,61.6 M101.1,69.2h-1.1v-6.6h1.1V69.2z M98.1,69.2h-1.1v-4.3c0-1-0.4-1.5-1.3-1.5
	c-0.9,0-1.7,0.6-2.1,1.3v4.5h-1.1v-6.6h0.9l0.1,0.9c0.5-0.7,1.5-1.1,2.3-1.1c1.1,0,2.1,0.7,2.1,2.3V69.2z M121.1,64.4
	c0-1.4,1.2-1.8,2.5-1.8c0.6,0,1.3,0.1,1.8,0.2l-0.1,1c-0.3-0.2-1-0.3-1.6-0.3c-0.7,0-1.4,0.3-1.4,0.9c0,0.6,0.6,0.9,1.3,1.1
	c1,0.4,2.2,0.8,2.1,2c0,1.4-1.2,1.9-2.5,1.9c-0.6,0-1.5-0.1-2-0.3l0-1.1c0.4,0.2,1.3,0.5,1.9,0.5c0.7,0,1.4-0.2,1.4-0.9
	c0-0.7-0.7-0.9-1.6-1.3C122,65.9,121.1,65.6,121.1,64.4 M120.1,63.6c-0.2-0.1-0.5-0.2-0.8-0.2c-1.2,0-1.6,1-1.6,1.9v3.9h-1.1v-6.6
	h0.8l0.1,0.9c0.3-0.6,0.9-1,1.7-1.1c0.3,0,0.7,0,1.1,0.2L120.1,63.6z M133.9,69.2c-0.4,0.1-0.9,0.2-1.3,0.2c-1.1,0-1.8-0.7-1.8-1.9
	v-4h-1.1v-0.9h1.1V61l1.1-0.3v2h1.7v0.9h-1.7v3.8c0,0.8,0.3,1.1,0.9,1.1c0.3,0,0.7-0.1,1-0.2L133.9,69.2z M140.9,62.7l-2.8,8
	c-0.4,1.1-1,1.7-2,1.8c-0.3,0-0.6,0-0.9-0.1l0-1c0.3,0.1,0.7,0.2,0.9,0.1c0.5-0.1,0.8-0.5,1.1-1.1l0.4-1l-2.7-6.6h1.2l2,5.3l1.8-5.3
	H140.9z M115.1,66.3h-4.8c0,1.6,1,2.2,2.2,2.2c0.7,0,1.5-0.2,2.1-0.5l0,1c-0.6,0.3-1.6,0.4-2.2,0.4c-1.8,0-3.2-1.1-3.2-3.4
	c0-1.9,1-3.4,3.1-3.4C114.4,62.5,115.2,64,115.1,66.3 M114,65.4c0-1.3-0.7-1.9-1.7-1.9c-1.3,0-1.9,0.8-2,1.9H114z M108.7,62.7
	l-2.6,6.6h-1l-2.5-6.6h1.2l1.6,4.8c0.1,0.4,0.2,0.5,0.2,0.8h0c0.1-0.3,0.1-0.5,0.2-0.8l1.8-4.8H108.7z M87.3,69.4
	c-2.2,0-3.5-1.1-3.5-3.6V60h1.1v5.7c0,1.9,0.8,2.7,2.4,2.7c1.6,0,2.4-0.8,2.4-2.7V60h1.1v5.8C90.8,68.3,89.5,69.4,87.3,69.4"/>
<path id="polytechName" class="st0" d="M209.7,16c0-2.5,0.4-4.7,1.8-6c0.9-0.8,2.3-1.1,3.8-1.2c1.8-0.1,3.7,0.2,5,0.5l0.5-4.1
	c-1.5-0.3-3.6-0.5-5.1-0.5c-3.1,0-5.4,0.7-7.2,2.1c-2.4,1.9-3.6,5.2-3.6,9.2s1.1,7.2,3.6,9.2c1.7,1.4,4.1,2.1,7.2,2.1
	c1.6,0,3.6-0.2,5.1-0.5l-0.5-4.1c-1.3,0.3-3.2,0.6-5,0.5c-1.5-0.1-2.9-0.4-3.8-1.2C210.1,20.7,209.7,18.5,209.7,16 M88.8,9.4H92
	c2.3,0,4.1,0.3,4.1,3.1c0,2.8-1.9,3.1-4.1,3.1h-3.2V9.4z M101.1,12.5c0-5.5-3.4-7.5-8.5-7.5H84v22h4.8v-7.1h3.6
	C97.5,19.9,101.1,18,101.1,12.5 M110.5,16c0,3.6,0.7,7.1,5.4,7.1c4.6,0,5.4-3.5,5.4-7.1c0-3.6-0.7-7.1-5.4-7.1
	C111.2,8.9,110.5,12.3,110.5,16 M105.8,16c0-6.2,2.6-11.5,10.1-11.5c7.5,0,10.1,5.3,10.1,11.5c0,6.3-2.5,11.5-10.1,11.5
	C108.3,27.5,105.8,22.2,105.8,16 M132,5v22h13.1v-4.4h-8.4V5H132z M151.6,27v-9.8L143.9,5h5.4l4.7,7.8l4.7-7.8h5.4l-7.7,12.2V27
	H151.6z M171.9,27V9.4h-6.1V5h16.8v4.4h-6.1V27H171.9z M191.3,13.7h8.7V18h-8.7v4.6h10.2v4.4h-14.9V5h14.9v4.4h-10.2V13.7z
	 M224.9,27V5h4.7v8.7h8.4V5h4.7v22H238v-9h-8.4v9H224.9z"/>
<path id="polytechLogo" class="st1" d="M59.8,12.7c1.5,0.6,4,4.4,3.4,8.5c-2.8,2.3-6.3,3.9-9.5,4.4v26.3h9.8c0,4-0.6,7.3-1.3,8.4
	H44.2V26H31.8v20.5c0,10.3-5.8,15.4-13.2,15.4c-2.1,0-4.6-0.3-6.7-0.9c-1-1.3-1.5-5.3-1.6-10.3c4.9,2.4,11.6,3.5,12.2-4.2V27.3
	c-7.5,0.8-10.3,6.1-12.8,9.6c0-4.7,0.3-8.9,0.5-11.8C15.3,19.6,21,17,32.3,17h16.2C52.4,17,56.2,15.5,59.8,12.7 M36.8,5.1
	C22.2,5.1,16.4,6,16.4,6C10.1,6.3,5.7,10.6,5.1,17.9c0,0-1,9.5-1,20.5c0,11,1,20.5,1,20.5c0.7,7.3,5,11.6,11.3,11.8
	c0,0,5.9,0.9,20.4,0.9s20.4-0.9,20.4-0.9c6.2-0.3,10.6-4.5,11.3-11.8c0,0,1-9.2,1-20.5c0-11-1-20.5-1-20.5
	c-0.7-7.3-5-11.6-11.3-11.8C57.2,6,51.3,5.1,36.8,5.1"/>
</svg>
