<?xml version="1.0" encoding="UTF-8" standalone="no"?>
<svg
   height="141.52814"
   width="923.07684"
   viewBox="-89.99898 -22.99805 599.99315 24.411534"
   version="1.1"
   id="svg2"
   sodipodi:docname="samsung.svg"
   xmlns:inkscape="http://www.inkscape.org/namespaces/inkscape"
   xmlns:sodipodi="http://sodipodi.sourceforge.net/DTD/sodipodi-0.dtd"
   xmlns:xlink="http://www.w3.org/1999/xlink"
   xmlns="http://www.w3.org/2000/svg"
   xmlns:svg="http://www.w3.org/2000/svg">
  <defs
     id="defs2" />
  <sodipodi:namedview
     id="namedview2"
     pagecolor="#ffffff"
     bordercolor="#666666"
     borderopacity="1.0"
     inkscape:showpageshadow="2"
     inkscape:pageopacity="0.0"
     inkscape:pagecheckerboard="0"
     inkscape:deskcolor="#d1d1d1" />
  <g
     transform="matrix(2.0134,0,0,2.0134,-92.01238,-58.640733)"
     fill="#034ea2"
     id="g2">
    <path
       d="m 20.78,32.93 c 0.41,1.03 0.28,2.35 0.08,3.15 -0.35,1.42 -1.31,2.87 -4.15,2.87 -2.66,0 -4.28,-1.54 -4.28,-3.86 V 30.96 H 1 v 3.28 c 0,9.5 7.47,12.37 15.48,12.37 7.7,0 14.04,-2.62 15.05,-9.73 C 32.05,33.2 31.67,30.79 31.49,29.9 29.69,20.98 13.53,18.32 12.32,13.33 a 5.46,5.46 0 0 1 -0.04,-2.24 c 0.3,-1.37 1.23,-2.86 3.89,-2.86 2.5,0 3.95,1.54 3.95,3.86 v 2.64 h 10.63 v -3 C 30.75,2.45 22.42,1 16.4,1 8.82,1 2.63,3.51 1.5,10.46 c -0.3,1.9 -0.35,3.6 0.1,5.74 1.85,8.7 16.98,11.22 19.18,16.73"
       id="a" />
    <path
       d="M 46.6,2.36 38.7,44.95 H 50.21 L 56.04,6.3 h 0.24 l 5.67,38.65 H 73.4 L 65.55,2.35 Z m 64.35,0 -5.25,32.56 h -0.25 L 100.21,2.36 H 82.84 L 81.9,44.95 H 92.56 L 92.82,6.66 h 0.24 l 7.11,38.29 h 10.81 L 118.1,6.67 h 0.23 l 0.27,38.28 h 10.65 l -0.94,-42.6 z"
       id="path1" />
    <use
       height="100%"
       width="100%"
       xlink:href="#a"
       transform="translate(138.47,-0.08)"
       id="use1" />
    <path
       d="m 195,38.57 c 2.96,0 3.87,-2.04 4.08,-3.08 0.09,-0.46 0.1,-1.08 0.1,-1.63 V 2.36 h 10.78 v 30.53 a 37,37 0 0 1 -0.1,2.8 c -0.75,7.95 -7.03,10.53 -14.86,10.53 -7.84,0 -14.12,-2.58 -14.87,-10.53 -0.03,-0.42 -0.11,-2.02 -0.1,-2.8 V 2.35 h 10.78 v 31.5 c -0.01,0.56 0.01,1.18 0.1,1.64 0.2,1.04 1.12,3.08 4.09,3.08 m 52.08,-36.21 0.58,33.43 h -0.23 l -9.8,-33.43 h -15.8 V 44.5 H 232.3 L 231.72,9.91 h 0.23 l 10.51,34.59 h 15.17 V 2.36 Z m 36.75,35.77 c 3.08,0 4.16,-1.95 4.35,-3.1 0.09,-0.47 0.1,-1.07 0.1,-1.6 v -6.2 h -4.37 v -6.2 H 299 v 11.42 c 0,0.8 -0.02,1.38 -0.15,2.8 -0.7,7.76 -7.43,10.53 -14.98,10.53 -7.55,0 -14.27,-2.77 -14.98,-10.53 -0.12,-1.42 -0.15,-2 -0.15,-2.8 V 14.53 c 0,-0.76 0.1,-2.1 0.18,-2.8 0.95,-7.97 7.4,-10.53 14.95,-10.53 7.55,0 14.17,2.54 14.95,10.52 0.14,1.36 0.1,2.8 0.1,2.8 v 1.43 h -10.74 v -2.39 c 0,0 0,-1 -0.13,-1.62 -0.2,-0.94 -1,-3.1 -4.26,-3.1 -3.1,0 -4.01,2.05 -4.24,3.1 -0.13,0.56 -0.18,1.32 -0.18,2.01 v 19.47 c 0,0.54 0.02,1.14 0.1,1.62 0.2,1.14 1.28,3.09 4.36,3.09"
       id="path2" />
  </g>
</svg>
