<?xml version="1.0" encoding="UTF-8"?>
<!-- Created with Inkscape (http://www.inkscape.org/) -->
<svg width="1600" height="266.15" version="1.1" viewBox="0 0 1600 266.15" xmlns="http://www.w3.org/2000/svg">
 <g transform="matrix(1.3333 0 0 -1.3333 0 266.15)">
  <g transform="scale(.1)" fill="#231f20">
   <path d="m530.72 649.48c2.726-76.601 7.871-295.68 322.11-295.68 44.895 0 282.53 0 282.53 216.5 0 89.738-37.03 150.49-163.66 184.8l-467.42 121.44c-132.06 34.34-472.58 124.16-472.58 522.84 0 308.86 232.39 596.69 802.71 596.69 744.54 0 776.24-403.97 778.86-607.25h-535.91c0 58.03 2.55 263.97-250.97 263.97-153.04 0-250.77-87.09-250.77-200.61 0-139.96 116.18-174.23 192.75-195.38l356.44-92.44c253.52-66.02 554.48-145.19 554.48-549.21 0-425.1-364.36-615.15-842.27-615.15-198.08 0-517.55 31.609-691.87 227.07-139.91 153.06-142.46 340.52-145.16 422.41h530.72"/>
   <path d="m1990.6 1948.6h485.85v-1167.1l454.15 586.19h549.17l-451.53-559.77 517.55-765.63h-596.76l-472.58 736.63v-736.63h-485.85v1906.3"/>
   <path d="m4182.4 393.35c58.07-100.31 147.93-105.61 192.84-105.61 216.42 0 258.68 234.97 258.68 419.84 0 229.66-55.46 422.43-253.53 422.43-219.14 0-261.24-224.38-261.24-422.43 0-87.137 7.87-216.49 63.25-314.23m197.99 1019.2c430.39 0 765.75-216.52 765.75-686.51 0-192.75-55.45-388.13-192.74-525.42-110.92-108.21-274.59-190.12-546.55-190.12-293.11 0-483.15 71.34-612.58 195.45-153.18 145.15-190.13 343.19-190.13 504.23 0 406.67 250.91 702.37 776.25 702.37"/>
   <path d="m5446.8 1948.6h496.42v-1906.4h-496.42v1906.4"/>
   <path d="m7228.9 1362.4v-316.9h-319.39v-459.35c2.53-163.75 2.53-237.64 192.74-237.64 39.49 0 63.32 0 123.94 7.859v-311.48c-65.95-10.652-153.1-23.922-322.01-23.922-396.07 0-475.27 132.22-475.27 388.24v636.29h-250.92v316.9h258.77v205.94l477.99 190.05v-395.99h314.15"/>
   <path d="m8356.2 873.92c-5.23 76.598-21.13 277.21-237.62 277.21-216.53 0-234.96-213.89-240.2-277.21zm-483.14-269.34c0-71.297 0-322.13 253.46-322.13 131.96 0 213.86 68.641 226.99 192.79h462.25c-37.12-332.71-348.65-462.14-691.95-462.14-461.93 0-710.22 232.33-710.22 670.73 0 443.59 216.58 731.4 704.99 731.4 369.67 0 541.29-150.59 630.99-337.99 58.17-113.57 74.05-240.3 74.05-472.66h-950.56"/>
   <path d="m9953.4 902.97c0 124.06-47.51 227.08-176.94 227.08-182.18 0-224.46-184.82-224.46-417.17 0-343.23 95.11-422.53 219.12-422.53 169.01 0 179.58 169.04 179.58 269.34h501.61c2.6-335.23-266.7-549.2-667.91-549.2-422.53 0-744.61 224.53-744.61 702.39 0 522.75 366.98 699.66 739.29 699.66 142.63 0 382.83-23.72 536.03-190.06 113.6-121.48 124.1-242.92 129.3-319.51h-491.01"/>
   <path d="m10582 1948.6h501.5v-726.07c52.9 52.75 174.4 174.21 414.7 174.21 129.4 0 261.4-34.29 369.6-134.64 132.1-118.87 132.1-264.07 132.1-448.87v-770.91h-493.9v712.8c0 110.9 0 327.5-205.8 327.5-158.5 0-195.4-132.05-208.7-184.89-13.2-60.739-13.2-145.19-13.2-256.11v-599.3h-496.3v1906.3"/>
   <path d="m530.72 649.48c2.726-76.601 7.871-295.68 322.11-295.68 44.883 0 282.53 0 282.53 216.5 0 89.738-37.03 150.49-163.66 184.8l-467.42 121.44c-132.06 34.34-472.58 124.16-472.58 522.84 0 308.86 232.39 596.69 802.71 596.69 744.54 0 776.24-403.97 778.86-607.25h-535.91c0 58.03 2.55 263.97-250.97 263.97-153.05 0-250.77-87.09-250.77-200.61 0-139.96 116.18-174.23 192.75-195.38l356.44-92.44c253.52-66.02 554.48-145.19 554.48-549.21 0-425.1-364.36-615.15-842.27-615.15-198.08 0-517.55 31.609-691.87 227.07-139.91 153.06-142.46 340.52-145.16 422.41h530.72"/>
   <path d="m1990.6 1948.6h485.85v-1167.1l454.15 586.19h549.16l-451.52-559.76 517.55-765.64h-596.76l-472.58 736.63v-736.63h-485.85v1906.3"/>
   <path d="m4182.4 393.35c58.07-100.31 147.93-105.61 192.83-105.61 216.43 0 258.69 234.96 258.69 419.84 0 229.66-55.46 422.43-253.53 422.43-219.14 0-261.24-224.38-261.24-422.43 0-87.137 7.87-216.49 63.25-314.23m197.99 1019.2c430.39 0 765.75-216.52 765.75-686.51 0-192.75-55.45-388.13-192.74-525.42-110.92-108.21-274.59-190.12-546.55-190.12-293.11 0-483.15 71.34-612.58 195.45-153.18 145.15-190.13 343.19-190.13 504.23 0 406.67 250.91 702.37 776.25 702.37"/>
   <path d="m5446.8 1948.6h496.42v-1906.4h-496.42v1906.4"/>
   <path d="m7228.9 1362.4v-316.9h-319.39v-459.35c2.53-163.75 2.53-237.64 192.74-237.64 39.49 0 63.32 0 123.94 7.859v-311.48c-65.95-10.652-153.1-23.922-322.01-23.922-396.07 0-475.28 132.22-475.28 388.24v636.29h-250.91v316.9h258.77v205.94l477.99 190.05v-395.99h314.15"/>
   <path d="m8356.2 873.92c-5.23 76.598-21.13 277.21-237.62 277.21-216.53 0-234.96-213.89-240.2-277.21zm-483.14-269.34c0-71.297 0-322.13 253.46-322.13 131.96 0 213.86 68.641 226.99 192.79h462.24c-37.11-332.71-348.64-462.14-691.94-462.14-461.93 0-710.22 232.33-710.22 670.73 0 443.59 216.58 731.4 704.99 731.4 369.67 0 541.29-150.59 630.99-337.99 58.17-113.57 74.05-240.3 74.05-472.66h-950.56"/>
   <path d="m9953.4 902.97c0 124.06-47.51 227.08-176.94 227.08-182.18 0-224.46-184.82-224.46-417.17 0-343.23 95.11-422.53 219.12-422.53 169.01 0 179.58 169.04 179.58 269.34h501.61c2.6-335.24-266.7-549.2-667.91-549.2-422.53 0-744.61 224.53-744.61 702.39 0 522.75 366.98 699.66 739.29 699.66 142.63 0 382.83-23.72 536.03-190.06 113.6-121.48 124.1-242.92 129.3-319.51h-491.01"/>
   <path d="m10582 1948.6h501.5v-726.07c52.9 52.75 174.4 174.21 414.7 174.21 129.4 0 261.4-34.29 369.6-134.64 132.1-118.87 132.1-264.07 132.1-448.87v-770.91h-493.9v712.8c0 110.9 0 327.5-205.8 327.5-158.5 0-195.4-132.05-208.7-184.89-13.2-60.739-13.2-145.19-13.2-256.11v-599.3h-496.3v1906.3"/>
   <path d="m530.72 649.48c2.726-76.601 7.871-295.68 322.11-295.68 44.883 0 282.53 0 282.53 216.5 0 89.738-37.03 150.49-163.66 184.8l-467.42 121.44c-132.06 34.34-472.58 124.16-472.58 522.84 0 308.86 232.39 596.69 802.71 596.69 744.54 0 776.24-403.97 778.86-607.25h-535.91c0 58.03 2.55 263.97-250.97 263.97-153.05 0-250.77-87.09-250.77-200.61 0-139.96 116.18-174.23 192.75-195.38l356.44-92.44c253.52-66.02 554.48-145.19 554.48-549.21 0-425.1-364.36-615.15-842.27-615.15-198.08 0-517.55 31.609-691.87 227.07-139.91 153.06-142.46 340.52-145.16 422.41h530.72"/>
   <path d="m1990.6 1948.6h485.85v-1167.1l454.15 586.19h549.16l-451.52-559.76 517.55-765.64h-596.76l-472.58 736.63v-736.63h-485.85v1906.3"/>
   <path d="m4182.4 393.35c58.07-100.31 147.93-105.61 192.83-105.61 216.43 0 258.69 234.96 258.69 419.84 0 229.66-55.46 422.43-253.53 422.43-219.14 0-261.24-224.38-261.24-422.43 0-87.137 7.87-216.49 63.25-314.23m197.99 1019.2c430.39 0 765.75-216.52 765.75-686.51 0-192.75-55.45-388.13-192.74-525.42-110.92-108.21-274.59-190.12-546.55-190.12-293.11 0-483.15 71.34-612.58 195.45-153.18 145.15-190.13 343.19-190.13 504.23 0 406.67 250.91 702.37 776.25 702.37"/>
   <path d="m5446.8 1948.6h496.42v-1906.4h-496.42v1906.4"/>
   <path d="m7228.9 1362.4v-316.9h-319.39v-459.35c2.53-163.75 2.53-237.64 192.74-237.64 39.49 0 63.32 0 123.94 7.859v-311.48c-65.95-10.652-153.1-23.922-322.01-23.922-396.07 0-475.28 132.22-475.28 388.24v636.29h-250.91v316.9h258.77v205.94l477.99 190.05v-395.99h314.15"/>
   <path d="m8356.2 873.92c-5.23 76.598-21.13 277.21-237.62 277.21-216.53 0-234.96-213.89-240.2-277.21zm-483.14-269.34c0-71.297 0-322.13 253.46-322.13 131.96 0 213.86 68.641 226.99 192.79h462.24c-37.11-332.71-348.64-462.14-691.94-462.14-461.93 0-710.22 232.33-710.22 670.73 0 443.59 216.58 731.4 704.99 731.4 369.67 0 541.29-150.59 630.99-337.99 58.17-113.57 74.05-240.3 74.05-472.66h-950.56"/>
   <path d="m9953.4 902.97c0 124.06-47.51 227.08-176.94 227.08-182.18 0-224.46-184.82-224.46-417.17 0-343.23 95.11-422.53 219.12-422.53 169.01 0 179.58 169.04 179.58 269.34h501.61c2.6-335.24-266.7-549.2-667.91-549.2-422.53 0-744.61 224.53-744.61 702.39 0 522.75 366.98 699.66 739.29 699.66 142.63 0 382.83-23.72 536.03-190.06 113.6-121.48 124.1-242.92 129.3-319.51h-491.01"/>
   <path d="m10582 1948.6h501.5v-726.07c52.9 52.75 174.4 174.21 414.7 174.21 129.4 0 261.4-34.29 369.6-134.64 132.1-118.87 132.1-264.07 132.1-448.87v-770.91h-493.9v712.8c0 110.9 0 327.5-205.8 327.5-158.5 0-195.4-132.05-208.7-184.89-13.2-60.739-13.2-145.19-13.2-256.11v-599.3h-496.3v1906.3"/>
  </g>
 </g>
</svg>
