<?xml version="1.0" encoding="UTF-8" standalone="no"?>
<!-- Created with Inkscape (http://www.inkscape.org/) -->

<svg
   version="1.1"
   id="svg2"
   width="1600"
   height="266.14667"
   viewBox="0 0 1600 266.14667"
   sodipodi:docname="Skoltech_Logo.eps"
   xmlns:inkscape="http://www.inkscape.org/namespaces/inkscape"
   xmlns:sodipodi="http://sodipodi.sourceforge.net/DTD/sodipodi-0.dtd"
   xmlns="http://www.w3.org/2000/svg"
   xmlns:svg="http://www.w3.org/2000/svg">
  <defs
     id="defs6" />
  <sodipodi:namedview
     id="namedview4"
     pagecolor="#ffffff"
     bordercolor="#000000"
     borderopacity="0.25"
     inkscape:showpageshadow="2"
     inkscape:pageopacity="0.0"
     inkscape:pagecheckerboard="0"
     inkscape:deskcolor="#d1d1d1" />
  <g
     id="g8"
     inkscape:groupmode="layer"
     inkscape:label="ink_ext_XXXXXX"
     transform="matrix(1.3333333,0,0,-1.3333333,0,266.14667)">
    <g
       id="g10"
       transform="scale(0.1)">
      <path
         d="m 530.723,649.48 c 2.726,-76.601 7.871,-295.679 322.109,-295.679 44.895,0 282.528,0 282.528,216.5 0,89.738 -37.03,150.488 -163.661,184.801 L 504.277,876.539 C 372.219,910.879 31.6992,1000.7 31.6992,1399.38 c 0,308.86 232.3948,596.69 802.7148,596.69 744.536,0 776.236,-403.97 778.856,-607.25 h -535.91 c 0,58.03 2.55,263.97 -250.973,263.97 -153.035,0 -250.77,-87.09 -250.77,-200.61 0,-139.96 116.18,-174.23 192.754,-195.38 l 356.439,-92.44 c 253.52,-66.02 554.48,-145.19 554.48,-549.212 C 1679.29,190.051 1314.93,0 837.023,0 638.945,0 319.473,31.6094 145.156,227.07 5.24609,380.129 2.69531,567.59 0,649.48 h 530.723"
         style="fill:#231f20;fill-opacity:1;fill-rule:nonzero;stroke:none"
         id="path12" />
      <path
         d="m 1990.58,1948.55 h 485.85 V 781.48 l 454.15,586.19 h 549.17 L 3028.22,807.898 3545.77,42.2695 H 2949.01 L 2476.43,778.898 V 42.2695 H 1990.58 V 1948.55"
         style="fill:#231f20;fill-opacity:1;fill-rule:nonzero;stroke:none"
         id="path14" />
      <path
         d="m 4182.35,393.352 c 58.07,-100.313 147.93,-105.614 192.84,-105.614 216.42,0 258.68,234.973 258.68,419.84 0,229.66 -55.46,422.432 -253.53,422.432 -219.14,0 -261.24,-224.381 -261.24,-422.432 0,-87.137 7.87,-216.488 63.25,-314.226 m 197.99,1019.188 c 430.39,0 765.75,-216.52 765.75,-686.509 0,-192.75 -55.45,-388.133 -192.74,-525.422 C 4842.43,92.3984 4678.76,10.4883 4406.8,10.4883 c -293.11,0 -483.15,71.3398 -612.58,195.4527 -153.18,145.149 -190.13,343.188 -190.13,504.231 0,406.668 250.91,702.368 776.25,702.368"
         style="fill:#231f20;fill-opacity:1;fill-rule:nonzero;stroke:none"
         id="path16" />
      <path
         d="m 5446.81,1948.64 h 496.42 V 42.2695 H 5446.81 V 1948.64"
         style="fill:#231f20;fill-opacity:1;fill-rule:nonzero;stroke:none"
         id="path18" />
      <path
         d="M 7228.92,1362.4 V 1045.5 H 6909.53 V 586.148 c 2.53,-163.75 2.53,-237.636 192.74,-237.636 39.49,0 63.32,0 123.94,7.859 V 44.8906 c -65.95,-10.6523 -153.1,-23.9218 -322.01,-23.9218 -396.07,0 -475.27,132.2222 -475.27,388.2422 V 1045.5 h -250.92 v 316.9 h 258.77 v 205.94 l 477.99,190.05 V 1362.4 h 314.15"
         style="fill:#231f20;fill-opacity:1;fill-rule:nonzero;stroke:none"
         id="path20" />
      <path
         d="m 8356.17,873.922 c -5.23,76.598 -21.13,277.208 -237.62,277.208 -216.53,0 -234.96,-213.892 -240.2,-277.208 z M 7873.03,604.578 c 0,-71.297 0,-322.129 253.46,-322.129 131.96,0 213.86,68.641 226.99,192.789 h 462.25 C 8778.61,142.531 8467.08,13.1016 8123.78,13.1016 c -461.93,0 -710.22,232.3284 -710.22,670.7264 0,443.592 216.58,731.402 704.99,731.402 369.67,0 541.29,-150.59 630.99,-337.99 58.17,-113.568 74.05,-240.299 74.05,-472.662 h -950.56"
         style="fill:#231f20;fill-opacity:1;fill-rule:nonzero;stroke:none"
         id="path22" />
      <path
         d="m 9953.39,902.969 c 0,124.061 -47.51,227.081 -176.94,227.081 -182.18,0 -224.46,-184.82 -224.46,-417.171 0,-343.231 95.11,-422.527 219.12,-422.527 169.01,0 179.58,169.039 179.58,269.339 h 501.61 c 2.6,-335.23 -266.7,-549.2027 -667.91,-549.2027 -422.53,0 -744.61,224.5317 -744.61,702.3907 0,522.751 366.98,699.661 739.29,699.661 142.63,0 382.83,-23.72 536.03,-190.06 113.6,-121.48 124.1,-242.921 129.3,-319.511 h -491.01"
         style="fill:#231f20;fill-opacity:1;fill-rule:nonzero;stroke:none"
         id="path24" />
      <path
         d="m 10582.1,1948.55 h 501.5 v -726.07 c 52.9,52.75 174.4,174.21 414.7,174.21 129.4,0 261.4,-34.29 369.6,-134.64 C 12000,1143.18 12000,997.984 12000,813.18 V 42.2695 h -493.9 V 755.07 c 0,110.899 0,327.5 -205.8,327.5 -158.5,0 -195.4,-132.05 -208.7,-184.89 -13.2,-60.739 -13.2,-145.192 -13.2,-256.11 V 42.2695 h -496.3 V 1948.55"
         style="fill:#231f20;fill-opacity:1;fill-rule:nonzero;stroke:none"
         id="path26" />
      <path
         d="m 530.723,649.48 c 2.726,-76.601 7.871,-295.679 322.109,-295.679 44.883,0 282.528,0 282.528,216.5 0,89.738 -37.03,150.488 -163.661,184.801 L 504.277,876.539 C 372.219,910.879 31.6992,1000.7 31.6992,1399.38 c 0,308.86 232.3948,596.69 802.7148,596.69 744.536,0 776.236,-403.97 778.856,-607.25 h -535.91 c 0,58.03 2.55,263.97 -250.973,263.97 -153.047,0 -250.77,-87.09 -250.77,-200.61 0,-139.96 116.18,-174.23 192.754,-195.38 l 356.439,-92.44 c 253.52,-66.02 554.48,-145.19 554.48,-549.212 C 1679.29,190.051 1314.93,0 837.023,0 638.945,0 319.473,31.6094 145.156,227.07 5.24609,380.129 2.69531,567.59 0,649.48 h 530.723"
         style="fill:#231f20;fill-opacity:1;fill-rule:nonzero;stroke:none"
         id="path28" />
      <path
         d="m 1990.58,1948.55 h 485.85 V 781.48 l 454.15,586.19 h 549.16 L 3028.22,807.91 3545.77,42.2695 H 2949.01 L 2476.43,778.898 V 42.2695 H 1990.58 V 1948.55"
         style="fill:#231f20;fill-opacity:1;fill-rule:nonzero;stroke:none"
         id="path30" />
      <path
         d="m 4182.35,393.352 c 58.07,-100.313 147.93,-105.614 192.83,-105.614 216.43,0 258.69,234.961 258.69,419.84 0,229.66 -55.46,422.432 -253.53,422.432 -219.14,0 -261.24,-224.381 -261.24,-422.432 0,-87.137 7.87,-216.488 63.25,-314.226 m 197.99,1019.188 c 430.39,0 765.75,-216.52 765.75,-686.509 0,-192.75 -55.45,-388.133 -192.74,-525.422 C 4842.43,92.3984 4678.76,10.4883 4406.8,10.4883 c -293.11,0 -483.15,71.3398 -612.58,195.4527 -153.18,145.149 -190.13,343.188 -190.13,504.231 0,406.668 250.91,702.368 776.25,702.368"
         style="fill:#231f20;fill-opacity:1;fill-rule:nonzero;stroke:none"
         id="path32" />
      <path
         d="m 5446.81,1948.64 h 496.42 V 42.2695 H 5446.81 V 1948.64"
         style="fill:#231f20;fill-opacity:1;fill-rule:nonzero;stroke:none"
         id="path34" />
      <path
         d="M 7228.92,1362.4 V 1045.5 H 6909.53 V 586.148 c 2.53,-163.75 2.53,-237.636 192.74,-237.636 39.49,0 63.32,0 123.94,7.859 V 44.8906 c -65.95,-10.6523 -153.1,-23.9218 -322.01,-23.9218 -396.07,0 -475.28,132.2222 -475.28,388.2422 V 1045.5 h -250.91 v 316.9 h 258.77 v 205.94 l 477.99,190.05 V 1362.4 h 314.15"
         style="fill:#231f20;fill-opacity:1;fill-rule:nonzero;stroke:none"
         id="path36" />
      <path
         d="m 8356.17,873.922 c -5.23,76.598 -21.13,277.208 -237.62,277.208 -216.53,0 -234.96,-213.892 -240.2,-277.208 z M 7873.03,604.578 c 0,-71.297 0,-322.129 253.46,-322.129 131.96,0 213.86,68.641 226.99,192.789 h 462.24 C 8778.61,142.531 8467.08,13.1016 8123.78,13.1016 c -461.93,0 -710.22,232.3284 -710.22,670.7264 0,443.592 216.58,731.402 704.99,731.402 369.67,0 541.29,-150.59 630.99,-337.99 58.17,-113.568 74.05,-240.299 74.05,-472.662 h -950.56"
         style="fill:#231f20;fill-opacity:1;fill-rule:nonzero;stroke:none"
         id="path38" />
      <path
         d="m 9953.39,902.969 c 0,124.061 -47.51,227.081 -176.94,227.081 -182.18,0 -224.46,-184.82 -224.46,-417.171 0,-343.231 95.11,-422.527 219.12,-422.527 169.01,0 179.58,169.039 179.58,269.339 h 501.61 c 2.6,-335.242 -266.7,-549.2027 -667.91,-549.2027 -422.53,0 -744.61,224.5317 -744.61,702.3907 0,522.751 366.98,699.661 739.29,699.661 142.63,0 382.83,-23.72 536.03,-190.06 113.6,-121.48 124.1,-242.921 129.3,-319.511 h -491.01"
         style="fill:#231f20;fill-opacity:1;fill-rule:nonzero;stroke:none"
         id="path40" />
      <path
         d="m 10582.1,1948.55 h 501.5 v -726.07 c 52.9,52.75 174.4,174.21 414.7,174.21 129.4,0 261.4,-34.29 369.6,-134.64 C 12000,1143.18 12000,997.984 12000,813.18 V 42.2695 h -493.9 V 755.07 c 0,110.899 0,327.5 -205.8,327.5 -158.5,0 -195.4,-132.05 -208.7,-184.89 -13.2,-60.739 -13.2,-145.192 -13.2,-256.11 V 42.2695 h -496.3 V 1948.55"
         style="fill:#231f20;fill-opacity:1;fill-rule:nonzero;stroke:none"
         id="path42" />
      <path
         d="m 530.723,649.48 c 2.726,-76.601 7.871,-295.679 322.109,-295.679 44.883,0 282.528,0 282.528,216.5 0,89.738 -37.03,150.488 -163.661,184.801 L 504.277,876.539 C 372.219,910.879 31.6992,1000.7 31.6992,1399.38 c 0,308.86 232.3948,596.69 802.7148,596.69 744.536,0 776.236,-403.97 778.856,-607.25 h -535.91 c 0,58.03 2.55,263.97 -250.973,263.97 -153.047,0 -250.77,-87.09 -250.77,-200.61 0,-139.96 116.18,-174.23 192.754,-195.38 l 356.439,-92.44 c 253.52,-66.02 554.48,-145.19 554.48,-549.212 C 1679.29,190.051 1314.93,0 837.023,0 638.945,0 319.473,31.6094 145.156,227.07 5.24609,380.129 2.69531,567.59 0,649.48 h 530.723"
         style="fill:#231f20;fill-opacity:1;fill-rule:nonzero;stroke:none"
         id="path44" />
      <path
         d="m 1990.58,1948.55 h 485.85 V 781.48 l 454.15,586.19 h 549.16 L 3028.22,807.91 3545.77,42.2695 H 2949.01 L 2476.43,778.898 V 42.2695 H 1990.58 V 1948.55"
         style="fill:#231f20;fill-opacity:1;fill-rule:nonzero;stroke:none"
         id="path46" />
      <path
         d="m 4182.35,393.352 c 58.07,-100.313 147.93,-105.614 192.83,-105.614 216.43,0 258.69,234.961 258.69,419.84 0,229.66 -55.46,422.432 -253.53,422.432 -219.14,0 -261.24,-224.381 -261.24,-422.432 0,-87.137 7.87,-216.488 63.25,-314.226 m 197.99,1019.188 c 430.39,0 765.75,-216.52 765.75,-686.509 0,-192.75 -55.45,-388.133 -192.74,-525.422 C 4842.43,92.3984 4678.76,10.4883 4406.8,10.4883 c -293.11,0 -483.15,71.3398 -612.58,195.4527 -153.18,145.149 -190.13,343.188 -190.13,504.231 0,406.668 250.91,702.368 776.25,702.368"
         style="fill:#231f20;fill-opacity:1;fill-rule:nonzero;stroke:none"
         id="path48" />
      <path
         d="m 5446.81,1948.64 h 496.42 V 42.2695 H 5446.81 V 1948.64"
         style="fill:#231f20;fill-opacity:1;fill-rule:nonzero;stroke:none"
         id="path50" />
      <path
         d="M 7228.92,1362.4 V 1045.5 H 6909.53 V 586.148 c 2.53,-163.75 2.53,-237.636 192.74,-237.636 39.49,0 63.32,0 123.94,7.859 V 44.8906 c -65.95,-10.6523 -153.1,-23.9218 -322.01,-23.9218 -396.07,0 -475.28,132.2222 -475.28,388.2422 V 1045.5 h -250.91 v 316.9 h 258.77 v 205.94 l 477.99,190.05 V 1362.4 h 314.15"
         style="fill:#231f20;fill-opacity:1;fill-rule:nonzero;stroke:none"
         id="path52" />
      <path
         d="m 8356.17,873.922 c -5.23,76.598 -21.13,277.208 -237.62,277.208 -216.53,0 -234.96,-213.892 -240.2,-277.208 z M 7873.03,604.578 c 0,-71.297 0,-322.129 253.46,-322.129 131.96,0 213.86,68.641 226.99,192.789 h 462.24 C 8778.61,142.531 8467.08,13.1016 8123.78,13.1016 c -461.93,0 -710.22,232.3284 -710.22,670.7264 0,443.592 216.58,731.402 704.99,731.402 369.67,0 541.29,-150.59 630.99,-337.99 58.17,-113.568 74.05,-240.299 74.05,-472.662 h -950.56"
         style="fill:#231f20;fill-opacity:1;fill-rule:nonzero;stroke:none"
         id="path54" />
      <path
         d="m 9953.39,902.969 c 0,124.061 -47.51,227.081 -176.94,227.081 -182.18,0 -224.46,-184.82 -224.46,-417.171 0,-343.231 95.11,-422.527 219.12,-422.527 169.01,0 179.58,169.039 179.58,269.339 h 501.61 c 2.6,-335.242 -266.7,-549.2027 -667.91,-549.2027 -422.53,0 -744.61,224.5317 -744.61,702.3907 0,522.751 366.98,699.661 739.29,699.661 142.63,0 382.83,-23.72 536.03,-190.06 113.6,-121.48 124.1,-242.921 129.3,-319.511 h -491.01"
         style="fill:#231f20;fill-opacity:1;fill-rule:nonzero;stroke:none"
         id="path56" />
      <path
         d="m 10582.1,1948.55 h 501.5 v -726.07 c 52.9,52.75 174.4,174.21 414.7,174.21 129.4,0 261.4,-34.29 369.6,-134.64 C 12000,1143.18 12000,997.984 12000,813.18 V 42.2695 h -493.9 V 755.07 c 0,110.899 0,327.5 -205.8,327.5 -158.5,0 -195.4,-132.05 -208.7,-184.89 -13.2,-60.739 -13.2,-145.192 -13.2,-256.11 V 42.2695 h -496.3 V 1948.55"
         style="fill:#231f20;fill-opacity:1;fill-rule:nonzero;stroke:none"
         id="path58" />
    </g>
  </g>
</svg>
